<svg width="25" height="24" viewBox="0 0 25 24" fill="none" xmlns="http://www.w3.org/2000/svg">
<path fill-rule="evenodd" clip-rule="evenodd" d="M16.5 15V16.5C16.5 18.15 15.1575 19.5 13.5 19.5H3C1.35 19.5 0 18.1575 0 16.5V7.5C0 5.85 1.3425 4.5 3 4.5H13.5C15.15 4.5 16.5 5.8425 16.5 7.5V9L19.065 6.435C19.3462 6.15368 19.7277 5.99558 20.1255 5.9955H22.5105C22.9083 5.9955 23.2899 6.15354 23.5712 6.43484C23.8525 6.71614 24.0105 7.09768 24.0105 7.4955V16.4955C24.0105 16.8933 23.8525 17.2749 23.5712 17.5562C23.2899 17.8375 22.9083 17.9955 22.5105 17.9955H20.1255C19.7277 17.9954 19.3462 17.8373 19.065 17.556L16.5 14.991V15ZM3 6H13.5C13.8978 6 14.2794 6.15804 14.5607 6.43934C14.842 6.72064 15 7.10218 15 7.5V16.5C15 16.8978 14.842 17.2794 14.5607 17.5607C14.2794 17.842 13.8978 18 13.5 18H3C2.60218 18 2.22064 17.842 1.93934 17.5607C1.65804 17.2794 1.5 16.8978 1.5 16.5V7.5C1.5 7.10218 1.65804 6.72064 1.93934 6.43934C2.22064 6.15804 2.60218 6 3 6ZM16.5 12.885L20.115 16.5H22.5V7.5H20.115L16.5 11.115V12.87V12.885Z" fill="#666666"/>
</svg>
