<svg width="24" height="24" viewBox="0 0 24 24" fill="none" xmlns="http://www.w3.org/2000/svg">
<path d="M2.5 5V19C2.5 19.2652 2.60536 19.5196 2.79289 19.7071C2.98043 19.8946 3.23478 20 3.5 20H9L7.5 14.5L11 13.5L10.5 10L14.5 8L13.5 6.5L15 4H3.5C3.23478 4 2.98043 4.10536 2.79289 4.29289C2.60536 4.48043 2.5 4.73478 2.5 5ZM21.5 19V5C21.5 4.73478 21.3946 4.48043 21.2071 4.29289C21.0196 4.10536 20.7652 4 20.5 4H19L17 7L18.5 9.5L14 11.5L14.5 15.5L11 16.5L12 20H20.5C20.7652 20 21.0196 19.8946 21.2071 19.7071C21.3946 19.5196 21.5 19.2652 21.5 19Z" stroke="#2E2E2E" stroke-width="1.3" stroke-linecap="round" stroke-linejoin="round"/>
<path d="M7.25 9C7.44891 9 7.63968 8.92098 7.78033 8.78033C7.92098 8.63968 8 8.44891 8 8.25C8 8.05109 7.92098 7.86032 7.78033 7.71967C7.63968 7.57902 7.44891 7.5 7.25 7.5C7.05109 7.5 6.86032 7.57902 6.71967 7.71967C6.57902 7.86032 6.5 8.05109 6.5 8.25C6.5 8.44891 6.57902 8.63968 6.71967 8.78033C6.86032 8.92098 7.05109 9 7.25 9Z" stroke="#2E2E2E" stroke-width="1.3" stroke-linecap="round" stroke-linejoin="round"/>
</svg>
