<svg width="20" height="20" viewBox="0 0 20 20" fill="none" xmlns="http://www.w3.org/2000/svg">
<path d="M4.55845 5.01255V15.4409C4.55834 15.7387 4.61692 16.0336 4.73083 16.3087C4.84474 16.5839 5.01176 16.8339 5.22234 17.0445C5.43292 17.2551 5.68293 17.4221 5.95809 17.536C6.23324 17.6499 6.52815 17.7085 6.82595 17.7084H13.1743C13.7754 17.7084 14.352 17.4696 14.7771 17.0445C15.2021 16.6194 15.441 16.0429 15.441 15.4417V5.01172M2.74512 5.01255H17.2551" stroke="#666666" stroke-width="1.5" stroke-linecap="round" stroke-linejoin="round"/>
<path d="M7.2793 5.01234V3.65151C7.27908 3.47278 7.31413 3.29576 7.38245 3.1306C7.45078 2.96545 7.55102 2.8154 7.67744 2.68906C7.80386 2.56271 7.95397 2.46256 8.11917 2.39434C8.28436 2.32612 8.4614 2.29118 8.64013 2.29151H11.3601C11.5389 2.29118 11.7159 2.32612 11.8811 2.39434C12.0463 2.46256 12.1964 2.56271 12.3228 2.68906C12.4492 2.8154 12.5495 2.96545 12.6178 3.1306C12.6861 3.29576 12.7212 3.47278 12.721 3.65151V5.01234M8.1868 14.1598V9.62734M11.8143 14.1598V9.62734" stroke="#666666" stroke-width="1.5" stroke-linecap="round" stroke-linejoin="round"/>
</svg>
