<svg width="24" height="24" viewBox="0 0 24 24" fill="none" xmlns="http://www.w3.org/2000/svg">
<path d="M3.179 15.3618L4.214 4.48977H8.964L9.836 13.6388M8.005 0.878766C9.03722 0.859097 10.0607 1.07131 11 1.49977C18.429 4.67177 21.5 0.759766 21.5 0.759766M0.75 23.2398H23.25V11.5998C23.2497 11.4306 23.2107 11.2637 23.1361 11.1118C23.0614 10.96 22.953 10.8272 22.8192 10.7237C22.6854 10.6202 22.5296 10.5486 22.3639 10.5145C22.1982 10.4803 22.0269 10.4845 21.863 10.5268L1.5 15.7998C1.2854 15.8554 1.09538 15.9808 0.959804 16.1562C0.824225 16.3316 0.750775 16.5471 0.751 16.7688L0.75 23.2398Z" stroke="#2E2E2E" stroke-width="1.5" stroke-linecap="round" stroke-linejoin="round"/>
<path d="M11.25 19.2397H9.75M6.25 19.2397H4.75M19.75 23.2407H14.75V18.7407C14.75 18.4755 14.8554 18.2212 15.0429 18.0336C15.2304 17.8461 15.4848 17.7407 15.75 17.7407H18.75C19.0152 17.7407 19.2696 17.8461 19.4571 18.0336C19.6446 18.2212 19.75 18.4755 19.75 18.7407V23.2407Z" stroke="#2E2E2E" stroke-width="1.5" stroke-linecap="round" stroke-linejoin="round"/>
</svg>
