<svg width="24" height="24" viewBox="0 0 24 24" fill="none" xmlns="http://www.w3.org/2000/svg">
<path fill-rule="evenodd" clip-rule="evenodd" d="M11.9981 1.25C9.94268 1.25 7.97144 2.06652 6.51803 3.51992C5.06463 4.97333 4.24811 6.94457 4.24811 9V9.704C4.24805 10.4009 4.04172 11.0822 3.65511 11.662L2.50811 13.385C1.17411 15.385 2.19211 18.103 4.51111 18.735C5.26644 18.941 6.02778 19.1153 6.79511 19.258L6.79711 19.263C7.56511 21.315 9.62011 22.75 11.9981 22.75C14.3761 22.75 16.4311 21.315 17.2001 19.263L17.2021 19.258C17.9702 19.1145 18.7321 18.94 19.4861 18.735C21.8051 18.103 22.8231 15.385 21.4891 13.385L20.3411 11.662C19.9545 11.0822 19.7482 10.4009 19.7481 9.704V9C19.7481 6.94457 18.9316 4.97333 17.4782 3.51992C16.0248 2.06652 14.0535 1.25 11.9981 1.25ZM15.3741 19.537C13.1311 19.8046 10.8642 19.8046 8.62111 19.537C9.33211 20.558 10.5691 21.25 11.9981 21.25C13.4271 21.25 14.6631 20.558 15.3741 19.537ZM5.74811 9C5.74811 7.3424 6.40659 5.75269 7.57869 4.58058C8.7508 3.40848 10.3405 2.75 11.9981 2.75C13.6557 2.75 15.2454 3.40848 16.4175 4.58058C17.5896 5.75269 18.2481 7.3424 18.2481 9V9.704C18.2481 10.697 18.5421 11.668 19.0931 12.494L20.2411 14.217C20.419 14.4834 20.531 14.7883 20.5678 15.1065C20.6046 15.4247 20.5653 15.7471 20.4529 16.0471C20.3406 16.3471 20.1585 16.6161 19.9217 16.8319C19.6849 17.0476 19.4002 17.204 19.0911 17.288C14.4469 18.5546 9.5483 18.5546 4.90411 17.288C4.59515 17.2039 4.3106 17.0476 4.07393 16.8319C3.83727 16.6162 3.65527 16.3473 3.54295 16.0475C3.43062 15.7476 3.39119 15.4254 3.42791 15.1073C3.46462 14.7892 3.57643 14.4844 3.75411 14.218L4.90411 12.494C5.45465 11.6677 5.74832 10.6969 5.74811 9.704V9Z" fill="#2E2E2E"/>
</svg>
