<svg width="24" height="24" viewBox="0 0 24 24" fill="none" xmlns="http://www.w3.org/2000/svg">
<path d="M19.5737 19.5737H13.7442M13.7442 13.7442H19.5737M13.7442 16.659H19.5737M19.7731 9.29051C20.145 10.0145 19.5807 10.8295 18.7669 10.8295H14.5114C13.7093 10.8295 13.145 10.0344 13.4994 9.31383C14.2631 7.76435 15.2401 6.63226 16.659 5C18.0196 6.62643 18.9861 7.75502 19.7731 9.29051ZM5.4104 9.63212C5.47219 10.1918 5.92106 10.6395 6.47953 10.7047C7.03916 10.7689 7.61628 10.8295 8.20622 10.8295C8.79617 10.8295 9.37212 10.7689 9.93176 10.7047C10.4914 10.6395 10.9403 10.1918 11.0021 9.63212C11.0638 9.07599 11.121 8.5012 11.121 7.91475C11.121 7.3283 11.0627 6.75351 11.0021 6.19738C10.97 5.92457 10.8472 5.67045 10.6533 5.4759C10.4593 5.28135 10.2056 5.15767 9.93292 5.12475C9.37212 5.06063 8.79617 5 8.20622 5C7.61628 5 7.04032 5.06063 6.48069 5.12475C5.92106 5.19004 5.47219 5.63775 5.4104 6.19738C5.3486 6.75351 5.29147 7.3283 5.29147 7.91475C5.29147 8.5012 5.34977 9.07599 5.4104 9.63212ZM8.20622 19.8664C10.2582 19.8664 11.4124 18.7121 11.4124 16.6602C11.4124 14.6082 10.2582 13.4539 8.20622 13.4539C6.15424 13.4539 5 14.6082 5 16.6602C5 18.7121 6.15424 19.8664 8.20622 19.8664Z" stroke="#666666" stroke-width="1.3" stroke-linecap="round" stroke-linejoin="round"/>
</svg>
