<svg width="24" height="24" viewBox="0 0 24 24" fill="none" xmlns="http://www.w3.org/2000/svg">
<path d="M23.0093 11.4002C23.034 11.3117 23.0633 11.2254 23.0843 11.1354L23.0948 11.0814C23.3093 10.2166 23.3086 9.31234 23.0927 8.44783C22.8769 7.58333 22.4524 6.7849 21.8565 6.12241C21.3076 5.38353 20.592 4.78462 19.768 4.37437C18.944 3.96412 18.0348 3.75411 17.1143 3.76141H17.0753C17.0003 3.76141 16.9163 3.76666 16.8368 3.76891H16.746C15.1611 3.85742 13.5856 4.0716 12.0345 4.40942L8.67679 3.87316H8.65054C7.05127 3.59658 5.40542 3.86046 3.97279 4.62316C3.1661 5.11023 2.47306 5.7644 1.94029 6.54166L1.90954 6.58292L1.89079 6.60916C1.18673 7.65359 0.803878 8.8813 0.789484 10.1408C0.77509 11.4003 1.12978 12.6364 1.80979 13.6967C1.79554 13.7222 1.78729 13.7507 1.77379 13.7769C1.70885 13.907 1.65346 14.0416 1.60804 14.1797C1.58404 14.2547 1.56604 14.3342 1.54879 14.4122C1.53479 14.4757 1.52279 14.5392 1.51279 14.6027C1.50304 14.6821 1.49753 14.7619 1.49629 14.8419C1.49629 14.9064 1.48879 14.9694 1.49179 15.0332C1.49679 15.1172 1.50629 15.2007 1.52029 15.2837C1.52929 15.3429 1.53379 15.4022 1.54729 15.4607C1.57029 15.5532 1.59929 15.6437 1.63429 15.7322C1.65154 15.7794 1.66279 15.8282 1.68379 15.8747C1.74529 16.0122 1.82029 16.1417 1.90879 16.2632C2.24821 16.7489 2.74887 17.0987 3.32179 17.2502C3.30052 17.57 3.35381 17.8903 3.47745 18.186C3.6011 18.4817 3.79171 18.7447 4.03429 18.9542C4.46411 19.3306 4.9912 19.5786 5.55529 19.6697C5.67154 20.0469 5.87554 20.3912 6.15004 20.6747C6.52461 21.0806 7.03071 21.341 7.57879 21.4097C7.70929 21.8544 7.95679 22.2564 8.29579 22.5722C8.71354 22.9832 9.27304 23.2172 9.85879 23.2247C10.2894 23.2217 10.7123 23.1097 11.088 22.8992C11.646 23.2187 12.3 23.3267 12.9315 23.2037C13.263 23.1432 13.5772 23.0104 13.8516 22.8148C14.126 22.6192 14.354 22.3656 14.5193 22.0719C14.535 22.0472 14.544 22.0254 14.5583 22.0007C15.1958 22.1312 15.8595 22.0164 16.4168 21.6797C16.9068 21.403 17.2799 20.958 17.4668 20.4272C18.1373 20.4362 18.7868 20.1947 19.287 19.7484C19.5609 19.5086 19.7736 19.207 19.9074 18.8685C20.0413 18.53 20.0924 18.1644 20.0565 17.8022C20.0565 17.7812 20.0513 17.7647 20.0498 17.7444C20.4412 17.6271 20.7933 17.4054 21.0683 17.1032C21.4238 16.7283 21.6526 16.2513 21.7226 15.7395C21.7926 15.2276 21.7001 14.7067 21.4583 14.2502C22.1328 13.4713 22.643 12.5641 22.9583 11.5832C22.9763 11.5254 22.9913 11.4624 23.0093 11.4002ZM21.7253 10.1252C21.6877 10.5022 21.6048 10.8734 21.4785 11.2307L21.4545 11.3057C21.2051 11.9728 20.8456 12.5934 20.391 13.1417C18.0383 11.0882 14.616 8.09116 14.3348 7.82266C14.0099 7.51179 13.5784 7.33685 13.1288 7.33366C12.9893 7.33202 12.8504 7.35201 12.717 7.39291C12.2415 7.54291 11.073 7.91791 10.053 8.29666C9.66304 8.44141 9.21754 8.07166 9.08179 7.75666C8.99179 7.56766 8.97679 7.35166 9.03829 7.15216C9.16054 6.93091 9.36604 6.76666 9.60904 6.69617C11.9162 5.88522 14.3267 5.40544 16.7685 5.27116H16.8593C16.9425 5.27116 17.025 5.26516 17.1015 5.26366C17.6617 5.25487 18.2177 5.36027 18.7358 5.57341C19.5044 5.92266 20.1789 6.44966 20.7038 7.11091C21.1738 7.64124 21.502 8.28187 21.6578 8.97316L21.6645 9.00766C21.7013 9.19219 21.7241 9.37922 21.7328 9.56716C21.735 9.62791 21.7388 9.70441 21.7388 9.77191C21.7388 9.88066 21.7388 9.98866 21.726 10.0959L21.7253 10.1252ZM3.00904 15.1194C3.00454 15.0864 3.00279 15.0527 3.00379 15.0182C2.99568 14.9459 2.99568 14.8729 3.00379 14.8007C3.01271 14.7582 3.02347 14.7162 3.03604 14.6747C3.05154 14.6077 3.07304 14.5429 3.10054 14.4804C3.12554 14.4354 3.15379 14.3924 3.18529 14.3514C3.23029 14.2774 3.28404 14.2112 3.34654 14.1527L3.35104 14.1489L4.76179 12.9527C4.85552 12.8805 4.96256 12.8275 5.07679 12.7967C5.19102 12.7659 5.31019 12.758 5.4275 12.7733C5.5448 12.7886 5.65793 12.8269 5.76042 12.886C5.86291 12.9451 5.95275 13.0238 6.02479 13.1177C6.07762 13.1943 6.1119 13.2822 6.12491 13.3743C6.13793 13.4665 6.12933 13.5604 6.09979 13.6487L3.88729 15.8042C3.73458 15.8068 3.5838 15.7698 3.44962 15.6968C3.31543 15.6239 3.20241 15.5175 3.12154 15.3879C3.06495 15.3077 3.02656 15.216 3.00904 15.1194ZM4.89604 16.9157L7.32379 14.5502L7.31254 14.5389C7.44935 14.4715 7.60345 14.4475 7.75429 14.4699C7.94704 14.5224 8.12104 14.6304 8.25379 14.7804C8.38579 14.8929 8.47429 15.0474 8.50429 15.2184C8.51544 15.3917 8.47749 15.5645 8.39479 15.7172L8.37529 15.7809L5.92204 18.1712C5.74989 18.1788 5.57813 18.1492 5.41843 18.0845C5.25873 18.0198 5.11483 17.9215 4.99654 17.7962C4.89938 17.6734 4.83848 17.5258 4.82072 17.3702C4.80297 17.2147 4.82905 17.0572 4.89604 16.9157ZM6.98479 19.2294L9.51979 16.7627C9.68104 16.7949 9.82879 16.8774 9.94129 16.9982C10.0968 17.1343 10.205 17.3163 10.2503 17.5179C10.2617 17.6047 10.2579 17.6927 10.239 17.7782L8.04679 19.9119C7.90053 19.9389 7.74981 19.9283 7.60878 19.8811C7.46774 19.8339 7.34103 19.7516 7.24054 19.6419C7.12334 19.527 7.0356 19.3855 6.98479 19.2294ZM9.33754 21.4884C9.20156 21.3689 9.09439 21.2202 9.02404 21.0534L11.0948 19.0382C11.2425 19.0869 11.3775 19.1672 11.4908 19.2729C11.5965 19.3574 11.6763 19.4699 11.721 19.5977C11.7465 19.6922 11.7465 19.7918 11.721 19.8864C11.6277 20.1891 11.4716 20.4687 11.2628 20.7069L10.6958 21.3669H10.7003C10.6815 21.3789 10.6605 21.3842 10.6433 21.3977C10.4319 21.5907 10.1597 21.704 9.87379 21.7179C9.67191 21.7144 9.47943 21.6321 9.33754 21.4884ZM12.693 21.7187C12.582 21.7362 12.4705 21.7412 12.3585 21.7337L12.414 21.6692L12.432 21.6474L12.4328 21.6482C12.6599 21.367 12.8523 21.0596 13.0058 20.7324L13.3373 21.0834C13.3098 21.1544 13.2773 21.2227 13.2398 21.2882C13.1864 21.396 13.1096 21.4907 13.015 21.5651C12.9204 21.6396 12.8104 21.692 12.693 21.7187ZM17.493 18.9249L16.1588 17.4467C16.0442 17.3126 15.886 17.2233 15.7121 17.1944C15.5381 17.1654 15.3595 17.1988 15.2078 17.2886C15.056 17.3784 14.9407 17.5188 14.8823 17.6852C14.8239 17.8515 14.826 18.0332 14.8883 18.1982C14.923 18.2917 14.976 18.3774 15.0443 18.4502L16.1213 19.6502C16.1138 19.7272 16.098 19.8022 16.074 19.8752C16.0115 20.0876 15.869 20.2674 15.6765 20.3769C15.4421 20.5307 15.1575 20.5887 14.8815 20.5389L13.9815 19.5834C13.8845 19.481 13.7603 19.4083 13.6235 19.3739C13.4867 19.3395 13.343 19.3448 13.209 19.3892C13.1968 19.3164 13.1811 19.2443 13.1618 19.1732C13.0378 18.7813 12.8075 18.4316 12.4965 18.1629C12.2788 17.9638 12.0291 17.8028 11.7578 17.6867C11.762 17.5472 11.7532 17.4075 11.7315 17.2697C11.6347 16.759 11.3781 16.2923 10.9988 15.9369C10.723 15.6576 10.382 15.4514 10.0065 15.3369C10.0105 15.2369 10.0068 15.1369 9.99529 15.0369C9.92502 14.5318 9.68357 14.0662 9.31129 13.7177C8.9722 13.3626 8.5365 13.1146 8.05804 13.0044C7.89529 12.973 7.7293 12.9616 7.56379 12.9707C7.50506 12.692 7.38602 12.4296 7.21504 12.2019C7.02249 11.9519 6.78252 11.7423 6.50886 11.5851C6.2352 11.4279 5.93323 11.3262 5.62023 11.2859C5.30723 11.2455 4.98935 11.2673 4.68478 11.35C4.38021 11.4327 4.09493 11.5746 3.84529 11.7677L3.81904 11.7887L2.89279 12.5687C2.45831 11.7778 2.2504 10.8824 2.29195 9.98104C2.3335 9.07965 2.62289 8.2072 3.12829 7.45966L3.14404 7.43716C3.55482 6.82498 4.09344 6.30913 4.72279 5.92516C5.87097 5.32706 7.18581 5.12886 8.45929 5.36191L8.80729 5.41741C8.29331 5.64933 7.88269 6.06234 7.65379 6.57767C7.54316 6.86047 7.49054 7.16264 7.49904 7.46619C7.50755 7.76975 7.577 8.06849 7.70329 8.34466C7.92795 8.88806 8.34693 9.3283 8.87855 9.57955C9.41017 9.8308 10.0163 9.87505 10.5788 9.70366C11.5688 9.33691 12.7043 8.96866 13.1288 8.83441C13.1625 8.8333 13.1961 8.8398 13.227 8.85344C13.2579 8.86707 13.2854 8.88748 13.3073 8.91316C13.674 9.25816 18.1013 13.1334 19.9508 14.7452L20.1008 14.8734C20.2173 15.0621 20.267 15.2843 20.2422 15.5046C20.2173 15.7249 20.1192 15.9305 19.9635 16.0884C19.8567 16.2036 19.7163 16.2823 19.5623 16.3134L18.2625 14.9957C18.1211 14.861 17.9328 14.7866 17.7375 14.7881C17.5422 14.7896 17.3552 14.8669 17.2158 15.0038C17.0765 15.1406 16.9957 15.3262 16.9906 15.5214C16.9855 15.7167 17.0565 15.9063 17.1885 16.0502L18.4305 17.3087C18.4355 17.3312 18.4415 17.3534 18.4485 17.3754L18.4575 17.3987C18.5136 17.5588 18.5477 17.7258 18.5588 17.8952C18.5797 18.0238 18.5686 18.1555 18.5267 18.2788C18.4847 18.4022 18.413 18.5133 18.318 18.6024C18.0938 18.8124 17.7975 18.9279 17.4908 18.9249H17.493Z" fill="#2E2E2E"/>
</svg>
