<svg width="24" height="24" viewBox="0 0 24 24" fill="none" xmlns="http://www.w3.org/2000/svg">
<path d="M7 17C7.53043 17 8.03914 16.7893 8.41421 16.4142C8.78929 16.0391 9 15.5304 9 15C9 14.4696 8.78929 13.9609 8.41421 13.5858C8.03914 13.2107 7.53043 13 7 13C6.46957 13 5.96086 13.2107 5.58579 13.5858C5.21071 13.9609 5 14.4696 5 15C5 15.5304 5.21071 16.0391 5.58579 16.4142C5.96086 16.7893 6.46957 17 7 17Z" stroke="#2E2E2E" stroke-width="1.5" stroke-miterlimit="1.5" stroke-linecap="round" stroke-linejoin="round"/>
<path d="M4.65 15H2.6C2.44087 15 2.28826 14.9368 2.17574 14.8243C2.06321 14.7117 2 14.5591 2 14.4V4.6C2 4.44087 2.06321 4.28826 2.17574 4.17574C2.28826 4.06321 2.44087 4 2.6 4H13.4C13.5591 4 13.7117 4.06321 13.8243 4.17574C13.9368 4.28826 14 4.44087 14 4.6V15H9.05M14 7H19.61C19.726 7.00003 19.8395 7.03367 19.9367 7.09685C20.034 7.16003 20.1108 7.25005 20.158 7.356L21.448 10.259C21.4821 10.3355 21.4998 10.4183 21.5 10.502V12" stroke="#2E2E2E" stroke-width="1.5" stroke-linecap="round"/>
<path d="M17 23C17 23 17.9 19.882 20 18" stroke="#2E2E2E" stroke-width="1.5" stroke-linecap="round" stroke-linejoin="round"/>
<path d="M19.8041 21.4248L19.6701 21.4368C18.8564 21.5126 18.0458 21.2635 17.4152 20.7438C16.7845 20.2241 16.3851 19.476 16.3041 18.6628C16.2641 18.2613 16.304 17.8559 16.4213 17.4698C16.5386 17.0838 16.7311 16.7248 16.9877 16.4134C17.2443 16.102 17.56 15.8445 17.9165 15.6556C18.273 15.4667 18.6634 15.3502 19.0651 15.3128L22.0511 15.0328C22.1432 15.0241 22.235 15.0523 22.3064 15.1112C22.3778 15.17 22.423 15.2547 22.4321 15.3468L22.6871 17.9268C22.7289 18.346 22.6873 18.7693 22.5648 19.1723C22.4423 19.5753 22.2413 19.9502 21.9733 20.2752C21.7054 20.6003 21.3757 20.8691 21.0035 21.0662C20.6312 21.2633 20.2236 21.3858 19.8041 21.4248Z" stroke="#2E2E2E" stroke-width="1.5" stroke-linecap="round" stroke-linejoin="round"/>
</svg>
