<svg width="24" height="24" viewBox="0 0 24 24" fill="none" xmlns="http://www.w3.org/2000/svg">
<path d="M21.3335 2.67329C21.4691 2.80894 21.5453 2.99292 21.5453 3.18476V10.1186C21.5453 10.3103 21.4691 10.4942 21.3336 10.6298L18.8637 13.0997C18.7281 13.2352 18.5442 13.3114 18.3525 13.3114H11.4186C11.2268 13.3114 11.0428 13.2352 10.9072 13.0996M21.3335 2.67329C21.1978 2.53763 21.0138 2.46143 20.822 2.46143H13.8881C13.6964 2.46147 13.5126 2.53761 13.377 2.67312L10.907 5.14306C10.7715 5.27866 10.6954 5.46251 10.6953 5.65422V12.5881C10.6953 12.7799 10.7715 12.9639 10.9072 13.0996M21.3335 2.67329L18.652 5.35476M10.9072 13.0996L13.5886 10.4181M18.652 13.2463V5.35476M18.652 5.35476H10.7604M13.5886 10.4181H21.4802M13.5886 10.4181V2.52653" stroke="#666666" stroke-linecap="round" stroke-linejoin="round"/>
<path d="M13.6381 10.5383C13.7738 10.6722 13.85 10.8539 13.85 11.0433V17.8894C13.85 18.0787 13.7738 18.2602 13.6383 18.3941L11.1684 20.8327C11.0328 20.9665 10.8489 21.0417 10.6572 21.0418H3.72333C3.53149 21.0418 3.34751 20.9665 3.21186 20.8326M13.6381 10.5383C13.5025 10.4043 13.3185 10.3291 13.1267 10.3291H6.19279C6.00109 10.3291 5.81724 10.4043 5.68164 10.5381L3.2117 12.9768C3.07618 13.1107 3.00004 13.2922 3 13.4815V20.3276C3 20.517 3.07621 20.6987 3.21186 20.8326M13.6381 10.5383L10.9567 13.1858M3.21186 20.8326L5.89333 18.1851M10.9567 20.9775V13.1858M10.9567 13.1858H3.0651M5.89333 18.1851H13.7849M5.89333 18.1851V10.3934" stroke="#666666" stroke-linecap="round" stroke-linejoin="round"/>
</svg>
