<svg width="24" height="24" viewBox="0 0 24 24" fill="none" xmlns="http://www.w3.org/2000/svg">
<path d="M15.001 19.128C15.854 19.3754 16.7378 19.5006 17.626 19.5C19.0546 19.5034 20.4647 19.1776 21.747 18.548C21.7497 18.4907 21.751 18.433 21.751 18.375C21.7511 17.4929 21.4684 16.634 20.9444 15.9244C20.4204 15.2147 19.6828 14.6918 18.8397 14.4322C17.9966 14.1727 17.0926 14.1902 16.2602 14.4823C15.4279 14.7744 14.711 15.3256 14.215 16.055M15.001 19.128V19.125C15.001 18.012 14.716 16.965 14.215 16.055M15.001 19.128V19.234C13.0768 20.3939 10.8717 21.0047 8.625 21C6.294 21 4.113 20.355 2.251 19.234L2.25 19.125C2.24923 17.7095 2.71961 16.3339 3.58698 15.2153C4.45435 14.0966 5.66937 13.2984 7.04049 12.9466C8.41161 12.5948 9.86082 12.7093 11.1597 13.2721C12.4585 13.8349 13.5341 14.814 14.215 16.055M12.001 6.375C12.001 7.27011 11.6454 8.12855 11.0125 8.76149C10.3796 9.39442 9.52111 9.75 8.626 9.75C7.7309 9.75 6.87245 9.39442 6.23952 8.76149C5.60658 8.12855 5.251 7.27011 5.251 6.375C5.251 5.47989 5.60658 4.62145 6.23952 3.98851C6.87245 3.35558 7.7309 3 8.626 3C9.52111 3 10.3796 3.35558 11.0125 3.98851C11.6454 4.62145 12.001 5.47989 12.001 6.375ZM20.251 8.625C20.251 9.32119 19.9744 9.98887 19.4822 10.4812C18.9899 10.9734 18.3222 11.25 17.626 11.25C16.9298 11.25 16.2621 10.9734 15.7698 10.4812C15.2776 9.98887 15.001 9.32119 15.001 8.625C15.001 7.92881 15.2776 7.26113 15.7698 6.76884C16.2621 6.27656 16.9298 6 17.626 6C18.3222 6 18.9899 6.27656 19.4822 6.76884C19.9744 7.26113 20.251 7.92881 20.251 8.625Z" stroke="#666666" stroke-width="1.5" stroke-linecap="round" stroke-linejoin="round"/>
</svg>
