<svg width="24" height="24" viewBox="0 0 24 24" fill="none" xmlns="http://www.w3.org/2000/svg">
<path d="M17 14C17.2652 14 17.5196 13.8946 17.7071 13.7071C17.8946 13.5196 18 13.2652 18 13C18 12.7348 17.8946 12.4804 17.7071 12.2929C17.5196 12.1054 17.2652 12 17 12C16.7348 12 16.4804 12.1054 16.2929 12.2929C16.1054 12.4804 16 12.7348 16 13C16 13.2652 16.1054 13.5196 16.2929 13.7071C16.4804 13.8946 16.7348 14 17 14ZM17 18C17.2652 18 17.5196 17.8946 17.7071 17.7071C17.8946 17.5196 18 17.2652 18 17C18 16.7348 17.8946 16.4804 17.7071 16.2929C17.5196 16.1054 17.2652 16 17 16C16.7348 16 16.4804 16.1054 16.2929 16.2929C16.1054 16.4804 16 16.7348 16 17C16 17.2652 16.1054 17.5196 16.2929 17.7071C16.4804 17.8946 16.7348 18 17 18ZM13 13C13 13.2652 12.8946 13.5196 12.7071 13.7071C12.5196 13.8946 12.2652 14 12 14C11.7348 14 11.4804 13.8946 11.2929 13.7071C11.1054 13.5196 11 13.2652 11 13C11 12.7348 11.1054 12.4804 11.2929 12.2929C11.4804 12.1054 11.7348 12 12 12C12.2652 12 12.5196 12.1054 12.7071 12.2929C12.8946 12.4804 13 12.7348 13 13ZM13 17C13 17.2652 12.8946 17.5196 12.7071 17.7071C12.5196 17.8946 12.2652 18 12 18C11.7348 18 11.4804 17.8946 11.2929 17.7071C11.1054 17.5196 11 17.2652 11 17C11 16.7348 11.1054 16.4804 11.2929 16.2929C11.4804 16.1054 11.7348 16 12 16C12.2652 16 12.5196 16.1054 12.7071 16.2929C12.8946 16.4804 13 16.7348 13 17ZM7 14C7.26522 14 7.51957 13.8946 7.70711 13.7071C7.89464 13.5196 8 13.2652 8 13C8 12.7348 7.89464 12.4804 7.70711 12.2929C7.51957 12.1054 7.26522 12 7 12C6.73478 12 6.48043 12.1054 6.29289 12.2929C6.10536 12.4804 6 12.7348 6 13C6 13.2652 6.10536 13.5196 6.29289 13.7071C6.48043 13.8946 6.73478 14 7 14ZM7 18C7.26522 18 7.51957 17.8946 7.70711 17.7071C7.89464 17.5196 8 17.2652 8 17C8 16.7348 7.89464 16.4804 7.70711 16.2929C7.51957 16.1054 7.26522 16 7 16C6.73478 16 6.48043 16.1054 6.29289 16.2929C6.10536 16.4804 6 16.7348 6 17C6 17.2652 6.10536 17.5196 6.29289 17.7071C6.48043 17.8946 6.73478 18 7 18Z" fill="#666666"/>
<path fill-rule="evenodd" clip-rule="evenodd" d="M7.00095 1.75C7.19987 1.75 7.39063 1.82902 7.53128 1.96967C7.67194 2.11032 7.75095 2.30109 7.75095 2.5V3.263C8.41295 3.25 9.14195 3.25 9.94395 3.25H14.057C14.86 3.25 15.589 3.25 16.251 3.263V2.5C16.251 2.30109 16.33 2.11032 16.4706 1.96967C16.6113 1.82902 16.802 1.75 17.001 1.75C17.1999 1.75 17.3906 1.82902 17.5313 1.96967C17.6719 2.11032 17.751 2.30109 17.751 2.5V3.327C18.011 3.347 18.2573 3.37233 18.49 3.403C19.662 3.561 20.611 3.893 21.36 4.641C22.108 5.39 22.44 6.339 22.598 7.511C22.751 8.651 22.751 10.106 22.751 11.944V14.056C22.751 15.894 22.751 17.35 22.598 18.489C22.44 19.661 22.108 20.61 21.36 21.359C20.611 22.107 19.662 22.439 18.49 22.597C17.35 22.75 15.895 22.75 14.057 22.75H9.94595C8.10795 22.75 6.65195 22.75 5.51295 22.597C4.34095 22.439 3.39195 22.107 2.64295 21.359C1.89495 20.61 1.56295 19.661 1.40495 18.489C1.25195 17.349 1.25195 15.894 1.25195 14.056V11.944C1.25195 10.106 1.25195 8.65 1.40495 7.511C1.56295 6.339 1.89495 5.39 2.64295 4.641C3.39195 3.893 4.34095 3.561 5.51295 3.403C5.74629 3.37233 5.99262 3.347 6.25195 3.327V2.5C6.25195 2.30126 6.33083 2.11065 6.47127 1.97002C6.61171 1.8294 6.80221 1.75026 7.00095 1.75ZM5.71095 4.89C4.70595 5.025 4.12595 5.279 3.70295 5.702C3.27995 6.125 3.02595 6.705 2.89095 7.71C2.86829 7.88 2.84895 8.05967 2.83295 8.249H21.169C21.153 8.05967 21.1336 7.87967 21.111 7.709C20.976 6.704 20.722 6.124 20.299 5.701C19.876 5.278 19.296 5.024 18.29 4.889C17.263 4.751 15.908 4.749 14.001 4.749H10.001C8.09395 4.749 6.73995 4.752 5.71095 4.89ZM2.75095 12C2.75095 11.146 2.75095 10.403 2.76395 9.75H21.238C21.251 10.403 21.251 11.146 21.251 12V14C21.251 15.907 21.249 17.262 21.111 18.29C20.976 19.295 20.722 19.875 20.299 20.298C19.876 20.721 19.296 20.975 18.29 21.11C17.263 21.248 15.908 21.25 14.001 21.25H10.001C8.09395 21.25 6.73995 21.248 5.71095 21.11C4.70595 20.975 4.12595 20.721 3.70295 20.298C3.27995 19.875 3.02595 19.295 2.89095 18.289C2.75295 17.262 2.75095 15.907 2.75095 14V12Z" fill="#666666"/>
</svg>
