<svg width="20" height="20" viewBox="0 0 20 20" fill="none" xmlns="http://www.w3.org/2000/svg">
<path d="M2.143 4.28516C1.95356 4.28516 1.77187 4.36041 1.63792 4.49437C1.50397 4.62832 1.42871 4.81 1.42871 4.99944C1.42871 5.18888 1.50397 5.37056 1.63792 5.50452C1.77187 5.63847 1.95356 5.71373 2.143 5.71373H17.8551C18.0446 5.71373 18.2263 5.63847 18.3602 5.50452C18.4942 5.37056 18.5694 5.18888 18.5694 4.99944C18.5694 4.81 18.4942 4.62832 18.3602 4.49437C18.2263 4.36041 18.0446 4.28516 17.8551 4.28516H2.143ZM2.143 14.9994C1.95356 14.9994 1.77187 15.0747 1.63792 15.2087C1.50397 15.3426 1.42871 15.5243 1.42871 15.7137C1.42871 15.9032 1.50397 16.0848 1.63792 16.2188C1.77187 16.3528 1.95356 16.428 2.143 16.428H12.8551C13.0446 16.428 13.2263 16.3528 13.3602 16.2188C13.4942 16.0848 13.5694 15.9032 13.5694 15.7137C13.5694 15.5243 13.4942 15.3426 13.3602 15.2087C13.2263 15.0747 13.0446 14.9994 12.8551 14.9994H2.143ZM1.42871 8.57087C1.42871 8.38143 1.50397 8.19975 1.63792 8.06579C1.77187 7.93184 1.95356 7.85658 2.143 7.85658H17.8551C18.0446 7.85658 18.2263 7.93184 18.3602 8.06579C18.4942 8.19975 18.5694 8.38143 18.5694 8.57087C18.5694 8.76031 18.4942 8.94199 18.3602 9.07595C18.2263 9.2099 18.0446 9.28516 17.8551 9.28516H2.143C1.95356 9.28516 1.77187 9.2099 1.63792 9.07595C1.50397 8.94199 1.42871 8.76031 1.42871 8.57087ZM2.143 11.428C1.95356 11.428 1.77187 11.5033 1.63792 11.6372C1.50397 11.7712 1.42871 11.9529 1.42871 12.1423C1.42871 12.3317 1.50397 12.5134 1.63792 12.6474C1.77187 12.7813 1.95356 12.8566 2.143 12.8566H17.8551C18.0446 12.8566 18.2263 12.7813 18.3602 12.6474C18.4942 12.5134 18.5694 12.3317 18.5694 12.1423C18.5694 11.9529 18.4942 11.7712 18.3602 11.6372C18.2263 11.5033 18.0446 11.428 17.8551 11.428H2.143Z" fill="#999999"/>
</svg>
