<svg width="20" height="20" viewBox="0 0 20 20" fill="none" xmlns="http://www.w3.org/2000/svg">
<path d="M10.834 14.1663C10.834 15.0504 11.1852 15.8982 11.8103 16.5234C12.4354 17.1485 13.2833 17.4997 14.1673 17.4997C15.0514 17.4997 15.8992 17.1485 16.5243 16.5234C17.1495 15.8982 17.5007 15.0504 17.5007 14.1663C17.5007 13.2823 17.1495 12.4344 16.5243 11.8093C15.8992 11.1842 15.0514 10.833 14.1673 10.833C13.2833 10.833 12.4354 11.1842 11.8103 11.8093C11.1852 12.4344 10.834 13.2823 10.834 14.1663Z" stroke="#666666" stroke-width="1.3" stroke-linecap="round" stroke-linejoin="round"/>
<path d="M14.1667 10.8333V14.1667H17.5M10 2.5V5.83333C10 6.05435 10.0878 6.26631 10.2441 6.42259C10.4004 6.57887 10.6123 6.66667 10.8333 6.66667H14.1667" stroke="#666666" stroke-width="1.3" stroke-linecap="round" stroke-linejoin="round"/>
<path d="M9.58333 17.5H4.16667C3.72464 17.5 3.30072 17.3244 2.98816 17.0118C2.67559 16.6993 2.5 16.2754 2.5 15.8333V4.16667C2.5 3.72464 2.67559 3.30072 2.98816 2.98816C3.30072 2.67559 3.72464 2.5 4.16667 2.5H10L14.1667 6.66667V8.33333M14.1667 10.8333V14.1667" stroke="#666666" stroke-width="1.3" stroke-linecap="round" stroke-linejoin="round"/>
</svg>
