<svg width="20" height="20" viewBox="0 0 20 20" fill="none" xmlns="http://www.w3.org/2000/svg">
<path d="M10 12.5C11.3807 12.5 12.5 11.3807 12.5 10C12.5 8.61929 11.3807 7.5 10 7.5C8.61929 7.5 7.5 8.61929 7.5 10C7.5 11.3807 8.61929 12.5 10 12.5Z" stroke="#999999" stroke-width="1.5"/>
<path d="M11.4712 1.79366C11.1654 1.66699 10.777 1.66699 10.0004 1.66699C9.22371 1.66699 8.83538 1.66699 8.52954 1.79366C8.32719 1.87742 8.14334 2.00024 7.98848 2.1551C7.83362 2.30995 7.7108 2.49381 7.62704 2.69616C7.55038 2.88199 7.51954 3.09949 7.50788 3.41533C7.50245 3.6436 7.43921 3.86677 7.32408 4.06395C7.20894 4.26114 7.04567 4.4259 6.84954 4.54283C6.65021 4.6543 6.42586 4.71339 6.19749 4.71455C5.96911 4.71572 5.74416 4.65893 5.54371 4.54949C5.26371 4.40116 5.06121 4.31949 4.86038 4.29283C4.42231 4.23522 3.97929 4.35391 3.62871 4.62283C3.36704 4.82533 3.17204 5.16116 2.78371 5.83366C2.39538 6.50616 2.20038 6.84199 2.15788 7.17116C2.12924 7.3882 2.14364 7.60876 2.20026 7.82024C2.25689 8.03171 2.35462 8.22996 2.48788 8.40366C2.61121 8.56366 2.78371 8.69783 3.05121 8.86616C3.44538 9.11366 3.69871 9.53533 3.69871 10.0003C3.69871 10.4653 3.44538 10.887 3.05121 11.1337C2.78371 11.3028 2.61038 11.437 2.48788 11.597C2.35462 11.7707 2.25689 11.9689 2.20026 12.1804C2.14364 12.3919 2.12924 12.6124 2.15788 12.8295C2.20121 13.1578 2.39538 13.4945 2.78288 14.167C3.17204 14.8395 3.36621 15.1753 3.62871 15.3778C3.80241 15.5111 4.00065 15.6088 4.21213 15.6654C4.42361 15.7221 4.64417 15.7365 4.86121 15.7078C5.06121 15.6812 5.26371 15.5995 5.54371 15.4512C5.74416 15.3417 5.96911 15.2849 6.19749 15.2861C6.42586 15.2873 6.65021 15.3463 6.84954 15.4578C7.25204 15.6912 7.49121 16.1203 7.50788 16.5853C7.51954 16.902 7.54954 17.1187 7.62704 17.3045C7.7108 17.5068 7.83362 17.6907 7.98848 17.8456C8.14334 18.0004 8.32719 18.1232 8.52954 18.207C8.83538 18.3337 9.22371 18.3337 10.0004 18.3337C10.777 18.3337 11.1654 18.3337 11.4712 18.207C11.6736 18.1232 11.8574 18.0004 12.0123 17.8456C12.1671 17.6907 12.2899 17.5068 12.3737 17.3045C12.4504 17.1187 12.4812 16.902 12.4929 16.5853C12.5095 16.1203 12.7487 15.6903 13.1512 15.4578C13.3505 15.3463 13.5749 15.2873 13.8033 15.2861C14.0316 15.2849 14.2566 15.3417 14.457 15.4512C14.737 15.5995 14.9395 15.6812 15.1395 15.7078C15.3566 15.7365 15.5771 15.7221 15.7886 15.6654C16.0001 15.6088 16.1983 15.5111 16.372 15.3778C16.6345 15.1762 16.8287 14.8395 17.217 14.167C17.6054 13.4945 17.8004 13.1587 17.8429 12.8295C17.8715 12.6124 17.8571 12.3919 17.8005 12.1804C17.7439 11.9689 17.6461 11.7707 17.5129 11.597C17.3895 11.437 17.217 11.3028 16.9495 11.1345C16.7545 11.0157 16.5928 10.8493 16.4795 10.6509C16.3663 10.4526 16.3052 10.2287 16.302 10.0003C16.302 9.53533 16.5554 9.11366 16.9495 8.86699C17.217 8.69783 17.3904 8.56366 17.5129 8.40366C17.6461 8.22996 17.7439 8.03171 17.8005 7.82024C17.8571 7.60876 17.8715 7.3882 17.8429 7.17116C17.7995 6.84283 17.6054 6.50616 17.2179 5.83366C16.8287 5.16116 16.6345 4.82533 16.372 4.62283C16.1983 4.48957 16.0001 4.39184 15.7886 4.33521C15.5771 4.27859 15.3566 4.26419 15.1395 4.29283C14.9395 4.31949 14.737 4.40116 14.4562 4.54949C14.2559 4.65878 14.0311 4.71549 13.8029 4.71432C13.5746 4.71316 13.3504 4.65415 13.1512 4.54283C12.9551 4.4259 12.7918 4.26114 12.6767 4.06395C12.5615 3.86677 12.4983 3.6436 12.4929 3.41533C12.4812 3.09866 12.4512 2.88199 12.3737 2.69616C12.2899 2.49381 12.1671 2.30995 12.0123 2.1551C11.8574 2.00024 11.6736 1.87742 11.4712 1.79366Z" stroke="#999999" stroke-width="1.5"/>
</svg>
