<svg width="20" height="20" viewBox="0 0 20 20" fill="none" xmlns="http://www.w3.org/2000/svg">
<path d="M14.1667 11.6667C14.3877 11.6667 14.5996 11.5789 14.7559 11.4226C14.9122 11.2663 15 11.0543 15 10.8333C15 10.6123 14.9122 10.4004 14.7559 10.2441C14.5996 10.0878 14.3877 10 14.1667 10C13.9457 10 13.7337 10.0878 13.5774 10.2441C13.4211 10.4004 13.3333 10.6123 13.3333 10.8333C13.3333 11.0543 13.4211 11.2663 13.5774 11.4226C13.7337 11.5789 13.9457 11.6667 14.1667 11.6667ZM14.1667 15C14.3877 15 14.5996 14.9122 14.7559 14.7559C14.9122 14.5996 15 14.3877 15 14.1667C15 13.9457 14.9122 13.7337 14.7559 13.5774C14.5996 13.4211 14.3877 13.3333 14.1667 13.3333C13.9457 13.3333 13.7337 13.4211 13.5774 13.5774C13.4211 13.7337 13.3333 13.9457 13.3333 14.1667C13.3333 14.3877 13.4211 14.5996 13.5774 14.7559C13.7337 14.9122 13.9457 15 14.1667 15ZM10.8333 10.8333C10.8333 11.0543 10.7455 11.2663 10.5893 11.4226C10.433 11.5789 10.221 11.6667 10 11.6667C9.77899 11.6667 9.56702 11.5789 9.41074 11.4226C9.25446 11.2663 9.16667 11.0543 9.16667 10.8333C9.16667 10.6123 9.25446 10.4004 9.41074 10.2441C9.56702 10.0878 9.77899 10 10 10C10.221 10 10.433 10.0878 10.5893 10.2441C10.7455 10.4004 10.8333 10.6123 10.8333 10.8333ZM10.8333 14.1667C10.8333 14.3877 10.7455 14.5996 10.5893 14.7559C10.433 14.9122 10.221 15 10 15C9.77899 15 9.56702 14.9122 9.41074 14.7559C9.25446 14.5996 9.16667 14.3877 9.16667 14.1667C9.16667 13.9457 9.25446 13.7337 9.41074 13.5774C9.56702 13.4211 9.77899 13.3333 10 13.3333C10.221 13.3333 10.433 13.4211 10.5893 13.5774C10.7455 13.7337 10.8333 13.9457 10.8333 14.1667ZM5.83333 11.6667C6.05435 11.6667 6.26631 11.5789 6.42259 11.4226C6.57887 11.2663 6.66667 11.0543 6.66667 10.8333C6.66667 10.6123 6.57887 10.4004 6.42259 10.2441C6.26631 10.0878 6.05435 10 5.83333 10C5.61232 10 5.40036 10.0878 5.24408 10.2441C5.0878 10.4004 5 10.6123 5 10.8333C5 11.0543 5.0878 11.2663 5.24408 11.4226C5.40036 11.5789 5.61232 11.6667 5.83333 11.6667ZM5.83333 15C6.05435 15 6.26631 14.9122 6.42259 14.7559C6.57887 14.5996 6.66667 14.3877 6.66667 14.1667C6.66667 13.9457 6.57887 13.7337 6.42259 13.5774C6.26631 13.4211 6.05435 13.3333 5.83333 13.3333C5.61232 13.3333 5.40036 13.4211 5.24408 13.5774C5.0878 13.7337 5 13.9457 5 14.1667C5 14.3877 5.0878 14.5996 5.24408 14.7559C5.40036 14.9122 5.61232 15 5.83333 15Z" fill="#1A1A1A"/>
<path fill-rule="evenodd" clip-rule="evenodd" d="M5.8338 1.45801C5.99956 1.45801 6.15853 1.52386 6.27574 1.64107C6.39295 1.75828 6.4588 1.91725 6.4588 2.08301V2.71884C7.01047 2.70801 7.61797 2.70801 8.2863 2.70801H11.7138C12.383 2.70801 12.9905 2.70801 13.5421 2.71884V2.08301C13.5421 1.91725 13.608 1.75828 13.7252 1.64107C13.8424 1.52386 14.0014 1.45801 14.1671 1.45801C14.3329 1.45801 14.4919 1.52386 14.6091 1.64107C14.7263 1.75828 14.7921 1.91725 14.7921 2.08301V2.77217C15.0088 2.78884 15.2141 2.80995 15.408 2.83551C16.3846 2.96717 17.1755 3.24384 17.7996 3.86717C18.423 4.49134 18.6996 5.28217 18.8313 6.25884C18.9588 7.20884 18.9588 8.42134 18.9588 9.95301V11.713C18.9588 13.2447 18.9588 14.458 18.8313 15.4072C18.6996 16.3838 18.423 17.1747 17.7996 17.7988C17.1755 18.4222 16.3846 18.6988 15.408 18.8305C14.458 18.958 13.2455 18.958 11.7138 18.958H8.28797C6.7563 18.958 5.54297 18.958 4.5938 18.8305C3.61714 18.6988 2.8263 18.4222 2.20214 17.7988C1.5788 17.1747 1.30214 16.3838 1.17047 15.4072C1.04297 14.4572 1.04297 13.2447 1.04297 11.713V9.95301C1.04297 8.42134 1.04297 7.20801 1.17047 6.25884C1.30214 5.28217 1.5788 4.49134 2.20214 3.86717C2.8263 3.24384 3.61714 2.96717 4.5938 2.83551C4.78825 2.80995 4.99352 2.78884 5.20964 2.77217V2.08301C5.20964 1.91739 5.27537 1.75855 5.3924 1.64136C5.50943 1.52417 5.66819 1.45823 5.8338 1.45801ZM4.7588 4.07467C3.9213 4.18717 3.43797 4.39884 3.08547 4.75134C2.73297 5.10384 2.5213 5.58717 2.4088 6.42467C2.38991 6.56634 2.3738 6.71606 2.36047 6.87384H17.6405C17.6271 6.71606 17.611 6.56606 17.5921 6.42384C17.4796 5.58634 17.268 5.10301 16.9155 4.75051C16.563 4.39801 16.0796 4.18634 15.2413 4.07384C14.3855 3.95884 13.2563 3.95717 11.6671 3.95717H8.3338C6.74464 3.95717 5.6163 3.95967 4.7588 4.07467ZM2.29214 9.99967C2.29214 9.28801 2.29214 8.66884 2.30297 8.12467H17.698C17.7088 8.66884 17.7088 9.28801 17.7088 9.99967V11.6663C17.7088 13.2555 17.7071 14.3847 17.5921 15.2413C17.4796 16.0788 17.268 16.5622 16.9155 16.9147C16.563 17.2672 16.0796 17.4788 15.2413 17.5913C14.3855 17.7063 13.2563 17.708 11.6671 17.708H8.3338C6.74464 17.708 5.6163 17.7063 4.7588 17.5913C3.9213 17.4788 3.43797 17.2672 3.08547 16.9147C2.73297 16.5622 2.5213 16.0788 2.4088 15.2405C2.2938 14.3847 2.29214 13.2555 2.29214 11.6663V9.99967Z" fill="#1A1A1A"/>
</svg>
