<svg width="20" height="20" viewBox="0 0 20 20" fill="none" xmlns="http://www.w3.org/2000/svg">
<path d="M2.08301 4.16634V15.833C2.08301 16.054 2.17081 16.266 2.32709 16.4223C2.48337 16.5785 2.69533 16.6663 2.91634 16.6663H7.49967L6.24967 12.083L9.16634 11.2497L8.74967 8.33301L12.083 6.66634L11.2497 5.41634L12.4997 3.33301H2.91634C2.69533 3.33301 2.48337 3.42081 2.32709 3.57709C2.17081 3.73337 2.08301 3.94533 2.08301 4.16634ZM17.9163 15.833V4.16634C17.9163 3.94533 17.8285 3.73337 17.6723 3.57709C17.516 3.42081 17.304 3.33301 17.083 3.33301H15.833L14.1663 5.83301L15.4163 7.91634L11.6663 9.58301L12.083 12.9163L9.16634 13.7497L9.99967 16.6663H17.083C17.304 16.6663 17.516 16.5785 17.6723 16.4223C17.8285 16.266 17.9163 16.054 17.9163 15.833Z" stroke="#999999" stroke-width="1.3" stroke-linecap="round" stroke-linejoin="round"/>
<path d="M6.04102 7.5C6.20678 7.5 6.36575 7.43415 6.48296 7.31694C6.60017 7.19973 6.66602 7.04076 6.66602 6.875C6.66602 6.70924 6.60017 6.55027 6.48296 6.43306C6.36575 6.31585 6.20678 6.25 6.04102 6.25C5.87526 6.25 5.71628 6.31585 5.59907 6.43306C5.48186 6.55027 5.41602 6.70924 5.41602 6.875C5.41602 7.04076 5.48186 7.19973 5.59907 7.31694C5.71628 7.43415 5.87526 7.5 6.04102 7.5Z" stroke="#999999" stroke-width="1.3" stroke-linecap="round" stroke-linejoin="round"/>
</svg>
