<svg width="20" height="20" viewBox="0 0 20 20" fill="none" xmlns="http://www.w3.org/2000/svg">
<path d="M14.1917 8.14971C14.3021 8.03123 14.3622 7.87453 14.3593 7.71261C14.3565 7.55069 14.2909 7.3962 14.1764 7.28169C14.0619 7.16718 13.9074 7.10159 13.7455 7.09873C13.5836 7.09587 13.4268 7.15598 13.3084 7.26638L8.75003 11.8247L6.6917 9.76638C6.57322 9.65598 6.41652 9.59587 6.2546 9.59873C6.09268 9.60159 5.93819 9.66718 5.82368 9.78169C5.70917 9.8962 5.64358 10.0507 5.64072 10.2126C5.63787 10.3745 5.69797 10.5312 5.80837 10.6497L8.30837 13.1497C8.42556 13.2668 8.58441 13.3325 8.75003 13.3325C8.91566 13.3325 9.07451 13.2668 9.1917 13.1497L14.1917 8.14971Z" fill="#666666"/>
<path d="M11.7801 1.00011L12.9259 1.84178C13.1543 2.00928 13.4201 2.11928 13.7001 2.16178L15.1059 2.37761C15.7387 2.47485 16.324 2.77141 16.7766 3.22418C17.2292 3.67695 17.5256 4.2623 17.6226 4.89511L17.8384 6.30011C17.8809 6.58011 17.9909 6.84594 18.1584 7.07428L19.0001 8.22011C19.379 8.73627 19.5832 9.35984 19.5832 10.0001C19.5832 10.6404 19.379 11.2639 19.0001 11.7801L18.1584 12.9259C17.9907 13.1543 17.8809 13.42 17.8384 13.7001L17.6226 15.1059C17.5254 15.7387 17.2288 16.324 16.776 16.7766C16.3233 17.2292 15.7379 17.5256 15.1051 17.6226L13.7001 17.8384C13.42 17.8809 13.1543 17.9907 12.9259 18.1584L11.7801 19.0001C11.2639 19.379 10.6404 19.5832 10.0001 19.5832C9.35984 19.5832 8.73627 19.379 8.22011 19.0001L7.07428 18.1584C6.84593 17.9907 6.58027 17.8809 6.30011 17.8384L4.89428 17.6226C4.2615 17.5254 3.67625 17.2288 3.22363 16.776C2.77101 16.3233 2.47464 15.7379 2.37761 15.1051L2.16178 13.7001C2.11936 13.42 2.00954 13.1543 1.84178 12.9259L1.00011 11.7801C0.62127 11.2639 0.416992 10.6404 0.416992 10.0001C0.416992 9.35984 0.62127 8.73627 1.00011 8.22011L1.84178 7.07428C2.00928 6.84594 2.11928 6.58011 2.16178 6.30011L2.37761 4.89428C2.47485 4.2615 2.77141 3.67625 3.22418 3.22363C3.67695 2.77101 4.2623 2.47464 4.89511 2.37761L6.30011 2.16178C6.58011 2.11928 6.84594 2.00928 7.07428 1.84178L8.22011 1.00011C8.73627 0.62127 9.35984 0.416992 10.0001 0.416992C10.6404 0.416992 11.2639 0.62127 11.7801 1.00011ZM8.96011 2.00761L7.81428 2.84928C7.42343 3.13648 6.96878 3.32463 6.48928 3.39761L5.08428 3.61261C4.71427 3.66932 4.37201 3.84263 4.10732 4.10732C3.84263 4.37201 3.66932 4.71427 3.61261 5.08428L3.39761 6.48928C3.3245 6.96848 3.13635 7.42284 2.84928 7.81344L2.00761 8.96011C1.78636 9.26173 1.66707 9.62605 1.66707 10.0001C1.66707 10.3742 1.78636 10.7385 2.00761 11.0401L2.84928 12.1859C3.13594 12.5768 3.32428 13.0318 3.39761 13.5109L3.61261 14.9159C3.72928 15.6751 4.32511 16.2709 5.08428 16.3876L6.48928 16.6026C6.96848 16.6757 7.42284 16.8639 7.81344 17.1509L8.96011 17.9926C9.26173 18.2139 9.62605 18.3332 10.0001 18.3332C10.3742 18.3332 10.7385 18.2139 11.0401 17.9926L12.1859 17.1509C12.5769 16.864 13.0315 16.6762 13.5109 16.6034L14.9159 16.3868C15.2858 16.3301 15.628 16.1569 15.8927 15.8924C16.1574 15.6279 16.3307 15.2858 16.3876 14.9159L16.6026 13.5109C16.6757 13.0317 16.8639 12.5774 17.1509 12.1868L17.9926 11.0401C18.2139 10.7385 18.3332 10.3742 18.3332 10.0001C18.3332 9.62605 18.2139 9.26173 17.9926 8.96011L17.1509 7.81428C16.864 7.42335 16.6762 6.9687 16.6034 6.48928L16.3868 5.08428C16.3301 4.71439 16.1569 4.37222 15.8924 4.10754C15.6279 3.84286 15.2858 3.66948 14.9159 3.61261L13.5109 3.39761C13.0317 3.3245 12.5774 3.13635 12.1868 2.84928L11.0401 2.00761C10.7385 1.78636 10.3742 1.66707 10.0001 1.66707C9.62605 1.66707 9.26173 1.78636 8.96011 2.00761Z" fill="#666666"/>
</svg>
