<svg width="21" height="21" viewBox="0 0 21 21" fill="none" xmlns="http://www.w3.org/2000/svg">
<path d="M2.67456 12.8187L3.53706 3.75872H7.49539L8.22206 11.3829M6.69622 0.749557C7.55641 0.733166 8.4093 0.910011 9.19206 1.26706C15.3829 3.91039 17.9421 0.650391 17.9421 0.650391M0.650391 19.3837H19.4004V9.68372C19.4002 9.54272 19.3677 9.40364 19.3055 9.27711C19.2432 9.15058 19.1529 9.03994 19.0414 8.95367C18.9299 8.86739 18.8001 8.80775 18.662 8.77931C18.5239 8.75086 18.3811 8.75437 18.2446 8.78956L1.27539 13.1837C1.09656 13.2301 0.93821 13.3346 0.825228 13.4807C0.712245 13.6269 0.651037 13.8065 0.651224 13.9912L0.650391 19.3837Z" stroke="#666666" stroke-width="1.3" stroke-linecap="round" stroke-linejoin="round"/>
<path d="M9.40006 16.0499H8.15007M5.2334 16.0499H3.9834M16.4834 19.3841H12.3167V15.6341C12.3167 15.4131 12.4045 15.2011 12.5608 15.0449C12.7171 14.8886 12.9291 14.8008 13.1501 14.8008H15.6501C15.8711 14.8008 16.083 14.8886 16.2393 15.0449C16.3956 15.2011 16.4834 15.4131 16.4834 15.6341V19.3841Z" stroke="#666666" stroke-width="1.3" stroke-linecap="round" stroke-linejoin="round"/>
</svg>
