<svg width="20" height="20" viewBox="0 0 20 20" fill="none" xmlns="http://www.w3.org/2000/svg">
<path d="M18.3203 8.33366C18.2895 7.24116 18.1862 6.54449 17.8362 5.95033C17.3378 5.10449 16.4412 4.63366 14.6487 3.69366L12.982 2.81866C11.5187 2.05116 10.787 1.66699 10.0003 1.66699C9.21366 1.66699 8.48199 2.05033 7.01866 2.81866L5.35199 3.69366C3.55949 4.63366 2.66283 5.10449 2.16449 5.95033C1.66699 6.79533 1.66699 7.84783 1.66699 9.95199V10.0495C1.66699 12.1528 1.66699 13.2053 2.16449 14.0503C2.66283 14.8962 3.55949 15.367 5.35199 16.3078L7.01866 17.182C8.48199 17.9495 9.21366 18.3337 10.0003 18.3337C10.787 18.3337 11.5187 17.9503 12.982 17.182L14.6487 16.307C16.4412 15.3662 17.3378 14.8962 17.8362 14.0503C18.1862 13.4562 18.2895 12.7595 18.3203 11.667M17.5003 6.25033L14.167 7.91699M14.167 7.91699L13.7503 8.12533L10.0003 10.0003M14.167 7.91699V10.8337M14.167 7.91699L6.25033 3.75033M10.0003 10.0003L2.50033 6.25033M10.0003 10.0003V17.917" stroke="#999999" stroke-width="1.3" stroke-linecap="round"/>
</svg>
