<svg width="423" height="433" viewBox="0 0 423 433" fill="none" xmlns="http://www.w3.org/2000/svg">
<path d="M329.759 154.985C323.187 159.529 315.801 162.616 308.894 166.579C284.87 180.374 260.715 193.944 236.61 207.596C233.299 209.47 230.039 211.427 226.646 213.128C224.272 214.32 223.478 215.991 223.498 218.599C223.61 229.918 223.518 241.237 223.58 252.566C223.59 254.562 223.274 256.315 221.98 257.873C213.565 268.072 206.26 278.983 200.85 291.382C199.19 289.996 199.77 288.376 199.77 287.021C199.73 265.779 199.454 244.527 199.913 223.296C200.045 217.02 197.957 213.413 192.598 210.795C187.158 208.146 181.87 205.141 176.613 202.125C173.72 200.464 173.098 201.544 173.108 204.346C173.159 215.542 173.119 226.739 173.129 237.925C173.149 267.695 173.18 297.454 173.2 327.223C173.516 327.549 173.516 327.885 173.21 328.211C169.431 327.763 166.731 325.094 163.593 323.372C158.886 320.784 153.863 318.686 149.595 315.303C149.075 314.621 148.739 313.856 148.566 313.011C148.24 310.861 148.352 308.691 148.352 306.531C148.341 269.386 148.229 232.241 148.464 195.095C148.504 189.441 146.467 186.181 141.668 183.644C126.6 175.687 111.818 167.221 96.9737 158.857C96.0568 158.256 95.1909 157.614 94.712 156.585C93.4793 149.321 94.7629 146.702 101.12 143.534C104.401 141.904 107.753 140.427 110.911 138.562C111.94 138.246 112.877 138.583 113.814 138.97C124.593 144.614 135.26 150.482 145.805 156.554C147.903 157.766 150.236 158.469 152.325 159.641C153.466 160.273 155.381 160.629 154.556 162.779C151.113 162.626 150.216 164.338 150.42 167.618C150.715 172.427 150.532 177.266 150.481 182.085C150.461 184.612 151.398 186.517 153.537 187.821C158.631 190.928 163.878 193.75 169.125 196.562C171.427 197.795 172.079 196.807 172.079 194.627C172.079 188.911 172.09 183.196 172.079 177.49C172.079 175.218 171.02 173.67 169.155 172.508C166.782 171.021 164.306 169.748 161.83 168.454C160.384 167.7 158.743 167.109 158.407 165.183C159.946 163.227 161.362 164.827 162.686 165.438C169.064 168.372 174.596 172.733 180.709 176.135C189.715 181.128 198.833 185.916 207.646 191.254C210.162 192.783 212.464 192.823 215.093 191.163C220.788 187.566 226.789 184.49 232.728 181.311C233.696 180.791 235.112 180.445 235.092 179.09C235.072 177.796 233.737 177.348 232.759 176.808C209.133 163.849 185.701 150.553 162.228 137.329C155.035 133.275 147.526 129.77 140.772 124.951C140.089 124.33 139.172 123.841 139.447 122.669C147.282 118.237 154.943 113.52 163.022 109.526C163.797 109.353 164.52 109.567 165.233 109.832C181.86 118.604 198.099 128.089 214.512 137.248C229.489 145.602 244.241 154.354 259.227 162.677C261.764 164.093 263.71 163.798 265.931 162.473C273.674 157.848 281.529 153.406 289.455 149.107C295.924 145.592 302.496 142.271 308.843 138.532C309.821 138.307 310.727 138.583 311.634 138.898C312.806 139.377 313.784 140.223 314.955 140.681C320.681 142.953 324.165 146.529 322.973 153.284C322.556 155.627 323.554 156.707 325.969 155.25C326.824 154.73 327.762 154.323 328.821 154.394C329.239 154.445 329.545 154.649 329.759 154.985Z" fill="#3EA397"/>
<path d="M173.252 355.861C173.252 373.16 173.272 390.47 173.262 407.769C173.262 411.824 173.048 411.916 169.615 410C138.511 392.609 107.387 375.239 76.283 357.848C59.3608 348.394 42.4692 338.888 25.5164 329.505C22.8777 328.038 21.9303 326.235 21.9303 323.158C22.0016 251.781 21.9608 180.414 21.8691 109.037C21.8691 106.409 22.5823 104.626 24.9357 103.526C25.2821 103.363 25.6285 103.179 25.9138 102.935C33.2287 96.4246 39.9324 97.26 48.0522 102.629C60.2879 110.718 73.4814 117.351 86.2775 124.605C87.2147 124.768 88.4373 124.727 87.4389 126.255C83.4554 128.231 79.9813 131.064 75.9978 133.05C73.624 134.242 72.5237 136.219 72.5848 138.929C72.6256 140.528 72.9007 142.27 71.5966 143.625C71.2094 143.809 70.8121 143.88 70.3842 143.86C63.9047 141.18 58.0466 137.35 51.8727 134.1C50.2528 133.244 48.582 131.206 46.7889 132.317C45.2505 133.274 45.9841 135.628 46.035 137.36C47.6345 194.188 46.3915 251.037 46.7074 307.866C46.7277 311.533 48.0522 313.591 51.2003 315.374C81.4891 332.572 111.91 349.555 142.24 366.681C148.241 370.074 148.343 370.012 148.404 363.064C148.465 356.452 148.139 349.84 148.587 343.238C148.669 342.831 148.832 342.454 149.056 342.108C149.687 341.364 150.451 341.619 151.124 341.955C158.714 345.755 166.304 349.555 173.456 354.17C173.69 354.771 173.578 355.332 173.252 355.861Z" fill="#3EA397"/>
<path d="M114.246 109.067C99.3512 100.702 84.4564 92.3482 69.582 83.9534C68.3186 83.2402 66.3524 82.7716 66.4033 81.0804C66.4441 79.6642 68.2575 79.1854 69.4495 78.5232C100.523 61.1017 131.616 43.7211 162.68 26.2894C177.35 18.0576 191.98 9.74416 206.59 1.37984C209.086 -0.0464788 211.358 -0.617017 214.037 0.890804C240.76 15.8977 267.514 30.8537 294.257 45.83C317.802 59.0234 341.346 72.1964 364.86 85.4306C375.455 91.3906 385.979 97.4728 396.524 103.504C400.273 105.654 402.127 110.839 400.589 114.813C400.08 116.117 398.816 116.626 397.747 117.227C383.28 125.317 368.772 133.345 354.285 141.403C352.196 142.565 350.169 143.838 348.111 145.061C347.988 144.928 347.866 144.796 347.744 144.663C347.673 143.706 348.325 143.023 348.661 142.218C350.108 138.724 349.384 136.136 346.277 133.976C342.742 131.521 338.768 129.748 335.468 126.916C334.948 126.335 334.551 125.714 334.836 124.889C340.49 120.987 346.532 117.737 352.532 114.426C353.531 113.875 354.59 113.427 355.579 112.836C358.849 110.901 358.828 110.228 355.568 108.354C346.756 103.27 337.79 98.4712 328.937 93.4791C310.446 83.0568 291.771 72.9504 273.311 62.4771C254.412 51.7594 235.136 41.6733 216.676 30.2016C212.57 27.6546 209.31 27.8176 205.174 30.2118C182.943 43.0588 160.499 55.5391 138.147 68.1722C131.841 71.738 125.677 75.5483 119.289 78.9715C116.416 80.5098 116.355 81.3554 119.258 83.0466C126.064 87.0098 132.849 91.0238 139.746 94.8545C140.297 95.4148 140.714 96.0363 140.429 96.8819C132.462 101.12 124.729 105.776 116.783 110.055C115.723 110.299 115.01 109.617 114.246 109.067Z" fill="#3EA397"/>
<path d="M173.249 355.861C173.219 355.291 173.178 354.71 173.147 354.139C171.1 345.51 171.212 336.871 173.076 328.231C173.117 327.895 173.168 327.559 173.208 327.223C181.124 332.918 189.856 337.238 198.271 342.097C200.41 343.33 200.461 341.771 200.736 340.274C201.928 333.794 203.171 327.314 204.445 320.855C204.73 319.398 204.72 317.809 205.953 316.678C205.861 322.302 203.966 327.6 202.906 333.05C200.339 346.274 199.524 359.458 200.38 372.977C201.317 387.892 200.736 402.919 200.563 417.896C200.502 422.603 200.573 426.932 205.178 429.642C200.217 427.941 199.208 426.708 199.198 421.849C199.147 406.75 198.841 391.641 199.29 376.553C199.453 371.214 197.507 368.423 193.106 366.283C187.125 363.36 181.369 360.008 175.806 356.33C174.991 355.78 174.146 355.739 173.249 355.861Z" fill="#90D5CD"/>
<path d="M114.24 109.068C114.994 109.292 115.758 109.526 116.512 109.75C122.614 112.043 127.841 115.935 133.546 118.96C135.624 120.061 138.08 120.733 139.577 122.801C140.076 123.26 140.586 123.728 141.085 124.187C131.539 128.782 122.492 134.293 113.303 139.53C112.651 139.275 112.009 139.021 111.357 138.766C110.868 138.98 110.348 139.01 109.9 138.745C102.809 134.558 95.3513 131.003 88.3726 126.612C88.0466 126.408 87.8428 126.082 87.6696 125.735C87.201 125.348 86.7323 124.971 86.2637 124.584C89.4627 124.645 91.918 122.934 94.5567 121.405C99.7627 118.38 105.193 115.731 110.43 112.736C111.917 111.89 114.209 111.554 114.24 109.068Z" fill="#90D5CD"/>
<path d="M348.112 145.082C344.211 147.68 340.095 149.891 335.877 151.929C335.765 151.776 335.653 151.623 335.551 151.46C338.76 147.629 342.631 144.991 347.786 144.665C347.888 144.807 348 144.95 348.112 145.082Z" fill="#2A6F67"/>
<path d="M335.874 151.929C333.887 153.039 332.125 154.608 329.761 154.985C329.669 154.873 329.588 154.751 329.496 154.639C330.749 152.092 332.624 150.777 335.568 151.541C335.67 151.674 335.772 151.796 335.874 151.929Z" fill="#2A6F67"/>
<path d="M96.6659 157.471C95.1174 158.296 95.3313 159.763 95.3313 161.149C95.3109 201.035 95.311 240.921 95.2396 280.806C95.2396 283.119 95.9732 284.505 98.0311 285.656C114.016 294.57 129.95 303.597 145.894 312.603C147.015 313.235 148.176 313.703 149.491 313.642C149.745 314.131 149.99 314.62 150.234 315.109C151.09 323.26 150.611 331.42 150.489 339.571C150.479 340.325 150.163 341.038 149.613 341.608C149.562 341.955 149.501 342.301 149.45 342.637C146.994 342.872 145.629 340.844 143.795 339.836C121.127 327.264 98.622 314.386 75.9844 301.763C71.8277 299.44 70.4014 296.7 70.4217 292.085C70.5542 245.047 70.4931 198.019 70.5338 150.981C70.5338 148.455 70.0244 145.908 70.7274 143.401C71.0942 143.361 71.4711 143.33 71.8379 143.289C73.9162 143.187 75.3527 144.654 76.9319 145.582C83.0243 149.178 89.4529 152.204 95.2702 156.279C95.7388 156.676 96.2075 157.074 96.6659 157.471Z" fill="#90D5CD"/>
<path d="M309.205 138.796C292.924 129.576 276.634 120.377 260.364 111.136C245.978 102.965 231.634 94.7233 217.218 86.5831C213.591 84.5353 210.392 83.1497 205.787 85.9616C192.858 93.8879 179.41 100.979 166.166 108.385C165.31 108.864 164.872 109.567 164.77 110.515C164.24 110.27 163.71 110.026 163.181 109.781C155.01 106.317 147.389 101.926 140.319 96.5673C140.064 96.2107 139.809 95.8542 139.555 95.4874C143.599 92.431 148.164 90.2609 152.565 87.8056C171.198 77.4343 189.924 67.226 208.415 56.5897C210.646 55.306 212.46 55.8663 214.467 56.9565C224.176 62.2236 233.691 67.827 243.411 73.084C258.143 81.051 272.671 89.4255 287.25 97.6778C302.603 106.368 317.885 115.191 333.371 123.637C334.033 124.004 334.695 124.411 334.95 125.196C335.204 125.583 335.449 125.97 335.704 126.367C327.645 130.921 319.525 135.383 311.263 139.55C310.58 139.296 309.897 139.041 309.205 138.796Z" fill="#90D5CD"/>
<path d="M140.337 96.5569C148.161 100.612 155.843 104.921 163.199 109.771C158.716 113.51 153.296 115.7 148.294 118.553C145.523 120.132 143.169 122.821 139.583 122.801C131.514 119.133 123.741 114.926 116.518 109.75C119.319 106.938 122.936 105.339 126.39 103.668C131.086 101.406 134.988 97.5349 140.337 96.5569Z" fill="#2A6F67"/>
<path d="M311.264 139.55C314.779 135.444 320.107 134.283 324.467 131.563C327.941 129.403 331.365 126.805 335.705 126.377C339.332 128.629 342.999 130.809 346.575 133.142C351.313 136.239 351.71 140.437 347.777 144.695C343.376 146.397 339.393 148.852 335.562 151.562C333.178 151.878 331.436 153.467 329.49 154.649C329.245 154.72 328.991 154.771 328.767 154.873C322.002 158.041 321.839 158.031 322.093 150.635C322.206 147.232 321.543 144.909 318.1 143.534C315.675 142.556 313.536 140.895 311.264 139.55Z" fill="#2A6F67"/>
<path d="M95.2781 156.279C91.6614 155.535 88.7374 153.335 85.6607 151.552C81.0252 148.862 76.1044 146.621 71.8458 143.299C70.5825 137.085 72.2941 132.612 78.7532 130.33C81.8708 129.23 84.0408 126.041 87.6677 125.746C95.8486 129.566 103.704 133.998 111.365 138.776C108.767 141.995 104.814 143.086 101.289 144.42C96.4497 146.244 95.1457 149.463 95.3596 154.017C95.3902 154.761 95.3087 155.525 95.2781 156.279Z" fill="#2A6F67"/>
<path d="M149.631 341.608C149.581 333.57 149.519 325.542 149.469 317.504C149.458 316.617 149.468 315.731 150.253 315.109C156.936 318.828 163.63 322.536 170.303 326.275C171.281 326.826 172.157 327.569 173.074 328.231C173.094 336.871 173.125 345.5 173.145 354.14C170.262 353.885 168.021 352.133 165.739 350.686C160.522 347.365 154.512 345.49 149.631 341.608Z" fill="#2A6F67"/>
<path d="M154.801 162.443C156.095 163.196 157.379 163.95 158.673 164.714C160.914 167.893 164.704 168.708 167.852 170.389C171.805 172.498 173.588 175.025 173.231 179.65C172.803 185.213 173.109 190.826 173.15 196.43C173.17 198.6 172.64 199.741 170.297 198.426C164.347 195.085 158.408 191.753 152.458 188.422C150.247 187.179 149.351 185.406 149.422 182.788C149.585 176.685 149.626 170.583 149.432 164.48C149.33 161.322 150.104 160.466 152.957 162.198C153.436 162.483 154.18 162.361 154.801 162.443Z" fill="#2A6F67"/>
<path d="M395.755 145.082C397.079 143.9 398.343 141.384 400.207 142.29C401.674 143.003 400.747 145.561 400.747 147.282C400.798 182.268 400.909 217.264 400.787 252.249C400.706 278.096 394.552 302.263 379.729 323.78C367.911 340.936 352.405 354.099 334.321 364.185C303.075 381.616 271.574 398.58 240.674 416.643C239.757 417.183 238.697 418.395 237.638 417.498C236.721 416.714 237.362 415.369 237.556 414.248C239.247 404.631 242.946 395.788 247.581 387.24C248.763 385.06 250.413 383.786 252.399 382.635C273.978 370.246 295.974 358.642 317.929 346.947C337.388 336.585 353.759 322.954 364.864 303.638C373.29 288.988 376.805 272.992 377.08 256.202C377.1 255.265 377.508 253.828 376.214 253.615C374.951 253.401 374.431 254.827 373.789 255.734C364.62 268.754 353.373 279.696 340.414 288.875C329.33 296.73 317.47 303.353 305.662 310.026C284.42 322.027 265.583 336.851 250.647 356.33C235.519 376.064 225.626 397.978 223.445 422.99C223.252 425.16 222.529 426.535 220.634 427.483C219.167 428.216 217.557 428.869 216.386 429.969C212.443 433.677 208.795 433.076 205.158 429.622C200.9 427.717 199.605 424.517 199.748 419.862C200.074 408.563 199.524 397.244 199.952 385.956C200.349 375.279 198.077 364.776 198.638 354.119C198.852 350.065 198.76 346.07 200.879 342.311C202.04 340.243 201.654 337.604 202.051 335.231C203.08 328.986 204.587 322.842 205.942 316.668C210.884 297.657 220.114 280.888 232.646 265.861C248.773 246.514 268.711 232.037 290.809 220.362C329.238 200.067 363.449 173.914 395.755 145.082ZM374.43 194.015C373.126 193.261 372.483 194.799 371.679 195.482C354.736 209.969 335.766 221.421 316.582 232.567C302.451 240.778 287.608 247.767 274.547 257.802C249.597 276.966 232.542 301.224 226.042 332.348C224.779 338.369 223.638 344.451 224.3 351.124C226.531 350.065 227.183 348.455 228.12 347.12C232.481 341.028 237.167 335.19 242.23 329.668C256.718 313.867 274.058 301.784 292.335 290.842C307.342 281.856 323.072 274.001 336.429 262.448C356.499 245.097 369.427 223.519 374.857 197.499C375.102 196.307 375.805 194.81 374.43 194.015Z" fill="#389489"/>
</svg>
