<svg width="38" height="44" viewBox="0 0 38 44" fill="none" xmlns="http://www.w3.org/2000/svg">
<path d="M18.4074 31.667C18.9015 29.7659 19.8245 28.089 21.0777 26.5863C22.6904 24.6516 24.6842 23.2039 26.894 22.0363C30.7369 20.0069 34.158 17.3916 37.3886 14.5084C37.521 14.3902 37.6474 14.1386 37.8338 14.2293C37.9805 14.3006 37.8878 14.5563 37.8878 14.7285C37.8929 18.227 37.9041 21.7266 37.8919 25.2252C37.8837 27.8098 37.2684 30.2264 35.786 32.3781C34.6042 34.0938 33.0536 35.4101 31.2452 36.4187C28.1206 38.1618 24.9705 39.8581 21.8805 41.6645C21.7888 41.7185 21.6828 41.8397 21.5769 41.75C21.4852 41.6716 21.5494 41.5371 21.5687 41.425C21.7378 40.4633 22.1077 39.579 22.5712 38.7242C22.6894 38.5062 22.8544 38.3788 23.0531 38.2637C25.2109 37.0249 27.4105 35.8644 29.606 34.6949C31.5519 33.6588 33.1891 32.2956 34.2996 30.364C35.1421 28.8989 35.4936 27.2994 35.5211 25.6204C35.5232 25.5267 35.5639 25.3831 35.4345 25.3617C35.3082 25.3403 35.2562 25.4829 35.1921 25.5736C34.2751 26.8756 33.1504 27.9698 31.8545 28.8877C30.746 29.6732 29.5602 30.3354 28.3794 31.0027C26.2552 32.2029 24.3714 33.6852 22.8779 35.6332C21.365 37.6066 20.3757 39.798 20.1577 42.2992C20.1383 42.5162 20.066 42.6537 19.8765 42.7485C19.7298 42.8218 19.5688 42.887 19.4517 42.9971C19.0574 43.3679 18.6927 43.3078 18.3289 42.9624C17.9031 42.7719 17.7737 42.452 17.788 41.9864C17.8206 40.8566 17.7655 39.7247 17.8083 38.5958C17.8481 37.5281 17.6209 36.4778 17.6769 35.4121C17.6983 35.0066 17.6891 34.6073 17.901 34.2313C18.0172 34.0245 17.9785 33.7606 18.0182 33.5233C18.1211 32.8987 18.2719 32.2844 18.4074 31.667Z" fill="#389489"/>
<path d="M30.7889 15.4984C30.1318 15.9528 29.3932 16.2615 28.7024 16.6578C26.3001 18.0373 23.8846 19.3943 21.4741 20.7595C21.143 20.9469 20.817 21.1426 20.4777 21.3127C20.2403 21.4319 20.1609 21.599 20.1629 21.8598C20.1741 22.9917 20.1649 24.1236 20.171 25.2565C20.1721 25.4561 20.1405 25.6314 20.0111 25.7873C19.1696 26.8071 18.4391 27.8982 17.8981 29.1381C17.732 28.9995 17.7901 28.8375 17.7901 28.702C17.786 26.5778 17.7585 24.4526 17.8044 22.3295C17.8176 21.7019 17.6088 21.3412 17.0729 21.0794C16.5288 20.8145 16.0001 20.514 15.4744 20.2124C15.1851 20.0463 15.1229 20.1543 15.1239 20.4345C15.129 21.5542 15.1249 22.6738 15.126 23.7925C15.128 26.7694 15.1311 29.7453 15.1331 32.7222C15.1647 32.7548 15.1647 32.7884 15.1341 32.821C14.7561 32.7762 14.4862 32.5093 14.1724 32.3371C13.7017 32.0783 13.1994 31.8685 12.7725 31.5302C12.7206 31.462 12.687 31.3855 12.6696 31.301C12.637 31.086 12.6483 30.869 12.6483 30.653C12.6472 26.9385 12.636 23.224 12.6595 19.5094C12.6635 18.944 12.4598 18.618 11.9799 18.3643C10.4731 17.5686 8.99485 16.722 7.51046 15.8856C7.41877 15.8255 7.33217 15.7613 7.28429 15.6584C7.16101 14.932 7.28938 14.6701 7.92511 14.3533C8.25316 14.1903 8.58835 14.0426 8.90417 13.8561C9.00707 13.8245 9.1008 13.8582 9.19453 13.8969C10.2724 14.4613 11.3391 15.0481 12.3936 15.6553C12.6034 15.7766 12.8367 15.8468 13.0456 15.964C13.1597 16.0272 13.3512 16.0628 13.2687 16.2778C12.9243 16.2625 12.8347 16.4337 12.8551 16.7617C12.8846 17.2426 12.8663 17.7265 12.8612 18.2084C12.8591 18.4611 12.9529 18.6516 13.1668 18.782C13.6762 19.0927 14.2009 19.3749 14.7256 19.6561C14.9558 19.7794 15.021 19.6806 15.021 19.4626C15.021 18.891 15.022 18.3195 15.021 17.7489C15.021 17.5217 14.9151 17.3669 14.7286 17.2508C14.4913 17.102 14.2437 16.9747 13.9961 16.8453C13.8514 16.7699 13.6874 16.7108 13.6538 16.5182C13.8076 16.3226 13.9493 16.4826 14.0817 16.5437C14.7195 16.8371 15.2727 17.2732 15.8839 17.6134C16.7846 18.1127 17.6964 18.5915 18.5776 19.1253C18.8293 19.2782 19.0595 19.2822 19.3224 19.1162C19.8919 18.7565 20.492 18.4489 21.0859 18.131C21.1827 18.079 21.3243 18.0444 21.3223 17.9089C21.3202 17.7795 21.1868 17.7347 21.089 17.6807C18.7264 16.3848 16.3832 15.0552 14.0359 13.7328C13.3166 13.3274 12.5657 12.9769 11.8903 12.495C11.822 12.4329 11.7303 12.384 11.7578 12.2668C12.5413 11.8236 13.3074 11.3519 14.1153 10.9525C14.1927 10.9352 14.2651 10.9566 14.3364 10.9831C15.9991 11.8603 17.623 12.8088 19.2643 13.7247C20.7619 14.5601 22.2372 15.4353 23.7358 16.2676C23.9895 16.4092 24.1841 16.3797 24.4062 16.2472C25.1805 15.7847 25.966 15.3405 26.7586 14.9106C27.4055 14.5591 28.0626 14.227 28.6974 13.8531C28.7952 13.8306 28.8858 13.8582 28.9765 13.8897C29.0937 13.9376 29.1915 14.0222 29.3086 14.068C29.8812 14.2952 30.2296 14.6528 30.1104 15.3283C30.0687 15.5626 30.1685 15.6706 30.4099 15.5249C30.4955 15.4729 30.5893 15.4322 30.6952 15.4393C30.737 15.4444 30.7675 15.4648 30.7889 15.4984Z" fill="#3EA397"/>
<path d="M15.1383 35.5857C15.1383 37.3156 15.1403 39.0465 15.1393 40.7764C15.1393 41.1819 15.1179 41.1911 14.7746 40.9996C11.6642 39.2605 8.55178 37.5234 5.44139 35.7843C3.74917 34.8389 2.06001 33.8884 0.364728 32.95C0.100859 32.8033 0.00611253 32.623 0.00611253 32.3153C0.0132441 25.1776 0.00916917 18.041 0 10.9033C0 10.6404 0.0713136 10.4621 0.306656 10.3521C0.341295 10.3358 0.375936 10.3175 0.404462 10.293C1.13596 9.64199 1.80632 9.72553 2.61831 10.2624C3.84188 11.0714 5.16122 11.7346 6.44083 12.46C6.53456 12.4763 6.65681 12.4722 6.55697 12.625C6.15862 12.8227 5.81121 13.1059 5.41286 13.3046C5.17548 13.4238 5.06546 13.6214 5.07157 13.8924C5.07564 14.0524 5.10315 14.2266 4.97275 14.3621C4.93403 14.3804 4.8943 14.3876 4.85151 14.3855C4.20355 14.1176 3.61774 13.7345 3.00035 13.4095C2.83837 13.3239 2.67128 13.1202 2.49198 13.2312C2.33814 13.327 2.41149 13.5623 2.41659 13.7355C2.57654 19.4184 2.45224 25.1033 2.48382 30.7861C2.48586 31.1529 2.6183 31.3587 2.93311 31.537C5.96199 33.2567 9.00412 34.955 12.0371 36.6676C12.6372 37.0069 12.6473 37.0008 12.6535 36.306C12.6596 35.6448 12.627 34.9836 12.6718 34.3234C12.6799 34.2826 12.6962 34.2449 12.7187 34.2103C12.7818 34.1359 12.8582 34.1614 12.9255 34.195C13.6845 34.575 14.4435 34.955 15.1587 35.4166C15.1821 35.4767 15.1709 35.5327 15.1383 35.5857Z" fill="#3EA397"/>
<path d="M9.23749 10.9067C7.74801 10.0702 6.25853 9.23482 4.77109 8.39534C4.64476 8.32402 4.44813 8.27716 4.45322 8.10804C4.4573 7.96642 4.63864 7.91854 4.75784 7.85232C7.86517 6.11017 10.9745 4.37211 14.0808 2.62894C15.5479 1.80576 17.0109 0.974416 18.4719 0.137984C18.7215 -0.00464788 18.9487 -0.0617017 19.2166 0.0890804C21.8889 1.58977 24.5643 3.08536 27.2386 4.583C29.593 5.90234 31.9475 7.21964 34.2989 8.54306C35.3584 9.13906 36.4108 9.74728 37.4653 10.3504C37.8402 10.5654 38.0256 11.0839 37.8718 11.4813C37.8208 11.6117 37.6945 11.6626 37.5875 11.7227C36.1409 12.5317 34.6901 13.3345 33.2414 14.1403C33.0325 14.2565 32.8298 14.3838 32.624 14.5061C32.6117 14.4928 32.5995 14.4796 32.5873 14.4663C32.5802 14.3706 32.6454 14.3023 32.679 14.2218C32.8237 13.8724 32.7513 13.6136 32.4406 13.3976C32.0871 13.1521 31.6897 12.9748 31.3596 12.6916C31.3077 12.6335 31.2679 12.5714 31.2965 12.4889C31.8619 12.0987 32.4661 11.7737 33.0661 11.4426C33.166 11.3875 33.2719 11.3427 33.3707 11.2836C33.6978 11.0901 33.6957 11.0228 33.3697 10.8354C32.4885 10.327 31.5919 9.84712 30.7066 9.34791C28.8575 8.30568 26.99 7.29504 25.144 6.24771C23.2541 5.17594 21.3265 4.16733 19.4805 3.02016C19.0699 2.76546 18.7439 2.78176 18.3302 3.02118C16.1072 4.30588 13.8628 5.55391 11.6276 6.81722C10.997 7.1738 10.3806 7.55483 9.7418 7.89714C9.45449 8.05098 9.44838 8.13554 9.73874 8.30466C10.4193 8.70098 11.0978 9.10238 11.7875 9.48545C11.8426 9.54148 11.8843 9.60363 11.8558 9.68819C11.0591 10.112 10.2858 10.5776 9.49117 11.0055C9.38521 11.0299 9.3139 10.9617 9.23749 10.9067Z" fill="#3EA397"/>
<path d="M15.138 35.5863C15.1349 35.5292 15.1309 35.4711 15.1278 35.4141C14.923 34.5512 14.9342 33.6872 15.1207 32.8233C15.1248 32.7897 15.1299 32.756 15.1339 32.7224C15.9255 33.2919 16.7986 33.7239 17.6402 34.2099C17.8541 34.3331 17.8592 34.1773 17.8867 34.0275C18.0059 33.3795 18.1302 32.7316 18.2576 32.0857C18.2861 31.94 18.2851 31.7811 18.4083 31.668C18.3992 32.2303 18.2097 32.7601 18.1037 33.3052C17.847 34.6276 17.7655 35.9459 17.8511 37.2978C17.9448 38.7894 17.8867 40.2921 17.8694 41.7897C17.8633 42.2604 17.8704 42.6934 18.3309 42.9644C17.8348 42.7943 17.7339 42.671 17.7329 42.185C17.7278 40.6752 17.6972 39.1643 17.742 37.6554C17.7583 37.1216 17.5638 36.8424 17.1236 36.6285C16.5256 36.3361 15.95 36.0009 15.3937 35.6331C15.3122 35.5781 15.2277 35.574 15.138 35.5863Z" fill="#6BC7BC"/>
<path d="M9.23707 10.9062C9.31246 10.9287 9.38887 10.9521 9.46426 10.9745C10.0745 11.2037 10.5972 11.5929 11.1677 11.8955C11.3755 12.0055 11.6211 12.0728 11.7708 12.2796C11.8207 12.3254 11.8717 12.3723 11.9216 12.4181C10.967 12.8776 10.0623 13.4288 9.14334 13.9525C9.07814 13.927 9.01395 13.9015 8.94875 13.876C8.89985 13.8974 8.84789 13.9005 8.80306 13.874C8.09398 13.4553 7.34822 13.0997 6.65034 12.6606C6.61774 12.6402 6.59737 12.6076 6.58005 12.573C6.53318 12.5343 6.48632 12.4966 6.43945 12.4579C6.75936 12.464 7.00488 12.2928 7.26875 12.14C7.78936 11.8374 8.33238 11.5725 8.85604 11.273C9.00478 11.1885 9.23401 11.1548 9.23707 10.9062Z" fill="#6BC7BC"/>
<path d="M32.6243 14.5086C32.2341 14.7684 31.8225 14.9894 31.4008 15.1932C31.3896 15.1779 31.3784 15.1626 31.3682 15.1463C31.6891 14.7633 32.0762 14.4994 32.5917 14.4668C32.6019 14.4811 32.6131 14.4953 32.6243 14.5086Z" fill="#2A6F67"/>
<path d="M31.4005 15.1932C31.2018 15.3042 31.0255 15.4611 30.7892 15.4988C30.78 15.4876 30.7719 15.4754 30.7627 15.4642C30.888 15.2095 31.0755 15.078 31.3699 15.1544C31.3801 15.1677 31.3903 15.1799 31.4005 15.1932Z" fill="#2A6F67"/>
<path d="M20.2431 35.112C20.1769 34.4447 20.291 33.8365 20.4173 33.2344C21.0673 30.122 22.7727 27.6962 25.2678 25.7799C26.5739 24.7763 28.0583 24.0774 29.4713 23.2563C31.3897 22.1417 33.2867 20.9966 34.981 19.5479C35.0615 19.4796 35.1257 19.3258 35.2561 19.4012C35.3936 19.4806 35.3233 19.6304 35.2988 19.7496C34.7558 22.3516 33.463 24.5094 31.4559 26.2444C30.1203 27.3997 28.5473 28.1852 27.0466 29.0838C25.2189 30.178 23.4849 31.3863 22.0362 32.9665C21.5298 33.5186 21.0612 34.1024 20.6251 34.7117C20.5314 34.8451 20.4662 35.0061 20.2431 35.112Z" fill="#0F172A"/>
<path d="M7.47968 15.7468C7.32482 15.8293 7.34622 15.976 7.34622 16.1146C7.34418 20.1032 7.34418 24.0918 7.33705 28.0804C7.33705 28.3116 7.4104 28.4502 7.6162 28.5653C9.21469 29.4568 10.8081 30.3594 12.4025 31.26C12.5146 31.3232 12.6307 31.37 12.7621 31.3639C12.7876 31.4128 12.8121 31.4617 12.8365 31.5106C12.9221 32.3257 12.8742 33.1417 12.862 33.9568C12.861 34.0322 12.8294 34.1035 12.7744 34.1605C12.7693 34.1952 12.7632 34.2298 12.7581 34.2634C12.5125 34.2869 12.376 34.0841 12.1926 33.9833C9.92581 32.7261 7.67529 31.4383 5.41152 30.176C4.99586 29.9437 4.85322 29.6697 4.85526 29.2082C4.8685 24.5044 4.86239 19.8016 4.86647 15.0978C4.86647 14.8452 4.81553 14.5905 4.88583 14.3398C4.9225 14.3358 4.9602 14.3327 4.99687 14.3286C5.20471 14.3184 5.34836 14.4651 5.50627 14.5579C6.11551 14.9175 6.75837 15.2201 7.34011 15.6276C7.38697 15.6673 7.43383 15.7071 7.47968 15.7468Z" fill="#6BC7BC"/>
<path d="M28.7336 13.8796C27.1055 12.9576 25.4765 12.0376 23.8494 11.1136C22.4109 10.2965 20.9764 9.47228 19.5348 8.65826C19.1721 8.45348 18.8522 8.31493 18.3918 8.59611C17.0989 9.38874 15.7541 10.0978 14.4297 10.8385C14.3441 10.8864 14.3003 10.9567 14.2901 11.0514C14.2371 11.027 14.1841 11.0025 14.1311 10.9781C13.3141 10.6317 12.552 10.1926 11.845 9.65668C11.8195 9.62102 11.794 9.58537 11.7686 9.54869C12.173 9.24305 12.6294 9.02605 13.0696 8.78052C14.9329 7.74338 16.8055 6.72255 18.6546 5.65892C18.8777 5.53055 19.0591 5.58659 19.2598 5.6956C20.2307 6.22232 21.1822 6.78266 22.1542 7.30836C23.6273 8.10505 25.0801 8.9425 26.538 9.76773C28.0734 10.6368 29.6016 11.519 31.1501 12.3636C31.2164 12.4003 31.2826 12.4411 31.3081 12.5195C31.3335 12.5582 31.358 12.5969 31.3834 12.6367C30.5776 13.0921 29.7656 13.5383 28.9394 13.955C28.8711 13.9295 28.8028 13.904 28.7336 13.8796Z" fill="#6BC7BC"/>
<path d="M11.8468 9.65527C12.6292 10.0608 13.3974 10.4917 14.133 10.9767C13.6847 11.3505 13.1427 11.5696 12.6425 11.8549C12.3654 12.0128 12.13 12.2817 11.7714 12.2797C10.9645 11.9129 10.1872 11.4922 9.46484 10.9746C9.74501 10.6934 10.1067 10.5335 10.4521 10.3664C10.9217 10.1402 11.3119 9.75308 11.8468 9.65527Z" fill="#2A6F67"/>
<path d="M28.9395 13.955C29.2909 13.5444 29.8238 13.4283 30.2598 13.1563C30.6072 12.9403 30.9495 12.6805 31.3835 12.6377C31.7462 12.8628 32.113 13.0809 32.4706 13.3142C32.9443 13.6239 32.9841 14.0436 32.5908 14.4695C32.1507 14.6396 31.7523 14.8852 31.3693 15.1562C31.1309 15.1877 30.9567 15.3467 30.7621 15.4649C30.7376 15.472 30.7122 15.4771 30.6897 15.4873C30.0133 15.8041 29.997 15.8031 30.0224 15.0635C30.0336 14.7232 29.9674 14.4909 29.6231 14.3533C29.3806 14.2555 29.1666 14.0895 28.9395 13.955Z" fill="#2A6F67"/>
<path d="M7.3409 15.6276C6.97923 15.5532 6.68683 15.3331 6.37915 15.1548C5.9156 14.8859 5.42352 14.6617 4.99767 14.3296C4.87134 13.7081 5.04249 13.2609 5.68841 13.0327C6.00016 12.9226 6.21717 12.6038 6.57986 12.5742C7.39795 12.9563 8.18344 13.3994 8.94958 13.8773C8.68978 14.1992 8.29449 14.3082 7.94199 14.4417C7.45806 14.624 7.32765 14.946 7.34905 15.4014C7.3521 15.4758 7.34395 15.5522 7.3409 15.6276Z" fill="#2A6F67"/>
<path d="M12.7762 34.1606C12.7711 33.3568 12.765 32.554 12.7599 31.7502C12.7589 31.6615 12.7599 31.5729 12.8384 31.5107C13.5067 31.8826 14.1761 32.2534 14.8434 32.6273C14.9412 32.6824 15.0288 32.7567 15.1205 32.823C15.1225 33.6869 15.1256 34.5498 15.1276 35.4138C14.8393 35.3883 14.6152 35.2131 14.387 35.0684C13.8653 34.7363 13.2642 34.5488 12.7762 34.1606Z" fill="#2A6F67"/>
<path d="M13.2932 16.2443C13.4226 16.3197 13.551 16.3951 13.6803 16.4715C13.9045 16.7894 14.2835 16.8709 14.5983 17.039C14.9936 17.2499 15.1719 17.5025 15.1362 17.9651C15.0934 18.5213 15.124 19.0827 15.1281 19.643C15.1301 19.86 15.0771 19.9741 14.8428 19.8427C14.2478 19.5086 13.6539 19.1754 13.0589 18.8423C12.8378 18.718 12.7481 18.5407 12.7553 18.2789C12.7716 17.6686 12.7757 17.0583 12.7563 16.4481C12.7461 16.1323 12.8235 16.0467 13.1088 16.2199C13.1567 16.2484 13.2311 16.2362 13.2932 16.2443Z" fill="#2A6F67"/>
</svg>
