<svg width="48" height="48" viewBox="0 0 48 48" fill="none" xmlns="http://www.w3.org/2000/svg">
<path d="M0.00414813 24C0.00414813 16.0545 0.00474074 8.10856 0 0.163081C0 0.0298667 0.0373335 0 0.203852 0C16.0681 0.00331852 31.9319 0.00331852 47.7961 0C47.9627 0 48 0.0298667 48 0.163081C47.9958 16.0545 47.9958 31.9455 48 47.8369C48 47.9701 47.9627 48 47.7961 48C31.9319 47.9967 16.0681 47.9967 0.203852 48C0.0373335 48 0 47.9701 0 47.8369C0.00474074 39.891 0.00414813 31.9455 0.00414813 24Z" fill="#FDFCFC"/>
<path d="M23.4074 33.6665C23.9015 31.7654 24.8245 30.0885 26.0777 28.5858C27.6904 26.6511 29.6842 25.2034 31.894 24.0358C35.7369 22.0064 39.158 19.3911 42.3886 16.5079C42.521 16.3897 42.6474 16.1381 42.8338 16.2288C42.9805 16.3001 42.8878 16.5558 42.8878 16.728C42.8929 20.2265 42.9041 23.7261 42.8919 27.2247C42.8837 29.8094 42.2684 32.2259 40.786 34.3776C39.6042 36.0933 38.0536 37.4096 36.2452 38.4182C33.1206 40.1614 29.9705 41.8576 26.8805 43.664C26.7888 43.718 26.6828 43.8392 26.5769 43.7496C26.4852 43.6711 26.5494 43.5366 26.5687 43.4246C26.7378 42.4628 27.1077 41.5785 27.5712 40.7237C27.6894 40.5057 27.8544 40.3784 28.0531 40.2632C30.2109 39.0244 32.4105 37.864 34.606 36.6944C36.5519 35.6583 38.1891 34.2951 39.2996 32.3635C40.1421 30.8984 40.4936 29.2989 40.5211 27.62C40.5232 27.5262 40.5639 27.3826 40.4345 27.3612C40.3082 27.3398 40.2562 27.4824 40.1921 27.5731C39.2751 28.8751 38.1504 29.9693 36.8545 30.8872C35.746 31.6727 34.5602 32.3349 33.3794 33.0023C31.2552 34.2024 29.3714 35.6848 27.8779 37.6327C26.365 39.6061 25.3757 41.7975 25.1577 44.2987C25.1383 44.5157 25.066 44.6532 24.8765 44.748C24.7298 44.8213 24.5688 44.8865 24.4517 44.9966C24.0574 45.3674 23.6927 45.3073 23.3289 44.9619C22.9031 44.7714 22.7737 44.4515 22.788 43.9859C22.8206 42.8561 22.7655 41.7242 22.8083 40.5954C22.8481 39.5277 22.6209 38.4773 22.6769 37.4116C22.6983 37.0061 22.6891 36.6068 22.901 36.2308C23.0172 36.024 22.9785 35.7601 23.0182 35.5228C23.1211 34.8982 23.2719 34.2839 23.4074 33.6665Z" fill="#389489"/>
<path d="M35.7889 17.4984C35.1318 17.9528 34.3932 18.2615 33.7024 18.6578C31.3001 20.0373 28.8846 21.3943 26.4741 22.7595C26.143 22.9469 25.817 23.1426 25.4777 23.3127C25.2403 23.4319 25.1609 23.599 25.1629 23.8598C25.1741 24.9917 25.1649 26.1236 25.171 27.2565C25.1721 27.4561 25.1405 27.6314 25.0111 27.7873C24.1696 28.8071 23.4391 29.8982 22.8981 31.1381C22.732 30.9995 22.7901 30.8375 22.7901 30.702C22.786 28.5778 22.7585 26.4526 22.8044 24.3295C22.8176 23.7019 22.6088 23.3412 22.0729 23.0794C21.5288 22.8145 21.0001 22.514 20.4744 22.2124C20.1851 22.0463 20.1229 22.1543 20.1239 22.4345C20.129 23.5542 20.1249 24.6738 20.126 25.7925C20.128 28.7694 20.1311 31.7453 20.1331 34.7222C20.1647 34.7548 20.1647 34.7884 20.1341 34.821C19.7561 34.7762 19.4862 34.5093 19.1724 34.3371C18.7017 34.0783 18.1994 33.8685 17.7725 33.5302C17.7206 33.462 17.687 33.3855 17.6696 33.301C17.637 33.086 17.6483 32.869 17.6483 32.653C17.6472 28.9385 17.636 25.224 17.6595 21.5094C17.6635 20.944 17.4598 20.618 16.9799 20.3643C15.4731 19.5686 13.9948 18.722 12.5105 17.8856C12.4188 17.8255 12.3322 17.7613 12.2843 17.6584C12.161 16.932 12.2894 16.6701 12.9251 16.3533C13.2532 16.1903 13.5883 16.0426 13.9042 15.8561C14.0071 15.8245 14.1008 15.8582 14.1945 15.8969C15.2724 16.4613 16.3391 17.0481 17.3936 17.6553C17.6034 17.7766 17.8367 17.8468 18.0456 17.964C18.1597 18.0272 18.3512 18.0628 18.2687 18.2778C17.9243 18.2625 17.8347 18.4337 17.8551 18.7617C17.8846 19.2426 17.8663 19.7265 17.8612 20.2084C17.8591 20.4611 17.9529 20.6516 18.1668 20.782C18.6762 21.0927 19.2009 21.3749 19.7256 21.6561C19.9558 21.7794 20.021 21.6806 20.021 21.4626C20.021 20.891 20.022 20.3195 20.021 19.7489C20.021 19.5217 19.9151 19.3669 19.7286 19.2508C19.4913 19.102 19.2437 18.9747 18.9961 18.8453C18.8514 18.7699 18.6874 18.7108 18.6538 18.5182C18.8076 18.3226 18.9493 18.4826 19.0817 18.5437C19.7195 18.8371 20.2727 19.2732 20.8839 19.6134C21.7846 20.1127 22.6964 20.5915 23.5776 21.1253C23.8293 21.2782 24.0595 21.2822 24.3224 21.1162C24.8919 20.7565 25.492 20.4489 26.0859 20.131C26.1827 20.079 26.3243 20.0444 26.3223 19.9089C26.3202 19.7795 26.1868 19.7347 26.089 19.6807C23.7264 18.3848 21.3832 17.0552 19.0359 15.7328C18.3166 15.3274 17.5657 14.9769 16.8903 14.495C16.822 14.4329 16.7303 14.384 16.7578 14.2668C17.5413 13.8236 18.3074 13.3519 19.1153 12.9525C19.1927 12.9352 19.2651 12.9566 19.3364 12.9831C20.9991 13.8603 22.623 14.8088 24.2643 15.7247C25.7619 16.5601 27.2372 17.4353 28.7358 18.2676C28.9895 18.4092 29.1841 18.3797 29.4062 18.2472C30.1805 17.7847 30.966 17.3405 31.7586 16.9106C32.4055 16.5591 33.0626 16.227 33.6974 15.8531C33.7952 15.8306 33.8858 15.8582 33.9765 15.8897C34.0937 15.9376 34.1915 16.0222 34.3086 16.068C34.8812 16.2952 35.2296 16.6528 35.1104 17.3283C35.0687 17.5626 35.1685 17.6706 35.4099 17.5249C35.4955 17.4729 35.5893 17.4322 35.6952 17.4393C35.737 17.4444 35.7675 17.4648 35.7889 17.4984Z" fill="#3EA397"/>
<path d="M20.1383 37.5862C20.1383 39.3161 20.1403 41.047 20.1393 42.7769C20.1393 43.1824 20.1179 43.1916 19.7746 43C16.6642 41.261 13.5518 39.5239 10.4414 37.7848C8.74917 36.8394 7.06001 35.8888 5.36473 34.9505C5.10086 34.8038 5.00611 34.6235 5.00611 34.3158C5.01324 27.1781 5.00917 20.0414 5 12.9038C5 12.6409 5.07131 12.4626 5.30666 12.3526C5.34129 12.3363 5.37594 12.3179 5.40446 12.2935C6.13596 11.6425 6.80632 11.726 7.61831 12.2629C8.84188 13.0719 10.1612 13.7351 11.4408 14.4605C11.5346 14.4768 11.6568 14.4727 11.557 14.6255C11.1586 14.8232 10.8112 15.1064 10.4129 15.3051C10.1755 15.4243 10.0655 15.6219 10.0716 15.8929C10.0756 16.0529 10.1032 16.2271 9.97275 16.3626C9.93403 16.3809 9.8943 16.388 9.85151 16.386C9.20355 16.1181 8.61774 15.735 8.00035 15.41C7.83837 15.3244 7.67128 15.1207 7.49198 15.2317C7.33814 15.3275 7.41149 15.5628 7.41659 15.736C7.57654 21.4189 7.45224 27.1038 7.48382 32.7866C7.48586 33.1534 7.6183 33.3592 7.93311 33.5375C10.962 35.2572 14.0041 36.9555 17.0371 38.6681C17.6372 39.0074 17.6473 39.0013 17.6535 38.3064C17.6596 37.6452 17.627 36.9841 17.6718 36.3239C17.6799 36.2831 17.6962 36.2454 17.7187 36.2108C17.7818 36.1364 17.8582 36.1619 17.9255 36.1955C18.6845 36.5755 19.4435 36.9555 20.1587 37.417C20.1821 37.4771 20.1709 37.5332 20.1383 37.5862Z" fill="#3EA397"/>
<path d="M14.2375 12.9067C12.748 12.0702 11.2585 11.2348 9.77109 10.3953C9.64476 10.324 9.44813 10.2772 9.45322 10.108C9.4573 9.96642 9.63864 9.91854 9.75784 9.85232C12.8652 8.11017 15.9745 6.37211 19.0808 4.62894C20.5479 3.80576 22.0109 2.97442 23.4719 2.13798C23.7215 1.99535 23.9487 1.9383 24.2166 2.08908C26.8889 3.58977 29.5643 5.08537 32.2386 6.583C34.593 7.90234 36.9475 9.21964 39.2989 10.5431C40.3584 11.1391 41.4108 11.7473 42.4653 12.3504C42.8402 12.5654 43.0256 13.0839 42.8718 13.4813C42.8208 13.6117 42.6945 13.6626 42.5875 13.7227C41.1409 14.5317 39.6901 15.3345 38.2414 16.1403C38.0325 16.2565 37.8298 16.3838 37.624 16.5061C37.6117 16.4928 37.5995 16.4796 37.5873 16.4663C37.5802 16.3706 37.6454 16.3023 37.679 16.2218C37.8237 15.8724 37.7513 15.6136 37.4406 15.3976C37.0871 15.1521 36.6897 14.9748 36.3596 14.6916C36.3077 14.6335 36.2679 14.5714 36.2965 14.4889C36.8619 14.0987 37.4661 13.7737 38.0661 13.4426C38.166 13.3875 38.2719 13.3427 38.3707 13.2836C38.6978 13.0901 38.6957 13.0228 38.3697 12.8354C37.4885 12.327 36.5919 11.8471 35.7066 11.3479C33.8575 10.3057 31.99 9.29504 30.144 8.24771C28.2541 7.17594 26.3265 6.16733 24.4805 5.02016C24.0699 4.76546 23.7439 4.78176 23.3302 5.02118C21.1072 6.30588 18.8628 7.55391 16.6276 8.81722C15.997 9.1738 15.3806 9.55483 14.7418 9.89714C14.4545 10.051 14.4484 10.1355 14.7387 10.3047C15.4193 10.701 16.0978 11.1024 16.7875 11.4854C16.8426 11.5415 16.8843 11.6036 16.8558 11.6882C16.0591 12.112 15.2858 12.5776 14.4912 13.0055C14.3852 13.0299 14.3139 12.9617 14.2375 12.9067Z" fill="#3EA397"/>
<path d="M20.137 37.5858C20.134 37.5287 20.1299 37.4706 20.1268 37.4136C19.9221 36.5507 19.9333 35.6867 20.1197 34.8228C20.1238 34.7892 20.1289 34.7556 20.133 34.7219C20.9246 35.2914 21.7977 35.7234 22.6392 36.2094C22.8531 36.3327 22.8582 36.1768 22.8857 36.027C23.0049 35.3791 23.1292 34.7311 23.2566 34.0852C23.2851 33.9395 23.2841 33.7806 23.4074 33.6675C23.3982 34.2299 23.2087 34.7596 23.1027 35.3047C22.846 36.6271 22.7645 37.9454 22.8501 39.2974C22.9438 40.7889 22.8857 42.2916 22.8684 43.7892C22.8623 44.2599 22.8694 44.6929 23.3299 44.9639C22.8338 44.7938 22.7329 44.6705 22.7319 44.1845C22.7268 42.6747 22.6962 41.1638 22.7411 39.6549C22.7574 39.1211 22.5628 38.842 22.1227 38.628C21.5246 38.3356 20.949 38.0004 20.3927 37.6326C20.3112 37.5776 20.2267 37.5735 20.137 37.5858Z" fill="#6BC7BC"/>
<path d="M14.2351 12.9067C14.3105 12.9292 14.3869 12.9526 14.4623 12.975C15.0726 13.2042 15.5952 13.5934 16.1657 13.896C16.3736 14.006 16.6191 14.0733 16.7689 14.2801C16.8188 14.3259 16.8697 14.3728 16.9196 14.4186C15.965 14.8781 15.0603 15.4293 14.1414 15.9529C14.0762 15.9275 14.012 15.902 13.9468 15.8765C13.8979 15.8979 13.8459 15.901 13.8011 15.8745C13.092 15.4558 12.3463 15.1002 11.6484 14.6611C11.6158 14.6407 11.5954 14.6081 11.5781 14.5735C11.5312 14.5348 11.4844 14.4971 11.4375 14.4584C11.7574 14.4645 12.0029 14.2933 12.2668 14.1405C12.7874 13.8379 13.3304 13.573 13.8541 13.2735C14.0028 13.1889 14.2321 13.1553 14.2351 12.9067Z" fill="#6BC7BC"/>
<path d="M37.6234 16.5081C37.2332 16.7679 36.8216 16.989 36.3998 17.1927C36.3886 17.1774 36.3774 17.1621 36.3672 17.1458C36.6881 16.7628 37.0752 16.4989 37.5908 16.4663C37.6009 16.4806 37.6122 16.4948 37.6234 16.5081Z" fill="#2A6F67"/>
<path d="M36.3995 17.1927C36.2008 17.3037 36.0246 17.4606 35.7882 17.4983C35.779 17.4871 35.7709 17.4749 35.7617 17.4637C35.887 17.209 36.0745 17.0775 36.3689 17.154C36.3791 17.1672 36.3893 17.1794 36.3995 17.1927Z" fill="#2A6F67"/>
<path d="M25.2421 37.112C25.1759 36.4447 25.29 35.8365 25.4163 35.2344C26.0663 32.122 27.7718 29.6962 30.2668 27.7799C31.5729 26.7763 33.0573 26.0774 34.4704 25.2563C36.3887 24.1417 38.2857 22.9966 39.98 21.5479C40.0605 21.4796 40.1247 21.3258 40.2551 21.4012C40.3926 21.4806 40.3223 21.6304 40.2979 21.7496C39.7549 24.3516 38.462 26.5094 36.455 28.2444C35.1193 29.3997 33.5463 30.1852 32.0456 31.0838C30.2179 32.178 28.4839 33.3863 27.0352 34.9665C26.5288 35.5186 26.0602 36.1024 25.6241 36.7117C25.5304 36.8451 25.4652 37.0061 25.2421 37.112Z" fill="white"/>
<path d="M12.4802 17.7471C14.0624 18.6253 15.6395 19.5116 17.2299 20.3745C17.6394 20.5966 17.7719 20.8799 17.7698 21.3475C17.7515 25.3524 17.7617 29.3583 17.7637 33.3632C17.5966 33.4875 17.4459 33.3938 17.3032 33.3174C15.7251 32.4697 14.1755 31.5711 12.6178 30.6878C12.2928 30.5034 12.2266 30.2243 12.2266 29.885C12.2306 27.6355 12.2286 25.387 12.2286 23.1375C12.2286 21.5115 12.2235 19.8845 12.2347 18.2585C12.2367 18.067 12.1542 17.799 12.4802 17.7471Z" fill="white"/>
<path d="M33.7338 15.8794C33.4404 16.2207 33.0013 16.3215 32.6325 16.5355C31.5159 17.1814 30.3779 17.7906 29.2572 18.4315C29.0789 18.5333 28.9679 18.5048 28.811 18.4162C26.8426 17.2996 24.8713 16.1891 22.8989 15.0776C21.6967 14.4011 20.4935 13.7277 19.2903 13.0522C19.1833 12.8668 19.3351 12.8026 19.4492 12.7354C20.8226 11.9387 22.2132 11.1715 23.5978 10.3952C23.9544 10.1955 24.2508 10.3891 24.5249 10.547C27.4203 12.2127 30.3361 13.8397 33.2509 15.4708C33.4363 15.5727 33.6472 15.6563 33.7338 15.8794Z" fill="white"/>
<path d="M12.4787 17.7468C12.3238 17.8293 12.3452 17.976 12.3452 18.1146C12.3432 22.1032 12.3432 26.0918 12.3361 30.0804C12.3361 30.3116 12.4094 30.4502 12.6152 30.5653C14.2137 31.4567 15.8071 32.3594 17.4015 33.26C17.5136 33.3232 17.6297 33.37 17.7612 33.3639C17.7866 33.4128 17.8111 33.4617 17.8355 33.5106C17.9211 34.3257 17.8732 35.1417 17.861 35.9568C17.86 36.0322 17.8284 36.1035 17.7734 36.1605C17.7683 36.1952 17.7622 36.2298 17.7571 36.2634C17.5116 36.2869 17.375 36.0841 17.1917 35.9833C14.9248 34.7261 12.6743 33.4383 10.4105 32.176C9.99488 31.9437 9.85225 31.6697 9.85428 31.2082C9.86753 26.5044 9.86142 21.8016 9.86549 17.0978C9.86549 16.8452 9.81455 16.5905 9.88485 16.3398C9.92153 16.3358 9.95922 16.3327 9.9959 16.3286C10.2037 16.3184 10.3474 16.4651 10.5053 16.5579C11.1145 16.9175 11.7574 17.2201 12.3391 17.6276C12.386 17.6673 12.4329 17.7071 12.4787 17.7468Z" fill="#6BC7BC"/>
<path d="M33.7345 15.8796C32.1065 14.9576 30.4774 14.0376 28.8504 13.1136C27.4119 12.2965 25.9774 11.4723 24.5358 10.6583C24.1731 10.4535 23.8532 10.3149 23.3927 10.5961C22.0999 11.3887 20.7551 12.0978 19.4306 12.8385C19.345 12.8864 19.3012 12.9567 19.2911 13.0514C19.2381 13.027 19.1851 13.0025 19.1321 12.9781C18.315 12.6317 17.553 12.1926 16.8459 11.6567C16.8205 11.621 16.795 11.5854 16.7695 11.5487C17.174 11.2431 17.6304 11.026 18.0705 10.7805C19.9339 9.74338 21.8065 8.72255 23.6556 7.65892C23.8787 7.53055 24.06 7.58659 24.2607 7.6956C25.2317 8.22232 26.1832 8.78266 27.1551 9.30836C28.6283 10.1051 30.0811 10.9425 31.539 11.7677C33.0744 12.6368 34.6025 13.519 36.1511 14.3636C36.2173 14.4003 36.2836 14.4411 36.309 14.5195C36.3345 14.5582 36.3589 14.5969 36.3844 14.6367C35.5786 15.0921 34.7666 15.5383 33.9403 15.955C33.8721 15.9295 33.8038 15.904 33.7345 15.8796Z" fill="#6BC7BC"/>
<path d="M14.1445 15.9537C14.386 15.5676 14.8312 15.4729 15.1786 15.2406C15.5719 14.9777 16.0161 14.7923 16.4236 14.5498C16.5856 14.4531 16.7476 14.4286 16.9228 14.4194C18.2971 15.1927 19.6725 15.9639 21.0459 16.7382C22.6179 17.6246 24.1878 18.515 25.7598 19.4024C25.9473 19.5083 26.1398 19.6031 26.3263 19.7101C26.5362 19.8313 26.6258 19.9434 26.3365 20.1013C25.604 20.5006 24.8806 20.9173 24.1562 21.332C23.9871 21.4288 23.8465 21.3788 23.6947 21.2912C22.3051 20.4894 20.8747 19.7579 19.5187 18.895C19.2569 18.7289 18.9981 18.5364 18.6812 18.4712C18.4846 18.5109 18.3786 18.3958 18.2941 18.244C17.8805 17.9261 17.3823 17.7652 16.936 17.5044C16.0181 16.9664 15.0767 16.4682 14.1445 15.9537Z" fill="white"/>
<path d="M16.8468 11.6558C17.6292 12.0612 18.3974 12.4922 19.133 12.9771C18.6847 13.351 18.1427 13.5701 17.6425 13.8553C17.3654 14.0133 17.13 14.2822 16.7714 14.2802C15.9645 13.9134 15.1872 13.4927 14.4648 12.9751C14.745 12.6939 15.1067 12.534 15.4521 12.3669C15.9217 12.1407 16.3119 11.7536 16.8468 11.6558Z" fill="#2A6F67"/>
<path d="M33.9375 15.955C34.289 15.5444 34.8218 15.4283 35.2579 15.1563C35.6053 14.9403 35.9476 14.6805 36.3816 14.6377C36.7443 14.8628 37.111 15.0809 37.4686 15.3142C37.9424 15.6239 37.9821 16.0436 37.5889 16.4695C37.1487 16.6396 36.7504 16.8852 36.3673 17.1562C36.1289 17.1877 35.9547 17.3467 35.7601 17.4649C35.7357 17.472 35.7102 17.4771 35.6878 17.4873C35.0113 17.8041 34.995 17.8031 35.0205 17.0635C35.0317 16.7232 34.9655 16.4909 34.6211 16.3533C34.3786 16.2555 34.1647 16.0895 33.9375 15.955Z" fill="#2A6F67"/>
<path d="M12.3429 17.6276C11.9812 17.5532 11.6888 17.3331 11.3811 17.1548C10.9176 16.8859 10.4255 16.6617 9.99962 16.3296C9.87329 15.7081 10.0444 15.2609 10.6904 15.0327C11.0021 14.9226 11.2191 14.6038 11.5818 14.5742C12.3999 14.9563 13.1854 15.3994 13.9515 15.8773C13.6917 16.1992 13.2964 16.3082 12.9439 16.4417C12.46 16.624 12.3296 16.946 12.351 17.4014C12.3541 17.4758 12.3459 17.5522 12.3429 17.6276Z" fill="#2A6F67"/>
<path d="M17.7743 36.1606C17.7692 35.3568 17.7631 34.554 17.758 33.7502C17.757 33.6615 17.758 33.5729 17.8364 33.5107C18.5048 33.8826 19.1741 34.2534 19.8414 34.6273C19.9392 34.6824 20.0268 34.7567 20.1185 34.823C20.1206 35.6869 20.1236 36.5498 20.1257 37.4138C19.8373 37.3883 19.6132 37.2131 19.385 37.0684C18.8634 36.7363 18.2623 36.5488 17.7743 36.1606Z" fill="#2A6F67"/>
<path d="M18.2922 18.2443C18.4216 18.3197 18.55 18.3951 18.6794 18.4715C18.9035 18.7894 19.2825 18.8709 19.5973 19.039C19.9926 19.2499 20.1709 19.5025 20.1352 19.9651C20.0924 20.5213 20.123 21.0827 20.1271 21.643C20.1291 21.86 20.0761 21.9741 19.8418 21.8427C19.2468 21.5086 18.6529 21.1754 18.0579 20.8423C17.8368 20.718 17.7472 20.5407 17.7543 20.2789C17.7706 19.6686 17.7747 19.0583 17.7553 18.4481C17.7451 18.1323 17.8226 18.0467 18.1078 18.2199C18.1557 18.2484 18.2301 18.2362 18.2922 18.2443Z" fill="#2A6F67"/>
<path d="M9.88607 16.3411C10.0083 16.5113 9.97267 16.7069 9.97267 16.8944C9.97267 21.7255 9.97471 26.5566 9.96452 31.3878C9.9635 31.6954 10.0613 31.8544 10.3343 32.0072C12.1763 33.0341 14.0051 34.0855 15.8399 35.1257C16.279 35.3753 16.7202 35.6229 17.1725 35.847C17.3936 35.9571 17.5759 36.1079 17.7593 36.2637C17.7614 37.1032 17.7654 37.9427 17.7624 38.7812C17.7614 39.1316 17.6982 39.1622 17.3895 38.988C14.2893 37.2377 11.1993 35.4691 8.08076 33.7534C7.52246 33.4468 7.34927 33.1207 7.35334 32.4993C7.38085 27.4766 7.37474 22.4529 7.36047 17.4302C7.35844 16.7324 7.31157 16.0345 7.32176 15.3356C7.32685 14.9434 7.36557 14.924 7.69872 15.1125C8.42614 15.5241 9.15661 15.9316 9.88607 16.3411Z" fill="white"/>
<path d="M36.3104 14.5195C35.4698 14.1547 34.6986 13.6627 33.9019 13.2174C30.654 11.3989 27.4091 9.57524 24.1653 7.74956C23.9931 7.65277 23.8678 7.64361 23.6824 7.74854C21.6865 8.87024 19.6816 9.97563 17.6837 11.0922C17.3862 11.2583 17.1203 11.4845 16.7719 11.5476C15.9843 11.188 15.2671 10.7041 14.5152 10.2813C14.3115 10.1672 14.2707 10.0459 14.5214 9.90533C16.5966 8.73983 18.6668 7.56719 20.7391 6.3966C21.6957 5.85663 22.6575 5.32279 23.607 4.77162C23.8209 4.64732 23.9748 4.64427 24.1958 4.77162C26.2059 5.92489 28.216 7.07817 30.2424 8.20089C32.2016 9.28591 34.1688 10.3546 36.1076 11.4763C36.885 11.9266 37.6888 12.3291 38.4733 12.7671C38.5976 12.8364 38.7993 12.8823 38.8044 13.0483C38.8105 13.2236 38.6016 13.2572 38.4784 13.3265C37.7591 13.733 37.0327 14.1242 36.3104 14.5195Z" fill="white"/>
</svg>
