<svg width="90" height="15" viewBox="0 0 90 15" fill="none" xmlns="http://www.w3.org/2000/svg">
<path fill-rule="evenodd" clip-rule="evenodd" d="M86.3359 0.146811C87.5357 -0.0261504 88.7576 -0.0261504 89.9992 0.146811C89.9835 0.226226 89.939 0.269794 89.8684 0.277644C88.7144 0.147726 87.537 0.104028 86.3359 0.146811Z" fill="#389489"/>
<path fill-rule="evenodd" clip-rule="evenodd" d="M13.5938 3.15588C10.9768 3.13403 8.36018 3.15588 5.74397 3.2213C5.58213 3.25165 5.4513 3.31707 5.35148 3.41755C3.54497 4.41593 2.86897 5.94236 3.3236 7.9967C3.46215 9.53058 4.26898 10.5118 5.74397 10.9404C8.40414 10.984 11.0644 11.0277 13.7246 11.0713C13.3433 12.0194 13.0816 13.0007 12.9396 14.015C10.2324 14.0526 7.52849 14.009 4.82815 13.8842C4.56453 13.6979 4.2593 13.6107 3.91234 13.6225C1.81931 12.6827 0.576425 11.0692 0.183672 8.7817C-0.302756 6.3312 0.177 4.10704 1.62281 2.10922C2.54608 1.04803 3.70183 0.415585 5.08981 0.21214C8.18709 0.103156 11.2833 0.125005 14.3788 0.277557C14.0671 1.22662 13.8055 2.18602 13.5938 3.15588Z" fill="#389489"/>
<path fill-rule="evenodd" clip-rule="evenodd" d="M15.8164 0.146484C16.863 0.146484 17.9097 0.146484 18.9563 0.146484C18.9563 1.97815 18.9563 3.80981 18.9563 5.64147C20.8752 5.64147 22.794 5.64147 24.7129 5.64147C24.8432 3.83296 24.8868 2.0013 24.8437 0.146484C25.8904 0.146484 26.937 0.146484 27.9836 0.146484C27.9836 4.7692 27.9836 9.39205 27.9836 14.0148C26.937 14.0148 25.8904 14.0148 24.8437 14.0148C24.8437 12.1395 24.8437 10.2642 24.8437 8.38896C22.8582 8.34591 20.8958 8.38948 18.9563 8.51979C18.826 10.2847 18.7825 12.0727 18.8255 13.8839C17.8224 13.8839 16.8195 13.8839 15.8164 13.8839C15.8164 9.30479 15.8164 4.72564 15.8164 0.146484Z" fill="#389489"/>
<path fill-rule="evenodd" clip-rule="evenodd" d="M44.6002 13.8839C41.1761 13.9272 37.7745 13.8836 34.3954 13.753C34.7116 12.8044 35.1041 11.8885 35.5729 11.0056C37.0582 11.049 38.5409 11.0054 40.0211 10.8747C40.0049 10.7953 39.9613 10.7517 39.8903 10.7439C39.016 8.42854 38.0347 6.16068 36.9466 3.94058C35.5784 7.22514 34.2484 10.5397 32.9563 13.8839C31.7986 13.9265 30.6647 13.883 29.5547 13.753C31.3403 9.20608 33.1937 4.67063 35.115 0.146425C36.2925 -0.0279751 37.4699 -0.0279751 38.6474 0.146425C40.7024 4.69261 42.6865 9.27176 44.6002 13.8839Z" fill="#389489"/>
<path fill-rule="evenodd" clip-rule="evenodd" d="M46.1719 0.146484C47.2185 0.146484 48.2652 0.146484 49.3118 0.146484C49.2686 2.61151 49.3122 5.05363 49.4426 7.47313C49.4426 9.65372 49.4426 11.8342 49.4426 14.0148C48.3524 14.0148 47.2621 14.0148 46.1719 14.0148C46.1719 9.39205 46.1719 4.7692 46.1719 0.146484Z" fill="#389489"/>
<path fill-rule="evenodd" clip-rule="evenodd" d="M61.3455 8.2581C61.3533 8.32914 61.3965 8.37271 61.4763 8.38893C61.6071 5.64288 61.6503 2.89539 61.6071 0.146458C62.6106 0.146458 63.6127 0.146458 64.6162 0.146458C64.6162 4.72561 64.6162 9.30476 64.6162 13.8839C63.7004 13.8839 62.7846 13.8839 61.8688 13.8839C59.4746 11.0304 57.0974 8.15212 54.7385 5.24894C54.6731 8.12687 54.6509 11.0052 54.6731 13.8839C53.6265 13.8839 52.5798 13.8839 51.5332 13.8839C51.5766 9.32609 51.5329 4.7905 51.4023 0.277291C51.8521 0.104199 52.3536 0.0169333 52.9069 0.015625C53.4084 0.0591924 53.91 0.102891 54.4114 0.146458C56.7258 2.85287 59.0376 5.55679 61.3455 8.2581Z" fill="#389489"/>
<path fill-rule="evenodd" clip-rule="evenodd" d="M67.2344 0.146484C68.3242 0.146484 69.4153 0.146484 70.5051 0.146484C70.5051 3.76624 70.5051 7.38586 70.5051 11.0056C73.0825 10.9201 75.6114 11.0072 78.0933 11.2673C77.9062 11.99 77.6446 12.6877 77.3083 13.3606C77.1984 13.5138 77.1108 13.6883 77.0467 13.8839C73.7759 13.8839 70.5051 13.8839 67.2344 13.8839C67.2344 9.30479 67.2344 4.72564 67.2344 0.146484Z" fill="#389489"/>
<path fill-rule="evenodd" clip-rule="evenodd" d="M86.3353 0.146425C87.5363 0.103643 88.7138 0.147341 89.8677 0.277258C87.972 3.10822 86.075 5.94298 84.1766 8.7814C84 9.2868 83.9346 9.81014 83.9804 10.3514C83.8508 11.5051 83.8064 12.6826 83.8495 13.8839C82.8461 13.8839 81.8439 13.8839 80.8404 13.8839C80.8836 12.3342 80.8391 10.8077 80.7096 9.30473C78.7053 6.25567 76.6983 3.20294 74.6914 0.146425C75.9121 -0.0279751 77.134 -0.0279751 78.3547 0.146425C79.6852 2.10892 81.0144 4.07141 82.345 6.03391C83.6782 4.06278 85.0087 2.10028 86.3353 0.146425Z" fill="#389489"/>
<path fill-rule="evenodd" clip-rule="evenodd" d="M46.1719 0.146655C47.2381 0.0167383 48.3284 -0.0268291 49.4426 0.0158224C49.4426 2.50165 49.4426 4.98747 49.4426 7.4733C49.3122 5.0538 49.2686 2.61168 49.3118 0.146655C48.2652 0.146655 47.2185 0.146655 46.1719 0.146655Z" fill="#389489"/>
<path fill-rule="evenodd" clip-rule="evenodd" d="M13.59 3.15566C10.8618 3.24881 8.11433 3.33594 5.34766 3.41732C5.44748 3.31684 5.57831 3.25143 5.74015 3.22107C8.35636 3.15566 10.973 3.13381 13.59 3.15566Z" fill="#389489"/>
<path fill-rule="evenodd" clip-rule="evenodd" d="M64.7492 14.0147C64.7924 9.36965 64.7492 4.74694 64.6184 0.146458C63.6149 0.146458 62.6128 0.146458 61.6093 0.146458C61.6525 2.89539 61.6093 5.64288 61.4785 8.38893C61.3987 8.37271 61.3555 8.32914 61.3477 8.2581C61.4785 5.53324 61.5217 2.78575 61.4785 0.015625C62.6128 0.015625 63.7458 0.015625 64.8801 0.015625C64.9233 4.70428 64.8801 9.3707 64.7492 14.0147Z" fill="#389489"/>
<path fill-rule="evenodd" clip-rule="evenodd" d="M64.6146 0.146484C64.7455 4.74696 64.7886 9.36968 64.7455 14.0148C63.7616 14.0573 62.8026 14.0137 61.8672 13.8839C62.783 13.8839 63.6988 13.8839 64.6146 13.8839C64.6146 9.30479 64.6146 4.72564 64.6146 0.146484Z" fill="#389489"/>
<path fill-rule="evenodd" clip-rule="evenodd" d="M27.9856 14.0147C27.9856 9.39203 27.9856 4.76918 27.9856 0.146458C26.939 0.146458 25.8923 0.146458 24.8457 0.146458C24.8887 2.00128 24.8452 3.83294 24.7148 5.64144C24.7148 3.76621 24.7148 1.89085 24.7148 0.015625C25.8488 0.015625 26.9825 0.015625 28.1164 0.015625C28.1599 4.70428 28.1162 9.3707 27.9856 14.0147Z" fill="#389489"/>
<path fill-rule="evenodd" clip-rule="evenodd" d="M15.8189 0.146484C15.8189 4.72564 15.8189 9.30479 15.8189 13.8839C16.822 13.8839 17.825 13.8839 18.8281 13.8839C18.785 12.0727 18.8286 10.2847 18.9589 8.51979C18.9589 10.3515 18.9589 12.1831 18.9589 14.0148C17.8687 14.0148 16.7783 14.0148 15.6881 14.0148C15.6447 9.36968 15.6884 4.74696 15.8189 0.146484Z" fill="#389489"/>
<path fill-rule="evenodd" clip-rule="evenodd" d="M39.8916 10.7441C39.9627 10.752 40.0062 10.7956 40.0225 10.875C38.5422 11.0057 37.0595 11.0492 35.5742 11.0058C37.0134 10.9185 38.4525 10.8314 39.8916 10.7441Z" fill="#389489"/>
<path fill-rule="evenodd" clip-rule="evenodd" d="M70.5039 0.146484C70.6347 3.70017 70.6779 7.27622 70.6347 10.8748C73.1637 10.8748 75.694 10.8748 78.2229 10.8748C78.2543 11.0437 78.2098 11.1745 78.0921 11.2673C75.6102 11.0072 73.0813 10.9201 70.5039 11.0056C70.5039 7.38586 70.5039 3.76624 70.5039 0.146484Z" fill="#389489"/>
<path fill-rule="evenodd" clip-rule="evenodd" d="M51.4023 0.277344C51.5329 4.79056 51.5766 9.32614 51.5332 13.884C52.5798 13.884 53.6265 13.884 54.6731 13.884C53.6068 14.0139 52.5166 14.0574 51.4023 14.0148C51.4023 9.43565 51.4023 4.8565 51.4023 0.277344Z" fill="#389489"/>
<path fill-rule="evenodd" clip-rule="evenodd" d="M18.957 8.51992C20.8965 8.38961 22.8589 8.34604 24.8444 8.38909C24.8444 10.2643 24.8444 12.1397 24.8444 14.0149C24.7141 12.2064 24.6705 10.3747 24.7136 8.51992C22.7947 8.51992 20.8759 8.51992 18.957 8.51992Z" fill="#389489"/>
<path fill-rule="evenodd" clip-rule="evenodd" d="M3.90625 13.6226C4.25321 13.6109 4.55844 13.698 4.82206 13.8843C4.4751 13.8961 4.16987 13.8089 3.90625 13.6226Z" fill="#389489"/>
<path fill-rule="evenodd" clip-rule="evenodd" d="M29.5566 13.7534C30.6666 13.8833 31.8005 13.9269 32.9582 13.8843C31.8014 14.0572 30.6239 14.0572 29.4258 13.8843C29.442 13.8048 29.4856 13.7613 29.5566 13.7534Z" fill="#389489"/>
<path fill-rule="evenodd" clip-rule="evenodd" d="M34.3965 13.7534C37.7755 13.884 41.1771 13.9276 44.6012 13.8843C41.1774 14.0581 37.7322 14.0581 34.2656 13.8843C34.2818 13.8048 34.3254 13.7613 34.3965 13.7534Z" fill="#389489"/>
<path fill-rule="evenodd" clip-rule="evenodd" d="M67.2368 0.146484C67.2368 4.72564 67.2368 9.30479 67.2368 13.8839C70.5076 13.8839 73.7784 13.8839 77.0491 13.8839C73.7574 14.0145 70.4435 14.0581 67.106 14.0148C67.0628 9.36968 67.106 4.74696 67.2368 0.146484Z" fill="#389489"/>
<path fill-rule="evenodd" clip-rule="evenodd" d="M80.707 9.30469C80.8366 10.8077 80.881 12.3341 80.8379 13.8838C81.8413 13.8838 82.8435 13.8838 83.847 13.8838C83.8038 12.6825 83.8483 11.505 83.9778 10.3514C83.9778 11.5724 83.9778 12.7936 83.9778 14.0147C82.888 14.0147 81.7968 14.0147 80.707 14.0147C80.707 12.4447 80.707 10.8747 80.707 9.30469Z" fill="#389489"/>
<path fill-rule="evenodd" clip-rule="evenodd" d="M77.3063 13.3608C77.3247 13.5914 77.2815 13.8095 77.1755 14.015C73.7962 14.1889 70.4377 14.1889 67.1016 14.015C70.439 14.0583 73.753 14.0147 77.0447 13.8842C77.1088 13.6886 77.1964 13.514 77.3063 13.3608Z" fill="#389489"/>
</svg>
