<svg width="20" height="20" viewBox="0 0 20 20" fill="none" xmlns="http://www.w3.org/2000/svg">
<path d="M10 12.5C11.3807 12.5 12.5 11.3807 12.5 10C12.5 8.61929 11.3807 7.5 10 7.5C8.61929 7.5 7.5 8.61929 7.5 10C7.5 11.3807 8.61929 12.5 10 12.5Z" stroke="#999999" stroke-width="1.5"/>
<path d="M11.4722 1.79366C11.1664 1.66699 10.778 1.66699 10.0014 1.66699C9.22469 1.66699 8.83635 1.66699 8.53052 1.79366C8.32817 1.87742 8.14431 2.00024 7.98946 2.1551C7.8346 2.30995 7.71178 2.49381 7.62802 2.69616C7.55135 2.88199 7.52052 3.09949 7.50885 3.41533C7.50343 3.6436 7.44019 3.86677 7.32505 4.06395C7.20992 4.26114 7.04665 4.4259 6.85052 4.54283C6.65119 4.6543 6.42684 4.71339 6.19846 4.71455C5.97008 4.71572 5.74514 4.65893 5.54469 4.54949C5.26469 4.40116 5.06219 4.31949 4.86135 4.29283C4.42328 4.23522 3.98027 4.35391 3.62969 4.62283C3.36802 4.82533 3.17302 5.16116 2.78469 5.83366C2.39635 6.50616 2.20135 6.84199 2.15885 7.17116C2.13021 7.3882 2.14462 7.60876 2.20124 7.82024C2.25786 8.03171 2.35559 8.22996 2.48885 8.40366C2.61219 8.56366 2.78469 8.69783 3.05219 8.86616C3.44635 9.11366 3.69969 9.53533 3.69969 10.0003C3.69969 10.4653 3.44635 10.887 3.05219 11.1337C2.78469 11.3028 2.61135 11.437 2.48885 11.597C2.35559 11.7707 2.25786 11.9689 2.20124 12.1804C2.14462 12.3919 2.13021 12.6124 2.15885 12.8295C2.20219 13.1578 2.39635 13.4945 2.78385 14.167C3.17302 14.8395 3.36719 15.1753 3.62969 15.3778C3.80338 15.5111 4.00163 15.6088 4.21311 15.6654C4.42458 15.7221 4.64514 15.7365 4.86219 15.7078C5.06219 15.6812 5.26469 15.5995 5.54469 15.4512C5.74514 15.3417 5.97008 15.2849 6.19846 15.2861C6.42684 15.2873 6.65119 15.3463 6.85052 15.4578C7.25302 15.6912 7.49219 16.1203 7.50885 16.5853C7.52052 16.902 7.55052 17.1187 7.62802 17.3045C7.71178 17.5068 7.8346 17.6907 7.98946 17.8456C8.14431 18.0004 8.32817 18.1232 8.53052 18.207C8.83635 18.3337 9.22469 18.3337 10.0014 18.3337C10.778 18.3337 11.1664 18.3337 11.4722 18.207C11.6745 18.1232 11.8584 18.0004 12.0132 17.8456C12.1681 17.6907 12.2909 17.5068 12.3747 17.3045C12.4514 17.1187 12.4822 16.902 12.4939 16.5853C12.5105 16.1203 12.7497 15.6903 13.1522 15.4578C13.3515 15.3463 13.5759 15.2873 13.8042 15.2861C14.0326 15.2849 14.2576 15.3417 14.458 15.4512C14.738 15.5995 14.9405 15.6812 15.1405 15.7078C15.3576 15.7365 15.5781 15.7221 15.7896 15.6654C16.0011 15.6088 16.1993 15.5111 16.373 15.3778C16.6355 15.1762 16.8297 14.8395 17.218 14.167C17.6064 13.4945 17.8014 13.1587 17.8439 12.8295C17.8725 12.6124 17.8581 12.3919 17.8015 12.1804C17.7448 11.9689 17.6471 11.7707 17.5139 11.597C17.3905 11.437 17.218 11.3028 16.9505 11.1345C16.7555 11.0157 16.5937 10.8493 16.4805 10.6509C16.3673 10.4526 16.3062 10.2287 16.303 10.0003C16.303 9.53533 16.5564 9.11366 16.9505 8.86699C17.218 8.69783 17.3914 8.56366 17.5139 8.40366C17.6471 8.22996 17.7448 8.03171 17.8015 7.82024C17.8581 7.60876 17.8725 7.3882 17.8439 7.17116C17.8005 6.84283 17.6064 6.50616 17.2189 5.83366C16.8297 5.16116 16.6355 4.82533 16.373 4.62283C16.1993 4.48957 16.0011 4.39184 15.7896 4.33521C15.5781 4.27859 15.3576 4.26419 15.1405 4.29283C14.9405 4.31949 14.738 4.40116 14.4572 4.54949C14.2568 4.65878 14.032 4.71549 13.8038 4.71432C13.5756 4.71316 13.3514 4.65415 13.1522 4.54283C12.9561 4.4259 12.7928 4.26114 12.6777 4.06395C12.5625 3.86677 12.4993 3.6436 12.4939 3.41533C12.4822 3.09866 12.4522 2.88199 12.3747 2.69616C12.2909 2.49381 12.1681 2.30995 12.0132 2.1551C11.8584 2.00024 11.6745 1.87742 11.4722 1.79366Z" stroke="#999999" stroke-width="1.5"/>
</svg>
