<svg width="24" height="24" viewBox="0 0 24 24" fill="none" xmlns="http://www.w3.org/2000/svg">
<path d="M12 3.5C12.1326 3.5 12.2597 3.55272 12.3535 3.64648C12.4473 3.74025 12.5 3.86739 12.5 4V20C12.5 20.1326 12.4473 20.2597 12.3535 20.3535C12.2597 20.4473 12.1326 20.5 12 20.5C11.8674 20.5 11.7403 20.4473 11.6465 20.3535C11.5527 20.2597 11.5 20.1326 11.5 20V4C11.5 3.86739 11.5527 3.74025 11.6465 3.64648C11.7169 3.57608 11.8061 3.52894 11.9023 3.50977L12 3.5Z" fill="white" stroke="white"/>
<path fill-rule="evenodd" clip-rule="evenodd" d="M21 12C21 12.2652 20.8946 12.5196 20.7071 12.7071C20.5196 12.8946 20.2652 13 20 13H4C3.73478 13 3.48043 12.8946 3.29289 12.7071C3.10536 12.5196 3 12.2652 3 12C3 11.7348 3.10536 11.4804 3.29289 11.2929C3.48043 11.1054 3.73478 11 4 11H20C20.2652 11 20.5196 11.1054 20.7071 11.2929C20.8946 11.4804 21 11.7348 21 12Z" fill="white"/>
</svg>
