<svg width="20" height="20" viewBox="0 0 20 20" fill="none" xmlns="http://www.w3.org/2000/svg">
<path fill-rule="evenodd" clip-rule="evenodd" d="M10.0013 2.5C10.2223 2.5 10.4343 2.5878 10.5906 2.74408C10.7468 2.90036 10.8346 3.11232 10.8346 3.33333V16.6667C10.8346 16.8877 10.7468 17.0996 10.5906 17.2559C10.4343 17.4122 10.2223 17.5 10.0013 17.5C9.78029 17.5 9.56833 17.4122 9.41205 17.2559C9.25577 17.0996 9.16797 16.8877 9.16797 16.6667V3.33333C9.16797 3.11232 9.25577 2.90036 9.41205 2.74408C9.56833 2.5878 9.78029 2.5 10.0013 2.5Z" fill="#999999"/>
<path fill-rule="evenodd" clip-rule="evenodd" d="M17.5 10.0003C17.5 10.2213 17.4122 10.4333 17.2559 10.5896C17.0996 10.7459 16.8877 10.8337 16.6667 10.8337H3.33333C3.11232 10.8337 2.90036 10.7459 2.74408 10.5896C2.5878 10.4333 2.5 10.2213 2.5 10.0003C2.5 9.77931 2.5878 9.56735 2.74408 9.41107C2.90036 9.25479 3.11232 9.16699 3.33333 9.16699H16.6667C16.8877 9.16699 17.0996 9.25479 17.2559 9.41107C17.4122 9.56735 17.5 9.77931 17.5 10.0003Z" fill="#999999"/>
</svg>
