<svg width="32" height="32" viewBox="0 0 32 32" fill="none" xmlns="http://www.w3.org/2000/svg">
<path fill-rule="evenodd" clip-rule="evenodd" d="M16.0013 4C16.3549 4 16.6941 4.14048 16.9441 4.39052C17.1942 4.64057 17.3346 4.97971 17.3346 5.33333V26.6667C17.3346 27.0203 17.1942 27.3594 16.9441 27.6095C16.6941 27.8595 16.3549 28 16.0013 28C15.6477 28 15.3085 27.8595 15.0585 27.6095C14.8084 27.3594 14.668 27.0203 14.668 26.6667V5.33333C14.668 4.97971 14.8084 4.64057 15.0585 4.39052C15.3085 4.14048 15.6477 4 16.0013 4Z" fill="#2E2E2E"/>
<path fill-rule="evenodd" clip-rule="evenodd" d="M28 16.0003C28 16.3539 27.8595 16.6931 27.6095 16.9431C27.3594 17.1932 27.0203 17.3337 26.6667 17.3337H5.33333C4.97971 17.3337 4.64057 17.1932 4.39052 16.9431C4.14048 16.6931 4 16.3539 4 16.0003C4 15.6467 4.14048 15.3076 4.39052 15.0575C4.64057 14.8075 4.97971 14.667 5.33333 14.667H26.6667C27.0203 14.667 27.3594 14.8075 27.6095 15.0575C27.8595 15.3076 28 15.6467 28 16.0003Z" fill="#2E2E2E"/>
</svg>
