<svg width="20" height="20" viewBox="0 0 20 20" fill="none" xmlns="http://www.w3.org/2000/svg">
<path d="M4.55747 5.01255V15.4409C4.55736 15.7387 4.61594 16.0336 4.72985 16.3087C4.84377 16.5839 5.01079 16.8339 5.22137 17.0445C5.43194 17.2551 5.68195 17.4221 5.95711 17.536C6.23227 17.6499 6.52717 17.7085 6.82497 17.7084H13.1733C13.7745 17.7084 14.351 17.4696 14.7761 17.0445C15.2012 16.6194 15.44 16.0429 15.44 15.4417V5.01172M2.74414 5.01255H17.2541" stroke="#666666" stroke-width="1.5" stroke-linecap="round" stroke-linejoin="round"/>
<path d="M7.27734 5.01283V3.65199C7.27713 3.47326 7.31218 3.29625 7.3805 3.13109C7.44882 2.96594 7.54907 2.81589 7.67548 2.68954C7.8019 2.5632 7.95202 2.46305 8.11721 2.39483C8.28241 2.32661 8.45945 2.29167 8.63818 2.29199H11.3582C11.5369 2.29167 11.7139 2.32661 11.8791 2.39483C12.0443 2.46305 12.1945 2.5632 12.3209 2.68954C12.4473 2.81589 12.5475 2.96594 12.6159 3.13109C12.6842 3.29625 12.7192 3.47326 12.719 3.65199V5.01283M8.18485 14.1603V9.62783M11.8123 14.1603V9.62783" stroke="#666666" stroke-width="1.5" stroke-linecap="round" stroke-linejoin="round"/>
</svg>
