<svg width="24" height="24" viewBox="0 0 24 24" fill="none" xmlns="http://www.w3.org/2000/svg">
<path fill-rule="evenodd" clip-rule="evenodd" d="M13.0249 2.27014C13.2398 2.19859 13.4682 2.17666 13.6928 2.20598C13.9174 2.2353 14.1325 2.31511 14.3218 2.43943C14.5112 2.56375 14.67 2.72935 14.7862 2.92379C14.9024 3.11824 14.9731 3.33648 14.9929 3.56214L14.9989 3.69414V9.18014L18.7929 9.94014C19.1091 10.0031 19.3965 10.1663 19.6127 10.4055C19.8288 10.6447 19.9621 10.9472 19.9929 11.2681L19.9989 11.4101V19.0001H20.9989C21.2538 19.0004 21.4989 19.098 21.6843 19.273C21.8696 19.448 21.9811 19.6871 21.9961 19.9415C22.011 20.196 21.9282 20.4465 21.7646 20.642C21.601 20.8374 21.369 20.963 21.1159 20.9931L20.9989 21.0001H2.99889C2.74401 20.9999 2.49886 20.9023 2.31352 20.7273C2.12819 20.5523 2.01666 20.3132 2.00172 20.0587C1.98678 19.8043 2.06957 19.5538 2.23316 19.3583C2.39675 19.1629 2.6288 19.0372 2.88189 19.0071L2.99889 19.0001H3.99889V6.36014C3.99889 5.76014 4.35489 5.22414 4.89689 4.98614L5.02489 4.93714L13.0249 2.27014ZM12.9989 4.38814L5.99889 6.72114V19.0001H12.9989V4.38814ZM14.9989 11.2211V19.0001H17.9989V11.8201L14.9989 11.2211Z" fill="#3EA397"/>
</svg>
