<svg width="20" height="20" viewBox="0 0 20 20" fill="none" xmlns="http://www.w3.org/2000/svg">
<path fill-rule="evenodd" clip-rule="evenodd" d="M10.8554 1.89211C11.0345 1.83249 11.2248 1.81421 11.412 1.83864C11.5992 1.86307 11.7784 1.92959 11.9362 2.03319C12.094 2.13679 12.2263 2.27478 12.3231 2.43682C12.42 2.59886 12.4789 2.78072 12.4954 2.96877L12.5004 3.07877V7.65044L15.662 8.28377C15.9255 8.33628 16.1651 8.47228 16.3452 8.67161C16.5253 8.87095 16.6364 9.12301 16.662 9.39044L16.667 9.50877V15.8338H17.5004C17.7128 15.834 17.9171 15.9153 18.0715 16.0611C18.226 16.207 18.3189 16.4062 18.3314 16.6183C18.3438 16.8303 18.2748 17.0391 18.1385 17.202C18.0022 17.3648 17.8088 17.4695 17.5979 17.4946L17.5004 17.5004H2.50038C2.28798 17.5002 2.08369 17.4189 1.92924 17.2731C1.77479 17.1273 1.68185 16.928 1.6694 16.7159C1.65695 16.5039 1.72594 16.2951 1.86227 16.1322C1.99859 15.9694 2.19197 15.8647 2.40288 15.8396L2.50038 15.8338H3.33371V5.30044C3.33371 4.80044 3.63038 4.35377 4.08205 4.15544L4.18871 4.11461L10.8554 1.89211ZM10.8337 3.65711L5.00038 5.60127V15.8338H10.8337V3.65711ZM12.5004 9.35127V15.8338H15.0004V9.85044L12.5004 9.35127Z" fill="#999999"/>
</svg>
