<svg width="20" height="20" viewBox="0 0 20 20" fill="none" xmlns="http://www.w3.org/2000/svg">
<path d="M8.00065 12.392L8.59065 11.792L6.79898 10.0003L8.59065 8.20866L8.00065 7.60866L5.60898 10.0003L8.00065 12.392ZM12.0007 12.392L14.3923 10.0003L12.0007 7.60866L11.4107 8.20866L13.2023 10.0003L11.4107 11.792L12.0007 12.392ZM4.68065 16.667C4.30732 16.667 3.98954 16.5359 3.72732 16.2737C3.4651 16.0114 3.33398 15.6939 3.33398 15.3212V4.67949C3.33398 4.30727 3.4651 3.98977 3.72732 3.72699C3.98954 3.46477 4.30732 3.33366 4.68065 3.33366H8.59732C8.52121 2.9081 8.62287 2.52394 8.90232 2.18116C9.18121 1.83838 9.54732 1.66699 10.0007 1.66699C10.4645 1.66699 10.8362 1.83838 11.1157 2.18116C11.3951 2.52394 11.4915 2.9081 11.4048 3.33366H15.3215C15.6937 3.33366 16.0112 3.46477 16.274 3.72699C16.5362 3.98921 16.6673 4.30699 16.6673 4.68033V15.3212C16.6673 15.6934 16.5362 16.0109 16.274 16.2737C16.0118 16.5359 15.6943 16.667 15.3215 16.667H4.68065ZM4.68065 15.8337H15.3215C15.4493 15.8337 15.5668 15.7803 15.674 15.6737C15.7812 15.567 15.8345 15.4492 15.834 15.3203V4.68033C15.834 4.55199 15.7807 4.43421 15.674 4.32699C15.5673 4.21977 15.4495 4.16644 15.3207 4.16699H4.68065C4.55232 4.16699 4.43454 4.22033 4.32732 4.32699C4.2201 4.43366 4.16676 4.55144 4.16732 4.68033V15.3212C4.16732 15.4489 4.22065 15.5664 4.32732 15.6737C4.43398 15.7809 4.55148 15.8342 4.67982 15.8337M10.0007 3.70199C10.1812 3.70199 10.3307 3.6431 10.449 3.52533C10.5673 3.40755 10.6262 3.2581 10.6257 3.07699C10.6251 2.89588 10.5659 2.74671 10.4482 2.62949C10.3304 2.51227 10.1812 2.4531 10.0007 2.45199C9.8201 2.45088 9.67093 2.51005 9.55315 2.62949C9.43537 2.74894 9.37621 2.8981 9.37565 3.07699C9.3751 3.25588 9.43426 3.40533 9.55315 3.52533C9.67204 3.64533 9.82121 3.70421 10.0007 3.70199Z" fill="#2E2E2E"/>
</svg>
