<svg width="20" height="20" viewBox="0 0 20 20" fill="none" xmlns="http://www.w3.org/2000/svg">
<path d="M16.25 17.25C16.25 17.4489 16.171 17.6397 16.0303 17.7803C15.8897 17.921 15.6989 18 15.5 18H4.5C4.30109 18 4.11032 17.921 3.96967 17.7803C3.82902 17.6397 3.75 17.4489 3.75 17.25C3.75 17.0511 3.82902 16.8603 3.96967 16.7197C4.11032 16.579 4.30109 16.5 4.5 16.5H15.5C15.6989 16.5 15.8897 16.579 16.0303 16.7197C16.171 16.8603 16.25 17.0511 16.25 17.25ZM10 2C10.1989 2 10.3897 2.07902 10.5303 2.21967C10.671 2.36032 10.75 2.55109 10.75 2.75V12.94L13.47 10.22C13.5387 10.1463 13.6215 10.0872 13.7135 10.0462C13.8055 10.0052 13.9048 9.98318 14.0055 9.98141C14.1062 9.97963 14.2062 9.99816 14.2996 10.0359C14.393 10.0736 14.4778 10.1297 14.549 10.201C14.6203 10.2722 14.6764 10.357 14.7141 10.4504C14.7518 10.5438 14.7704 10.6438 14.7686 10.7445C14.7668 10.8452 14.7448 10.9445 14.7038 11.0365C14.6628 11.1285 14.6037 11.2113 14.53 11.28L10.534 15.277C10.4691 15.3414 10.3937 15.3941 10.311 15.433C10.1711 15.4967 10.0151 15.5159 9.86394 15.488C9.71281 15.4601 9.57389 15.3864 9.466 15.277L5.47 11.28C5.39631 11.2113 5.33721 11.1285 5.29622 11.0365C5.25523 10.9445 5.23318 10.8452 5.23141 10.7445C5.22963 10.6438 5.24815 10.5438 5.28588 10.4504C5.3236 10.357 5.37974 10.2722 5.45096 10.201C5.52218 10.1297 5.60701 10.0736 5.7004 10.0359C5.79379 9.99816 5.89382 9.97963 5.99452 9.98141C6.09522 9.98318 6.19454 10.0052 6.28654 10.0462C6.37854 10.0872 6.46134 10.1463 6.53 10.22L9.25 12.94V2.75C9.25 2.55109 9.32902 2.36032 9.46967 2.21967C9.61032 2.07902 9.80109 2 10 2Z" fill="#666666"/>
</svg>
