<svg width="20" height="20" viewBox="0 0 20 20" fill="none" xmlns="http://www.w3.org/2000/svg">
<path d="M4.86847 3.80651C6.23332 2.46524 8.07271 1.71736 9.98628 1.72565C11.8998 1.73395 13.7327 2.49775 15.0858 3.85081C16.439 5.20386 17.203 7.03663 17.2114 8.9502C17.2199 10.8638 16.4721 12.7032 15.131 14.0682L14.141 15.0465C13.4121 15.7621 12.466 16.6823 11.3026 17.8073C10.9529 18.1453 10.4855 18.3341 9.99914 18.334C9.51278 18.3338 9.04551 18.1447 8.69597 17.8065L5.78681 14.9765C5.42125 14.6176 5.11514 14.3148 4.86847 14.0682C3.50824 12.7071 2.74414 10.8616 2.74414 8.93734C2.74414 7.01309 3.50824 5.16758 4.86847 3.80651ZM14.246 4.69151C13.6897 4.12757 13.0273 3.67925 12.297 3.37237C11.5667 3.06549 10.783 2.90611 9.99082 2.90341C9.19868 2.9007 8.41383 3.05473 7.68147 3.35663C6.94911 3.65852 6.2837 4.10231 5.72357 4.66244C5.16344 5.22257 4.71965 5.88798 4.41776 6.62034C4.11587 7.3527 3.96184 8.13755 3.96454 8.92969C3.96724 9.72183 4.12662 10.5056 4.4335 11.2359C4.74038 11.9662 5.1887 12.6285 5.75264 13.1848L6.99181 14.4073C7.84719 15.2431 8.70497 16.0765 9.56514 16.9073C9.6817 17.0201 9.83754 17.0832 9.99972 17.0832C10.1619 17.0832 10.3177 17.0201 10.4343 16.9073L13.2626 14.1573C13.6543 13.774 13.9821 13.4498 14.246 13.1848C15.3722 12.0585 16.0049 10.531 16.0049 8.93817C16.0049 7.34538 15.3722 5.81781 14.246 4.69151ZM10.0001 6.24984C10.3832 6.24995 10.7625 6.32551 11.1164 6.47221C11.4703 6.61891 11.7918 6.83387 12.0626 7.10482C12.3334 7.37578 12.5482 7.69742 12.6947 8.05137C12.8412 8.40533 12.9165 8.78468 12.9164 9.16776C12.9163 9.55083 12.8407 9.93014 12.694 10.284C12.5473 10.6379 12.3324 10.9594 12.0614 11.2302C11.7905 11.501 11.4688 11.7158 11.1149 11.8623C10.7609 12.0088 10.3816 12.0841 9.99847 12.084C9.22482 12.0838 8.48293 11.7762 7.93603 11.229C7.38913 10.6818 7.082 9.93975 7.08222 9.16609C7.08245 8.39243 7.38999 7.65055 7.93721 7.10365C8.48442 6.55674 9.22648 6.24962 10.0001 6.24984ZM9.99931 7.49984C9.55728 7.49984 9.13336 7.67544 8.8208 7.988C8.50824 8.30056 8.33264 8.72448 8.33264 9.16651C8.33264 9.60853 8.50824 10.0325 8.8208 10.345C9.13336 10.6576 9.55728 10.8332 9.99931 10.8332C10.4413 10.8332 10.8653 10.6576 11.1778 10.345C11.4904 10.0325 11.666 9.60853 11.666 9.16651C11.666 8.72448 11.4904 8.30056 11.1778 7.988C10.8653 7.67544 10.4413 7.49984 9.99931 7.49984Z" fill="#999999"/>
</svg>
