<svg width="20" height="20" viewBox="0 0 20 20" fill="none" xmlns="http://www.w3.org/2000/svg">
<path d="M14.375 5.625C14.375 6.78532 13.9141 7.89812 13.0936 8.71859C12.2731 9.53906 11.1603 10 10 10C8.83968 10 7.72688 9.53906 6.90641 8.71859C6.08594 7.89812 5.625 6.78532 5.625 5.625C5.625 4.46468 6.08594 3.35188 6.90641 2.53141C7.72688 1.71094 8.83968 1.25 10 1.25C11.1603 1.25 12.2731 1.71094 13.0936 2.53141C13.9141 3.35188 14.375 4.46468 14.375 5.625ZM13.125 5.625C13.125 4.7962 12.7958 4.00134 12.2097 3.41529C11.6237 2.82924 10.8288 2.5 10 2.5C9.1712 2.5 8.37634 2.82924 7.79029 3.41529C7.20424 4.00134 6.875 4.7962 6.875 5.625C6.875 6.4538 7.20424 7.24866 7.79029 7.83471C8.37634 8.42076 9.1712 8.75 10 8.75C10.8288 8.75 11.6237 8.42076 12.2097 7.83471C12.7958 7.24866 13.125 6.4538 13.125 5.625ZM4.6875 11.25C4.10734 11.25 3.55094 11.4805 3.1407 11.8907C2.73047 12.3009 2.5 12.8573 2.5 13.4375V13.75C2.5 15.2456 3.45188 16.5106 4.80312 17.3706C6.16187 18.2356 8.00125 18.75 10 18.75C11.9987 18.75 13.8375 18.2356 15.1969 17.3706C16.5481 16.5106 17.5 15.2456 17.5 13.75V13.4375C17.5 12.8573 17.2695 12.3009 16.8593 11.8907C16.4491 11.4805 15.8927 11.25 15.3125 11.25H4.6875ZM3.75 13.4375C3.75 13.1889 3.84877 12.9504 4.02459 12.7746C4.2004 12.5988 4.43886 12.5 4.6875 12.5H15.3125C15.5611 12.5 15.7996 12.5988 15.9754 12.7746C16.1512 12.9504 16.25 13.1889 16.25 13.4375V13.75C16.25 14.6706 15.6625 15.5931 14.5256 16.3163C13.3962 17.035 11.7981 17.5 10 17.5C8.20187 17.5 6.60375 17.035 5.47437 16.3163C4.33687 15.5938 3.75 14.67 3.75 13.75V13.4375Z" fill="#999999"/>
</svg>
