<svg width="24" height="24" viewBox="0 0 24 24" fill="none" xmlns="http://www.w3.org/2000/svg">
<path d="M12 2.25C6.61547 2.25 2.25 6.61547 2.25 12C2.25 17.3845 6.61547 21.75 12 21.75C17.3845 21.75 21.75 17.3845 21.75 12C21.75 6.61547 17.3845 2.25 12 2.25Z" stroke="#3EA397" stroke-width="1.5" stroke-miterlimit="10"/>
<path d="M12.0002 2.25C9.27812 2.25 6.71875 6.61547 6.71875 12C6.71875 17.3845 9.27812 21.75 12.0002 21.75C14.7222 21.75 17.2816 17.3845 17.2816 12C17.2816 6.61547 14.7222 2.25 12.0002 2.25Z" stroke="#3EA397" stroke-width="1.5" stroke-miterlimit="10"/>
<path d="M5.5 5.5C7.2925 6.77266 9.54906 7.53156 12.0002 7.53156C14.4512 7.53156 16.7078 6.77266 18.5003 5.5M18.5003 18.5003C16.7078 17.2277 14.4512 16.4687 12.0002 16.4687C9.54906 16.4687 7.2925 17.2277 5.5 18.5003" stroke="#3EA397" stroke-width="1.5" stroke-linecap="round" stroke-linejoin="round"/>
<path d="M12 2.25V21.75M21.75 12H2.25" stroke="#3EA397" stroke-width="1.5" stroke-miterlimit="10"/>
</svg>
