<svg width="20" height="20" viewBox="0 0 20 20" fill="none" xmlns="http://www.w3.org/2000/svg">
<path d="M10 1.875C5.51289 1.875 1.875 5.51289 1.875 10C1.875 14.4871 5.51289 18.125 10 18.125C14.4871 18.125 18.125 14.4871 18.125 10C18.125 5.51289 14.4871 1.875 10 1.875Z" stroke="#999999" stroke-width="1.3" stroke-miterlimit="10"/>
<path d="M9.99883 1.875C7.73047 1.875 5.59766 5.51289 5.59766 10C5.59766 14.4871 7.73047 18.125 9.99883 18.125C12.2672 18.125 14.4 14.4871 14.4 10C14.4 5.51289 12.2672 1.875 9.99883 1.875Z" stroke="#999999" stroke-width="1.3" stroke-miterlimit="10"/>
<path d="M4.58203 4.58301C6.07578 5.64355 7.95625 6.27598 9.99883 6.27598C12.0414 6.27598 13.9219 5.64355 15.4156 4.58301M15.4156 15.4166C13.9219 14.3561 12.0414 13.7236 9.99883 13.7236C7.95625 13.7236 6.07578 14.3561 4.58203 15.4166" stroke="#999999" stroke-width="1.3" stroke-linecap="round" stroke-linejoin="round"/>
<path d="M10 1.875V18.125M18.125 10H1.875" stroke="#999999" stroke-width="1.3" stroke-miterlimit="10"/>
</svg>
