<svg width="32" height="32" viewBox="0 0 32 32" fill="none" xmlns="http://www.w3.org/2000/svg">
<path fill-rule="evenodd" clip-rule="evenodd" d="M16.0003 4C16.3539 4 16.6931 4.14048 16.9431 4.39052C17.1932 4.64057 17.3337 4.97971 17.3337 5.33333V26.6667C17.3337 27.0203 17.1932 27.3594 16.9431 27.6095C16.6931 27.8595 16.3539 28 16.0003 28C15.6467 28 15.3076 27.8595 15.0575 27.6095C14.8075 27.3594 14.667 27.0203 14.667 26.6667V5.33333C14.667 4.97971 14.8075 4.64057 15.0575 4.39052C15.3076 4.14048 15.6467 4 16.0003 4Z" fill="#666666"/>
<path fill-rule="evenodd" clip-rule="evenodd" d="M28 15.9993C28 16.353 27.8595 16.6921 27.6095 16.9422C27.3594 17.1922 27.0203 17.3327 26.6667 17.3327H5.33333C4.97971 17.3327 4.64057 17.1922 4.39052 16.9422C4.14048 16.6921 4 16.353 4 15.9993C4 15.6457 4.14048 15.3066 4.39052 15.0565C4.64057 14.8065 4.97971 14.666 5.33333 14.666H26.6667C27.0203 14.666 27.3594 14.8065 27.6095 15.0565C27.8595 15.3066 28 15.6457 28 15.9993Z" fill="#666666"/>
</svg>
