<svg width="20" height="20" viewBox="0 0 20 20" fill="none" xmlns="http://www.w3.org/2000/svg">
<path fill-rule="evenodd" clip-rule="evenodd" d="M10.0003 2.5C10.2213 2.5 10.4333 2.5878 10.5896 2.74408C10.7459 2.90036 10.8337 3.11232 10.8337 3.33333V16.6667C10.8337 16.8877 10.7459 17.0996 10.5896 17.2559C10.4333 17.4122 10.2213 17.5 10.0003 17.5C9.77931 17.5 9.56735 17.4122 9.41107 17.2559C9.25479 17.0996 9.16699 16.8877 9.16699 16.6667V3.33333C9.16699 3.11232 9.25479 2.90036 9.41107 2.74408C9.56735 2.5878 9.77931 2.5 10.0003 2.5Z" fill="#2E2E2E"/>
<path fill-rule="evenodd" clip-rule="evenodd" d="M17.5 9.99935C17.5 10.2204 17.4122 10.4323 17.2559 10.5886C17.0996 10.7449 16.8877 10.8327 16.6667 10.8327H3.33333C3.11232 10.8327 2.90036 10.7449 2.74408 10.5886C2.5878 10.4323 2.5 10.2204 2.5 9.99935C2.5 9.77834 2.5878 9.56637 2.74408 9.41009C2.90036 9.25381 3.11232 9.16602 3.33333 9.16602H16.6667C16.8877 9.16602 17.0996 9.25381 17.2559 9.41009C17.4122 9.56637 17.5 9.77834 17.5 9.99935Z" fill="#2E2E2E"/>
</svg>
