<svg width="20" height="20" viewBox="0 0 20 20" fill="none" xmlns="http://www.w3.org/2000/svg">
<path d="M1.96387 6.42833L7.78053 10.3067C8.58303 10.8408 8.98387 11.1083 9.4172 11.2125C9.80053 11.3042 10.1997 11.3042 10.5822 11.2125C11.0155 11.1083 11.4164 10.8408 12.2189 10.3067L18.0355 6.42833M5.96387 16.25H14.0355C15.4355 16.25 16.1355 16.25 16.6705 15.9775C17.1406 15.7377 17.5227 15.3553 17.7622 14.885C18.0355 14.35 18.0355 13.65 18.0355 12.25V7.75C18.0355 6.35 18.0355 5.65 17.763 5.115C17.5234 4.64462 17.1409 4.26218 16.6705 4.0225C16.1355 3.75 15.4355 3.75 14.0355 3.75H5.96387C4.56387 3.75 3.86387 3.75 3.32887 4.0225C2.85879 4.26232 2.47666 4.64474 2.2372 5.115C1.96387 5.65 1.96387 6.35 1.96387 7.75V12.25C1.96387 13.65 1.96387 14.35 2.23637 14.885C2.47605 15.3554 2.85848 15.7378 3.32887 15.9775C3.86387 16.25 4.56387 16.25 5.96387 16.25Z" stroke="#999999" stroke-width="1.5" stroke-linecap="round" stroke-linejoin="round"/>
</svg>
