<svg width="24" height="24" viewBox="0 0 24 24" fill="none" xmlns="http://www.w3.org/2000/svg">
<path d="M21.9998 12.4996C21.9998 12.0086 21.9948 11.0166 21.9838 10.5236C21.9188 7.4586 21.8858 5.9256 20.7548 4.7906C19.6238 3.6546 18.0498 3.6156 14.9008 3.5366C12.9671 3.4878 11.0325 3.4878 9.09881 3.5366C5.94981 3.6156 4.37581 3.6546 3.24481 4.7906C2.11381 5.9256 2.08081 7.4586 2.01481 10.5236C1.99376 11.5075 1.99376 12.4917 2.01481 13.4756C2.08081 16.5406 2.11381 18.0736 3.24481 19.2086C4.37581 20.3446 5.94981 20.3836 9.09881 20.4626C9.90148 20.4826 10.7018 20.4946 11.4998 20.4986" stroke="white" stroke-width="1.5" stroke-linecap="round" stroke-linejoin="round"/>
<path d="M2 6L8.913 9.925C11.439 11.358 12.561 11.358 15.087 9.925L22 6" stroke="white" stroke-width="1.5" stroke-linejoin="round"/>
<path d="M22 17.5H14M22 17.5C22 16.8 20.006 15.492 19.5 15M22 17.5C22 18.2 20.006 19.509 19.5 20" stroke="white" stroke-width="1.5" stroke-linecap="round" stroke-linejoin="round"/>
</svg>
