<svg width="20" height="20" viewBox="0 0 20 20" fill="none" xmlns="http://www.w3.org/2000/svg">
<path d="M10 12.5C11.3807 12.5 12.5 11.3807 12.5 10C12.5 8.61929 11.3807 7.5 10 7.5C8.61929 7.5 7.5 8.61929 7.5 10C7.5 11.3807 8.61929 12.5 10 12.5Z" stroke="#3EA397" stroke-width="1.5"/>
<path d="M11.4712 1.79268C11.1654 1.66602 10.777 1.66602 10.0004 1.66602C9.22371 1.66602 8.83538 1.66602 8.52954 1.79268C8.32719 1.87644 8.14334 1.99926 7.98848 2.15412C7.83362 2.30898 7.7108 2.49283 7.62704 2.69518C7.55038 2.88102 7.51954 3.09852 7.50788 3.41435C7.50245 3.64262 7.43921 3.86579 7.32408 4.06298C7.20894 4.26016 7.04567 4.42493 6.84954 4.54185C6.65021 4.65332 6.42586 4.71241 6.19749 4.71358C5.96911 4.71474 5.74416 4.65795 5.54371 4.54852C5.26371 4.40018 5.06121 4.31852 4.86038 4.29185C4.42231 4.23424 3.97929 4.35294 3.62871 4.62185C3.36704 4.82435 3.17204 5.16018 2.78371 5.83268C2.39538 6.50518 2.20038 6.84102 2.15788 7.17018C2.12924 7.38723 2.14364 7.60779 2.20026 7.81926C2.25689 8.03074 2.35462 8.22899 2.48788 8.40268C2.61121 8.56268 2.78371 8.69685 3.05121 8.86518C3.44538 9.11268 3.69871 9.53435 3.69871 9.99935C3.69871 10.4643 3.44538 10.886 3.05121 11.1327C2.78371 11.3018 2.61038 11.436 2.48788 11.596C2.35462 11.7697 2.25689 11.968 2.20026 12.1794C2.14364 12.3909 2.12924 12.6115 2.15788 12.8285C2.20121 13.1568 2.39538 13.4935 2.78288 14.166C3.17204 14.8385 3.36621 15.1743 3.62871 15.3768C3.80241 15.5101 4.00065 15.6078 4.21213 15.6645C4.42361 15.7211 4.64417 15.7355 4.86121 15.7068C5.06121 15.6802 5.26371 15.5985 5.54371 15.4502C5.74416 15.3407 5.96911 15.284 6.19749 15.2851C6.42586 15.2863 6.65021 15.3454 6.84954 15.4568C7.25204 15.6902 7.49121 16.1193 7.50788 16.5843C7.51954 16.901 7.54954 17.1177 7.62704 17.3035C7.7108 17.5059 7.83362 17.6897 7.98848 17.8446C8.14334 17.9994 8.32719 18.1223 8.52954 18.206C8.83538 18.3327 9.22371 18.3327 10.0004 18.3327C10.777 18.3327 11.1654 18.3327 11.4712 18.206C11.6736 18.1223 11.8574 17.9994 12.0123 17.8446C12.1671 17.6897 12.2899 17.5059 12.3737 17.3035C12.4504 17.1177 12.4812 16.901 12.4929 16.5843C12.5095 16.1193 12.7487 15.6893 13.1512 15.4568C13.3505 15.3454 13.5749 15.2863 13.8033 15.2851C14.0316 15.284 14.2566 15.3407 14.457 15.4502C14.737 15.5985 14.9395 15.6802 15.1395 15.7068C15.3566 15.7355 15.5771 15.7211 15.7886 15.6645C16.0001 15.6078 16.1983 15.5101 16.372 15.3768C16.6345 15.1752 16.8287 14.8385 17.217 14.166C17.6054 13.4935 17.8004 13.1577 17.8429 12.8285C17.8715 12.6115 17.8571 12.3909 17.8005 12.1794C17.7439 11.968 17.6461 11.7697 17.5129 11.596C17.3895 11.436 17.217 11.3018 16.9495 11.1335C16.7545 11.0147 16.5928 10.8483 16.4795 10.6499C16.3663 10.4516 16.3052 10.2277 16.302 9.99935C16.302 9.53435 16.5554 9.11268 16.9495 8.86602C17.217 8.69685 17.3904 8.56268 17.5129 8.40268C17.6461 8.22899 17.7439 8.03074 17.8005 7.81926C17.8571 7.60779 17.8715 7.38723 17.8429 7.17018C17.7995 6.84185 17.6054 6.50518 17.2179 5.83268C16.8287 5.16018 16.6345 4.82435 16.372 4.62185C16.1983 4.48859 16.0001 4.39086 15.7886 4.33424C15.5771 4.27762 15.3566 4.26321 15.1395 4.29185C14.9395 4.31852 14.737 4.40018 14.4562 4.54852C14.2559 4.6578 14.0311 4.71451 13.8029 4.71335C13.5746 4.71218 13.3504 4.65318 13.1512 4.54185C12.9551 4.42493 12.7918 4.26016 12.6767 4.06298C12.5615 3.86579 12.4983 3.64262 12.4929 3.41435C12.4812 3.09768 12.4512 2.88102 12.3737 2.69518C12.2899 2.49283 12.1671 2.30898 12.0123 2.15412C11.8574 1.99926 11.6736 1.87644 11.4712 1.79268Z" stroke="#3EA397" stroke-width="1.5"/>
</svg>
