<svg width="16" height="16" viewBox="0 0 16 16" fill="none" xmlns="http://www.w3.org/2000/svg">
<path d="M9.65354 1.60504C9.57612 1.27096 9.38319 0.974956 9.10878 0.769271C8.83437 0.563586 8.49613 0.461437 8.15374 0.48085C7.81136 0.500262 7.48683 0.639989 7.23743 0.875372C6.98803 1.11076 6.82979 1.42667 6.79062 1.76736C6.75146 2.10805 6.8339 2.45163 7.02338 2.73746C7.21287 3.0233 7.49723 3.23301 7.82628 3.32961C8.15533 3.4262 8.50793 3.40346 8.82185 3.26541C9.13577 3.12735 9.39084 2.88284 9.54204 2.57504C10.4625 2.78465 11.3182 3.21502 12.0353 3.82904C12.7523 4.44306 13.3093 5.22229 13.658 6.09954L14.5455 5.75054C14.1347 4.71004 13.4732 3.78716 12.6197 3.06394C11.7663 2.34072 10.7474 1.83957 9.65354 1.60504ZM8.24254 2.42404C8.17757 2.42613 8.11285 2.41513 8.05221 2.39171C7.99158 2.36829 7.93627 2.33292 7.88957 2.2877C7.84288 2.24248 7.80575 2.18834 7.78039 2.12848C7.75504 2.06863 7.74197 2.00429 7.74197 1.93929C7.74197 1.87429 7.75504 1.80995 7.78039 1.7501C7.80575 1.69025 7.84288 1.6361 7.88957 1.59088C7.93627 1.54566 7.99158 1.51029 8.05221 1.48687C8.11285 1.46345 8.17757 1.45245 8.24254 1.45454C8.37117 1.45454 8.49453 1.50564 8.58549 1.59659C8.67644 1.68755 8.72754 1.81091 8.72754 1.93954C8.72754 2.06817 8.67644 2.19153 8.58549 2.28249C8.49453 2.37344 8.37117 2.42404 8.24254 2.42404ZM6.10904 2.82704L5.75054 1.94004C4.71004 2.35087 3.78716 3.01241 3.06394 3.86586C2.34072 4.71931 1.83957 5.73823 1.60504 6.83204C1.27096 6.90946 0.974957 7.1024 0.769272 7.3768C0.563586 7.65121 0.461437 7.98945 0.48085 8.33184C0.500262 8.67423 0.639989 8.99875 0.875372 9.24815C1.11076 9.49755 1.42667 9.6558 1.76736 9.69496C2.10806 9.73412 2.45163 9.65169 2.73747 9.4622C3.0233 9.27271 3.23302 8.98835 3.32961 8.6593C3.4262 8.33025 3.40346 7.97765 3.26541 7.66373C3.12735 7.34981 2.88284 7.09474 2.57504 6.94354C2.78551 6.02198 3.21729 5.16555 3.83303 4.44831C4.44878 3.73107 5.22997 3.17461 6.10904 2.82704ZM1.93904 8.72804C1.87535 8.72804 1.81228 8.7155 1.75344 8.69112C1.6946 8.66675 1.64113 8.63102 1.59609 8.58599C1.55106 8.54095 1.51533 8.48748 1.49096 8.42864C1.46659 8.3698 1.45404 8.30673 1.45404 8.24304C1.45404 8.17935 1.46659 8.11628 1.49096 8.05744C1.51533 7.9986 1.55106 7.94513 1.59609 7.90009C1.64113 7.85506 1.6946 7.81933 1.75344 7.79496C1.81228 7.77059 1.87535 7.75804 1.93904 7.75804C2.06767 7.75804 2.19103 7.80914 2.28199 7.90009C2.37294 7.99105 2.42404 8.11441 2.42404 8.24304C2.42404 8.37167 2.37294 8.49503 2.28199 8.58599C2.19103 8.67694 2.06767 8.72804 1.93904 8.72804ZM8.24254 13.0915C7.97205 13.0924 7.70717 13.1687 7.47762 13.3118C7.24807 13.4548 7.06295 13.6591 6.94304 13.9015C6.02242 13.692 5.16662 13.2615 4.44945 12.6474C3.73229 12.0333 3.1753 11.2539 2.82654 10.3765L1.93954 10.735C2.35171 11.7773 3.01546 12.7013 3.87159 13.4247C4.72772 14.148 5.7496 14.6482 6.84604 14.8805C6.90903 15.1475 7.04617 15.3912 7.24167 15.5835C7.43716 15.7759 7.68304 15.9091 7.95096 15.9677C8.21888 16.0264 8.49792 16.0081 8.75591 15.9151C9.0139 15.822 9.24033 15.6579 9.40909 15.4417C9.57786 15.2255 9.68208 14.966 9.70974 14.6932C9.7374 14.4203 9.68738 14.1452 9.56544 13.8995C9.4435 13.6538 9.25461 13.4476 9.02054 13.3047C8.78648 13.1617 8.51678 13.0878 8.24254 13.0915ZM8.24254 15.031C8.11391 15.031 7.99055 14.9799 7.8996 14.889C7.80864 14.798 7.75754 14.6747 7.75754 14.546C7.75754 14.4174 7.80864 14.294 7.8996 14.2031C7.99055 14.1121 8.11391 14.061 8.24254 14.061C8.37117 14.061 8.49453 14.1121 8.58549 14.2031C8.67644 14.294 8.72754 14.4174 8.72754 14.546C8.72754 14.6747 8.67644 14.798 8.58549 14.889C8.49453 14.9799 8.37117 15.031 8.24254 15.031ZM16 8.24254C16.0009 7.98293 15.9323 7.72782 15.8014 7.50366C15.6704 7.27949 15.4819 7.09445 15.2553 6.96772C15.0288 6.84099 14.7724 6.77719 14.5129 6.78293C14.2533 6.78867 14 6.86376 13.7793 7.00039C13.5585 7.13702 13.3784 7.33022 13.2575 7.55996C13.1366 7.7897 13.0793 8.0476 13.0917 8.30691C13.1041 8.56622 13.1856 8.8175 13.3278 9.03469C13.4701 9.25187 13.6678 9.42704 13.9005 9.54204C13.6909 10.4626 13.2604 11.3183 12.6463 12.0353C12.0322 12.7524 11.2529 13.3093 10.3755 13.658L10.7345 14.5455C11.7768 14.1334 12.7008 13.4696 13.4242 12.6135C14.1475 11.7574 14.6477 10.7355 14.88 9.63904C15.1957 9.56439 15.4773 9.38643 15.6802 9.13342C15.8831 8.8804 15.9957 8.56684 16 8.24254ZM14.545 8.72754C14.4164 8.72754 14.2931 8.67644 14.2021 8.58549C14.1111 8.49453 14.06 8.37117 14.06 8.24254C14.06 8.11391 14.1111 7.99055 14.2021 7.89959C14.2931 7.80864 14.4164 7.75754 14.545 7.75754C14.6737 7.75754 14.797 7.80864 14.888 7.89959C14.9789 7.99055 15.03 8.11391 15.03 8.24254C15.03 8.37117 14.9789 8.49453 14.888 8.58549C14.797 8.67644 14.6737 8.72754 14.545 8.72754Z" fill="#666666"/>
<path d="M9.59536 8.17483C9.87122 7.90546 10.0605 7.55998 10.1391 7.18251C10.2177 6.80504 10.182 6.41271 10.0366 6.05563C9.89119 5.69854 9.64263 5.3929 9.32269 5.17774C9.00274 4.96257 8.62592 4.84766 8.24036 4.84766C7.8548 4.84766 7.47798 4.96257 7.15803 5.17774C6.83809 5.3929 6.58953 5.69854 6.44411 6.05563C6.29868 6.41271 6.26299 6.80504 6.34158 7.18251C6.42018 7.55998 6.6095 7.90546 6.88536 8.17483C6.55707 8.39673 6.28816 8.69569 6.10215 9.04557C5.91614 9.39545 5.8187 9.78558 5.81836 10.1818V11.1513H10.6669V10.1813C10.666 9.78467 10.5679 9.39428 10.3811 9.04437C10.1943 8.69446 9.92448 8.39622 9.59536 8.17483ZM7.27286 6.78733C7.27286 6.65995 7.29795 6.53381 7.3467 6.41613C7.39544 6.29844 7.46689 6.19151 7.55697 6.10143C7.64704 6.01136 7.75397 5.93991 7.87166 5.89117C7.98934 5.84242 8.11548 5.81733 8.24286 5.81733C8.37024 5.81733 8.49638 5.84242 8.61406 5.89117C8.73175 5.93991 8.83868 6.01136 8.92875 6.10143C9.01883 6.19151 9.09028 6.29844 9.13902 6.41613C9.18777 6.53381 9.21286 6.65995 9.21286 6.78733C9.21286 7.04459 9.11066 7.29131 8.92875 7.47322C8.74684 7.65513 8.50012 7.75733 8.24286 7.75733C7.9856 7.75733 7.73888 7.65513 7.55697 7.47322C7.37506 7.29131 7.27286 7.04459 7.27286 6.78733ZM6.78786 10.1813C6.78428 9.98802 6.81926 9.79593 6.89075 9.6163C6.96225 9.43666 7.06884 9.27307 7.20428 9.1351C7.33972 8.99712 7.5013 8.88752 7.67958 8.81271C7.85786 8.73789 8.04927 8.69936 8.24261 8.69936C8.43595 8.69936 8.62736 8.73789 8.80564 8.81271C8.98392 8.88752 9.1455 8.99712 9.28094 9.1351C9.41638 9.27307 9.52297 9.43666 9.59447 9.6163C9.66596 9.79593 9.70094 9.98802 9.69736 10.1813H6.78786Z" fill="#666666"/>
</svg>
