<svg width="32" height="32" viewBox="0 0 32 32" fill="none" xmlns="http://www.w3.org/2000/svg">
<path d="M29.3337 16.6674C29.3337 16.0128 29.3271 14.6901 29.3124 14.0328C29.2257 9.9461 29.1817 7.9021 27.6737 6.38876C26.1657 4.8741 24.0671 4.8221 19.8684 4.71676C17.2901 4.6517 14.7107 4.6517 12.1324 4.71676C7.93373 4.8221 5.83507 4.8741 4.32707 6.38876C2.81907 7.9021 2.77507 9.9461 2.68707 14.0328C2.659 15.3446 2.659 16.6569 2.68707 17.9688C2.77507 22.0554 2.81907 24.0994 4.32707 25.6128C5.83507 27.1274 7.93373 27.1794 12.1324 27.2848C13.2026 27.3114 14.2697 27.3274 15.3337 27.3328" stroke="#666666" stroke-width="2" stroke-linecap="round" stroke-linejoin="round"/>
<path d="M2.66699 8L11.8843 13.2333C15.2523 15.144 16.7483 15.144 20.1163 13.2333L29.3337 8" stroke="#666666" stroke-width="2" stroke-linejoin="round"/>
<path d="M29.3337 23.3333H18.667M29.3337 23.3333C29.3337 22.4 26.675 20.656 26.0003 20M29.3337 23.3333C29.3337 24.2667 26.675 26.012 26.0003 26.6667" stroke="#666666" stroke-width="2" stroke-linecap="round" stroke-linejoin="round"/>
</svg>
