<svg width="24" height="24" viewBox="0 0 24 24" fill="none" xmlns="http://www.w3.org/2000/svg">
<rect width="24" height="24" rx="12" fill="#EDF8F7"/>
<path d="M15.5 8.5C15.5 9.42826 15.1313 10.3185 14.4749 10.9749C13.8185 11.6313 12.9283 12 12 12C11.0717 12 10.1815 11.6313 9.52513 10.9749C8.86875 10.3185 8.5 9.42826 8.5 8.5C8.5 7.57174 8.86875 6.6815 9.52513 6.02513C10.1815 5.36875 11.0717 5 12 5C12.9283 5 13.8185 5.36875 14.4749 6.02513C15.1313 6.6815 15.5 7.57174 15.5 8.5ZM14.5 8.5C14.5 7.83696 14.2366 7.20107 13.7678 6.73223C13.2989 6.26339 12.663 6 12 6C11.337 6 10.7011 6.26339 10.2322 6.73223C9.76339 7.20107 9.5 7.83696 9.5 8.5C9.5 9.16304 9.76339 9.79893 10.2322 10.2678C10.7011 10.7366 11.337 11 12 11C12.663 11 13.2989 10.7366 13.7678 10.2678C14.2366 9.79893 14.5 9.16304 14.5 8.5ZM7.75 13C7.28587 13 6.84075 13.1844 6.51256 13.5126C6.18437 13.8408 6 14.2859 6 14.75V15C6 16.1965 6.7615 17.2085 7.8425 17.8965C8.9295 18.5885 10.401 19 12 19C13.599 19 15.07 18.5885 16.1575 17.8965C17.2385 17.2085 18 16.1965 18 15V14.75C18 14.2859 17.8156 13.8408 17.4874 13.5126C17.1592 13.1844 16.7141 13 16.25 13H7.75ZM7 14.75C7 14.5511 7.07902 14.3603 7.21967 14.2197C7.36032 14.079 7.55109 14 7.75 14H16.25C16.4489 14 16.6397 14.079 16.7803 14.2197C16.921 14.3603 17 14.5511 17 14.75V15C17 15.7365 16.53 16.4745 15.6205 17.053C14.717 17.628 13.4385 18 12 18C10.5615 18 9.283 17.628 8.3795 17.053C7.4695 16.475 7 15.736 7 15V14.75Z" fill="#2E2E2E"/>
</svg>
