<svg width="24" height="24" viewBox="0 0 24 24" fill="none" xmlns="http://www.w3.org/2000/svg">
<path d="M3.179 15.362L4.214 4.48999H8.964L9.836 13.639M8.005 0.878995C9.03722 0.859326 10.0607 1.07154 11 1.49999C18.429 4.67199 21.5 0.759995 21.5 0.759995M0.75 23.24H23.25V11.6C23.2497 11.4308 23.2107 11.2639 23.1361 11.1121C23.0614 10.9602 22.953 10.8275 22.8192 10.7239C22.6854 10.6204 22.5296 10.5488 22.3639 10.5147C22.1982 10.4806 22.0269 10.4848 21.863 10.527L1.5 15.8C1.2854 15.8556 1.09538 15.981 0.959804 16.1564C0.824225 16.3318 0.750775 16.5473 0.751 16.769L0.75 23.24Z" stroke="#2E2E2E" stroke-width="1.5" stroke-linecap="round" stroke-linejoin="round"/>
<path d="M11.25 19.24H9.75M6.25 19.24H4.75M19.75 23.241H14.75V18.741C14.75 18.4758 14.8554 18.2214 15.0429 18.0339C15.2304 17.8464 15.4848 17.741 15.75 17.741H18.75C19.0152 17.741 19.2696 17.8464 19.4571 18.0339C19.6446 18.2214 19.75 18.4758 19.75 18.741V23.241Z" stroke="#2E2E2E" stroke-width="1.5" stroke-linecap="round" stroke-linejoin="round"/>
</svg>
