<svg width="24" height="24" viewBox="0 0 24 24" fill="none" xmlns="http://www.w3.org/2000/svg">
<path d="M5.8429 4.568C7.48072 2.95847 9.68799 2.06102 11.9843 2.07097C14.2805 2.08093 16.4799 2.99749 18.1037 4.62116C19.7275 6.24482 20.6443 8.44415 20.6544 10.7404C20.6646 13.0367 19.7673 15.2441 18.1579 16.882L16.9699 18.056C16.0952 18.9147 14.9599 20.019 13.5639 21.369C13.1442 21.7746 12.5833 22.0012 11.9997 22.001C11.4161 22.0008 10.8553 21.7738 10.4359 21.368L6.9449 17.972C6.50624 17.5413 6.1389 17.178 5.8429 16.882C4.21062 15.2487 3.2937 13.0341 3.2937 10.725C3.2937 8.41589 4.21062 6.20128 5.8429 4.568ZM17.0959 5.63C16.4283 4.95327 15.6335 4.41529 14.7572 4.04703C13.8808 3.67878 12.9403 3.48752 11.9897 3.48428C11.0392 3.48103 10.0973 3.66587 9.2185 4.02814C8.33966 4.39041 7.54118 4.92296 6.86902 5.59512C6.19686 6.26727 5.66432 7.06576 5.30204 7.94459C4.93977 8.82343 4.75494 9.76525 4.75818 10.7158C4.76142 11.6664 4.95268 12.6069 5.32094 13.4833C5.68919 14.3596 6.22717 15.1544 6.9039 15.822L8.3909 17.289C9.41735 18.292 10.4467 19.292 11.4789 20.289C11.6188 20.4243 11.8058 20.5 12.0004 20.5C12.195 20.5 12.382 20.4243 12.5219 20.289L15.9159 16.989C16.3859 16.529 16.7792 16.14 17.0959 15.822C18.4474 14.4704 19.2067 12.6374 19.2067 10.726C19.2067 8.81464 18.4474 6.98156 17.0959 5.63ZM12.0009 7.5C12.4606 7.50013 12.9158 7.5908 13.3404 7.76684C13.7651 7.94288 14.1509 8.20083 14.4758 8.52598C14.8008 8.85112 15.0585 9.23709 15.2343 9.66184C15.4101 10.0866 15.5005 10.5418 15.5004 11.0015C15.5003 11.4612 15.4096 11.9164 15.2336 12.341C15.0575 12.7657 14.7996 13.1515 14.4744 13.4764C14.1493 13.8014 13.7633 14.0591 13.3386 14.2349C12.9138 14.4107 12.4586 14.5011 11.9989 14.501C11.0705 14.5007 10.1803 14.1317 9.52397 13.475C8.86768 12.8184 8.49914 11.9279 8.4994 10.9995C8.49967 10.0711 8.86872 9.18085 9.52538 8.52456C10.182 7.86828 11.0725 7.49973 12.0009 7.5ZM11.9999 9C11.4695 9 10.9608 9.21071 10.5857 9.58578C10.2106 9.96086 9.9999 10.4696 9.9999 11C9.9999 11.5304 10.2106 12.0391 10.5857 12.4142C10.9608 12.7893 11.4695 13 11.9999 13C12.5303 13 13.039 12.7893 13.4141 12.4142C13.7892 12.0391 13.9999 11.5304 13.9999 11C13.9999 10.4696 13.7892 9.96086 13.4141 9.58578C13.039 9.21071 12.5303 9 11.9999 9Z" fill="#2E2E2E"/>
</svg>
