<svg width="15" height="15" viewBox="0 0 15 15" fill="none" xmlns="http://www.w3.org/2000/svg">
<path d="M12.5 10C12.6326 10 12.7598 10.0527 12.8536 10.1465C12.9473 10.2402 13 10.3674 13 10.5V12C13 12.5303 12.7894 13.0388 12.4146 13.4139C12.0397 13.7889 11.5313 13.9998 11.001 14H3.996C3.73358 13.9999 3.47376 13.948 3.2314 13.8474C2.98903 13.7468 2.76887 13.5994 2.5835 13.4137C2.39812 13.228 2.25118 13.0075 2.15106 12.7649C2.05094 12.5224 1.99961 12.2624 2 12V10.5C2 10.3674 2.05268 10.2402 2.14645 10.1465C2.24022 10.0527 2.36739 10 2.5 10C2.63261 10 2.75979 10.0527 2.85356 10.1465C2.94732 10.2402 3 10.3674 3 10.5V12C3 12.554 3.446 13 3.996 13H11.001C11.266 12.9998 11.5201 12.8943 11.7075 12.7068C11.8948 12.5193 12 12.2651 12 12V10.5C12 10.3674 12.0527 10.2402 12.1464 10.1465C12.2402 10.0527 12.3674 10 12.5 10ZM7.182 1.18202C7.26638 1.09775 7.38075 1.05042 7.5 1.05042C7.61925 1.05042 7.73363 1.09775 7.818 1.18202L10.818 4.18202C10.9025 4.26636 10.95 4.3808 10.9501 4.50017C10.9502 4.61953 10.9028 4.73405 10.8185 4.81852C10.7342 4.90299 10.6197 4.9505 10.5004 4.95059C10.381 4.95069 10.2665 4.90336 10.182 4.81902L7.95 2.58602V9.50002C7.95 9.61937 7.90259 9.73383 7.8182 9.81822C7.73381 9.90261 7.61935 9.95002 7.5 9.95002C7.38065 9.95002 7.2662 9.90261 7.1818 9.81822C7.09741 9.73383 7.05 9.61937 7.05 9.50002V2.58602L4.818 4.82002C4.73353 4.90436 4.61902 4.95169 4.49965 4.95159C4.38028 4.9515 4.26584 4.90399 4.1815 4.81952C4.09716 4.73505 4.04984 4.62053 4.04993 4.50117C4.05002 4.3818 4.09753 4.26736 4.182 4.18302L7.182 1.18202Z" fill="#666666"/>
</svg>
