<svg width="24" height="24" viewBox="0 0 24 24" fill="none" xmlns="http://www.w3.org/2000/svg">
<path d="M14.4803 2.4075C14.3642 1.90637 14.0748 1.46237 13.6632 1.15385C13.2516 0.845319 12.7442 0.692095 12.2306 0.721214C11.717 0.750333 11.2302 0.959922 10.8561 1.313C10.482 1.66607 10.2447 2.13994 10.1859 2.65098C10.1272 3.16202 10.2508 3.67739 10.5351 4.10614C10.8193 4.53489 11.2458 4.84946 11.7394 4.99435C12.233 5.13924 12.7619 5.10513 13.2328 4.89805C13.7037 4.69096 14.0863 4.32421 14.3131 3.8625C15.6938 4.17691 16.9773 4.82247 18.0529 5.7435C19.1285 6.66453 19.9639 7.83338 20.4871 9.14925L21.8183 8.62575C21.2021 7.065 20.2098 5.68068 18.9296 4.59585C17.6494 3.51102 16.121 2.7593 14.4803 2.4075ZM12.3638 3.636C12.2664 3.63913 12.1693 3.62264 12.0783 3.58751C11.9874 3.55237 11.9044 3.49932 11.8344 3.43149C11.7643 3.36366 11.7086 3.28244 11.6706 3.19266C11.6326 3.10289 11.613 3.00638 11.613 2.90887C11.613 2.81137 11.6326 2.71486 11.6706 2.62509C11.7086 2.53531 11.7643 2.45409 11.8344 2.38626C11.9044 2.31843 11.9874 2.26538 12.0783 2.23024C12.1693 2.19511 12.2664 2.17862 12.3638 2.18175C12.5568 2.18175 12.7418 2.2584 12.8782 2.39483C13.0147 2.53126 13.0913 2.7163 13.0913 2.90925C13.0913 3.10219 13.0147 3.28724 12.8782 3.42367C12.7418 3.5601 12.5568 3.636 12.3638 3.636ZM9.16356 4.2405L8.62581 2.91C7.06506 3.52624 5.68074 4.51855 4.59591 5.79873C3.51109 7.07891 2.75936 8.60729 2.40756 10.248C1.90644 10.3641 1.46243 10.6535 1.15391 11.0651C0.84538 11.4768 0.692156 11.9841 0.721275 12.4977C0.750394 13.0113 0.959983 13.4981 1.31306 13.8722C1.66613 14.2463 2.14 14.4836 2.65104 14.5424C3.16208 14.6011 3.67745 14.4775 4.1062 14.1932C4.53495 13.909 4.84952 13.4825 4.99441 12.9889C5.1393 12.4953 5.1052 11.9664 4.89811 11.4955C4.69102 11.0247 4.32427 10.6421 3.86256 10.4152C4.17826 9.0329 4.82593 7.74826 5.74955 6.6724C6.67317 5.59654 7.84495 4.76185 9.16356 4.2405ZM2.90856 13.092C2.81302 13.092 2.71842 13.0732 2.63016 13.0366C2.5419 13.0001 2.4617 12.9465 2.39414 12.8789C2.32659 12.8114 2.273 12.7312 2.23644 12.6429C2.19988 12.5546 2.18106 12.46 2.18106 12.3645C2.18106 12.269 2.19988 12.1744 2.23644 12.0861C2.273 11.9978 2.32659 11.9176 2.39414 11.8501C2.4617 11.7825 2.5419 11.7289 2.63016 11.6924C2.71842 11.6558 2.81302 11.637 2.90856 11.637C3.10151 11.637 3.28655 11.7136 3.42298 11.8501C3.55941 11.9865 3.63606 12.1716 3.63606 12.3645C3.63606 12.5574 3.55941 12.7425 3.42298 12.8789C3.28655 13.0154 3.10151 13.092 2.90856 13.092ZM12.3638 19.6372C11.9581 19.6386 11.5607 19.753 11.2164 19.9676C10.8721 20.1822 10.5944 20.4886 10.4146 20.8522C9.03364 20.5379 7.74993 19.8923 6.67418 18.9711C5.59843 18.0499 4.76295 16.8808 4.23981 15.5647L2.90931 16.1025C3.52756 17.6659 4.5232 19.0519 5.80739 20.1369C7.09159 21.222 8.6244 21.9722 10.2691 22.3207C10.3635 22.7211 10.5693 23.0867 10.8625 23.3752C11.1557 23.6638 11.5246 23.8636 11.9264 23.9515C12.3283 24.0395 12.7469 24.0121 13.1339 23.8725C13.5209 23.7329 13.8605 23.4868 14.1136 23.1625C14.3668 22.8382 14.5231 22.449 14.5646 22.0397C14.6061 21.6304 14.5311 21.2177 14.3482 20.8492C14.1652 20.4807 13.8819 20.1714 13.5308 19.957C13.1797 19.7425 12.7752 19.6317 12.3638 19.6372ZM12.3638 22.5465C12.1709 22.5465 11.9858 22.4699 11.8494 22.3334C11.713 22.197 11.6363 22.0119 11.6363 21.819C11.6363 21.6261 11.713 21.441 11.8494 21.3046C11.9858 21.1681 12.1709 21.0915 12.3638 21.0915C12.5568 21.0915 12.7418 21.1681 12.8782 21.3046C13.0147 21.441 13.0913 21.6261 13.0913 21.819C13.0913 22.0119 13.0147 22.197 12.8782 22.3334C12.7418 22.4699 12.5568 22.5465 12.3638 22.5465ZM24.0001 12.3637C24.0014 11.9743 23.8985 11.5917 23.7021 11.2554C23.5057 10.9192 23.2229 10.6416 22.883 10.4515C22.5431 10.2614 22.1586 10.1657 21.7693 10.1743C21.38 10.183 21 10.2956 20.6689 10.5005C20.3378 10.7055 20.0676 10.9953 19.8862 11.3399C19.7049 11.6845 19.619 12.0713 19.6376 12.4603C19.6561 12.8493 19.7784 13.2262 19.9917 13.552C20.2051 13.8777 20.5017 14.1405 20.8508 14.313C20.5363 15.6938 19.8907 16.9773 18.9695 18.053C18.0483 19.1286 16.8793 19.9639 15.5633 20.487L16.1018 21.8182C17.6652 21.2 19.0512 20.2044 20.1363 18.9202C21.2213 17.636 21.9715 16.1032 22.3201 14.4585C22.7935 14.3465 23.216 14.0796 23.5203 13.7001C23.8247 13.3205 23.9936 12.8502 24.0001 12.3637ZM21.8176 13.0912C21.6246 13.0912 21.4396 13.0146 21.3031 12.8782C21.1667 12.7417 21.0901 12.5567 21.0901 12.3637C21.0901 12.1708 21.1667 11.9858 21.3031 11.8493C21.4396 11.7129 21.6246 11.6362 21.8176 11.6362C22.0105 11.6362 22.1956 11.7129 22.332 11.8493C22.4684 11.9858 22.5451 12.1708 22.5451 12.3637C22.5451 12.5567 22.4684 12.7417 22.332 12.8782C22.1956 13.0146 22.0105 13.0912 21.8176 13.0912Z" fill="#666666"/>
<path d="M14.3926 12.2625C14.8063 11.8584 15.0903 11.3402 15.2082 10.774C15.3261 10.2078 15.2726 9.61932 15.0544 9.08368C14.8363 8.54805 14.4635 8.08959 13.9835 7.76685C13.5036 7.44411 12.9384 7.27173 12.3601 7.27173C11.7817 7.27173 11.2165 7.44411 10.7366 7.76685C10.2566 8.08959 9.88381 8.54805 9.66567 9.08368C9.44753 9.61932 9.39399 10.2078 9.51189 10.774C9.62978 11.3402 9.91376 11.8584 10.3276 12.2625C9.83512 12.5953 9.43175 13.0438 9.15273 13.5686C8.87372 14.0934 8.72756 14.6786 8.72705 15.273V16.7272H15.9998V15.2722C15.9985 14.6773 15.8514 14.0917 15.5711 13.5668C15.2909 13.0419 14.8862 12.5946 14.3926 12.2625ZM10.9088 10.1812C10.9088 9.99016 10.9464 9.80096 11.0196 9.62443C11.0927 9.4479 11.1999 9.28751 11.335 9.1524C11.4701 9.01729 11.6305 8.91011 11.807 8.83699C11.9835 8.76387 12.1727 8.72624 12.3638 8.72624C12.5549 8.72624 12.7441 8.76387 12.9206 8.83699C13.0971 8.91011 13.2575 9.01729 13.3926 9.1524C13.5278 9.28751 13.6349 9.4479 13.708 9.62443C13.7812 9.80096 13.8188 9.99016 13.8188 10.1812C13.8188 10.5671 13.6655 10.9372 13.3926 11.2101C13.1198 11.4829 12.7497 11.6362 12.3638 11.6362C11.9779 11.6362 11.6078 11.4829 11.335 11.2101C11.0621 10.9372 10.9088 10.5671 10.9088 10.1812ZM10.1813 15.2722C10.1759 14.9823 10.2284 14.6941 10.3356 14.4247C10.4429 14.1552 10.6028 13.9099 10.8059 13.7029C11.0091 13.4959 11.2515 13.3315 11.5189 13.2193C11.7863 13.1071 12.0734 13.0493 12.3634 13.0493C12.6534 13.0493 12.9405 13.1071 13.208 13.2193C13.4754 13.3315 13.7178 13.4959 13.9209 13.7029C14.1241 13.9099 14.284 14.1552 14.3912 14.4247C14.4985 14.6941 14.5509 14.9823 14.5456 15.2722H10.1813Z" fill="#666666"/>
</svg>
