<svg width="24" height="24" viewBox="0 0 24 24" fill="none" xmlns="http://www.w3.org/2000/svg">
<path d="M5.47092 6.01467V18.5287C5.47079 18.886 5.54108 19.2399 5.67778 19.5701C5.81447 19.9003 6.0149 20.2003 6.26759 20.453C6.52029 20.7057 6.8203 20.9061 7.15048 21.0428C7.48067 21.1795 7.83456 21.2498 8.19192 21.2497H15.8099C16.5313 21.2497 17.2232 20.9631 17.7333 20.453C18.2434 19.9429 18.5299 19.2511 18.5299 18.5297V6.01367M3.29492 6.01467H20.7069" stroke="#2E2E2E" stroke-width="1.5" stroke-linecap="round" stroke-linejoin="round"/>
<path d="M8.73633 6.015V4.382C8.73607 4.16753 8.77813 3.95511 8.86012 3.75692C8.9421 3.55873 9.06239 3.37867 9.2141 3.22706C9.3658 3.07545 9.54593 2.95527 9.74417 2.87341C9.94241 2.79154 10.1549 2.74961 10.3693 2.75H13.6333C13.8478 2.74961 14.0603 2.79154 14.2585 2.87341C14.4567 2.95527 14.6369 3.07545 14.7886 3.22706C14.9403 3.37867 15.0606 3.55873 15.1425 3.75692C15.2245 3.95511 15.2666 4.16753 15.2663 4.382V6.015M9.82533 16.992V11.553M14.1783 16.992V11.553" stroke="#2E2E2E" stroke-width="1.5" stroke-linecap="round" stroke-linejoin="round"/>
</svg>
