<svg width="24" height="24" viewBox="0 0 24 24" fill="none" xmlns="http://www.w3.org/2000/svg">
<path d="M6 20.0008C5.45 20.0008 4.97933 19.8051 4.588 19.4138C4.19667 19.0225 4.00067 18.5515 4 18.0008V16.0008C4 15.7175 4.096 15.4801 4.288 15.2888C4.48 15.0975 4.71733 15.0015 5 15.0008C5.28267 15.0001 5.52033 15.0961 5.713 15.2888C5.90567 15.4815 6.00133 15.7188 6 16.0008V18.0008H18V16.0008C18 15.7175 18.096 15.4801 18.288 15.2888C18.48 15.0975 18.7173 15.0015 19 15.0008C19.2827 15.0001 19.5203 15.0961 19.713 15.2888C19.9057 15.4815 20.0013 15.7188 20 16.0008V18.0008C20 18.5508 19.8043 19.0218 19.413 19.4138C19.0217 19.8058 18.5507 20.0015 18 20.0008H6ZM11 7.8508L9.125 9.7258C8.925 9.9258 8.68767 10.0218 8.413 10.0138C8.13833 10.0058 7.90067 9.90146 7.7 9.7008C7.51667 9.5008 7.42067 9.26746 7.412 9.0008C7.40333 8.73413 7.49933 8.5008 7.7 8.3008L11.3 4.7008C11.4 4.6008 11.5083 4.53013 11.625 4.4888C11.7417 4.44746 11.8667 4.42646 12 4.4258C12.1333 4.42513 12.2583 4.44613 12.375 4.4888C12.4917 4.53146 12.6 4.60213 12.7 4.7008L16.3 8.3008C16.5 8.5008 16.596 8.73413 16.588 9.0008C16.58 9.26746 16.484 9.5008 16.3 9.7008C16.1 9.9008 15.8627 10.0051 15.588 10.0138C15.3133 10.0225 15.0757 9.92646 14.875 9.7258L13 7.8508V15.0008C13 15.2841 12.904 15.5218 12.712 15.7138C12.52 15.9058 12.2827 16.0015 12 16.0008C11.7173 16.0001 11.48 15.9041 11.288 15.7128C11.096 15.5215 11 15.2841 11 15.0008V7.8508Z" fill="#2E2E2E"/>
</svg>
