<svg width="24" height="24" viewBox="0 0 24 24" fill="none" xmlns="http://www.w3.org/2000/svg">
<path d="M5 10V7.914C5.00006 7.64881 5.10545 7.39449 5.293 7.207L9.207 3.293C9.39449 3.10545 9.6488 3.00006 9.914 3H18C18.2652 3 18.5196 3.10536 18.7071 3.29289C18.8946 3.48043 19 3.73478 19 4V10M5 19V20C5 20.2652 5.10536 20.5196 5.29289 20.7071C5.48043 20.8946 5.73478 21 6 21H18C18.2652 21 18.5196 20.8946 18.7071 20.7071C18.8946 20.5196 19 20.2652 19 20V19M10 3V7C10 7.26522 9.89464 7.51957 9.70711 7.70711C9.51957 7.89464 9.26522 8 9 8H5M7.665 17H6.647C6.21019 17 5.79127 16.8265 5.4824 16.5176C5.17352 16.2087 5 15.7898 5 15.353V13.647C5 13.2102 5.17352 12.7913 5.4824 12.4824C5.79127 12.1735 6.21019 12 6.647 12H7.665M16 12L17.443 16.773L19 12M12.943 11.848L12 11.828C11.6612 11.8218 11.3326 11.9443 11.0805 12.1706C10.8283 12.397 10.6713 12.7105 10.641 13.048C10.6126 13.3909 10.7193 13.7313 10.9382 13.9967C11.1571 14.2621 11.471 14.4316 11.813 14.469L12.349 14.528C12.5573 14.5225 12.7638 14.5683 12.9503 14.6612C13.1368 14.7542 13.2976 14.8915 13.4187 15.0611C13.5397 15.2307 13.6173 15.4275 13.6445 15.6341C13.6718 15.8407 13.6479 16.0508 13.575 16.246C13.375 16.817 12.939 17 12.238 17H11.108" stroke="#666666" stroke-width="1.5" stroke-linecap="round" stroke-linejoin="round"/>
</svg>
