<svg width="20" height="20" viewBox="0 0 20 20" fill="none" xmlns="http://www.w3.org/2000/svg">
<path d="M8.00065 12.391L8.59065 11.791L6.79898 9.99935L8.59065 8.20768L8.00065 7.60768L5.60898 9.99935L8.00065 12.391ZM12.0007 12.391L14.3923 9.99935L12.0007 7.60768L11.4107 8.20768L13.2023 9.99935L11.4107 11.791L12.0007 12.391ZM4.68065 16.666C4.30732 16.666 3.98954 16.5349 3.72732 16.2727C3.4651 16.0105 3.33398 15.693 3.33398 15.3202V4.67852C3.33398 4.30629 3.4651 3.98879 3.72732 3.72602C3.98954 3.46379 4.30732 3.33268 4.68065 3.33268H8.59732C8.52121 2.90713 8.62287 2.52296 8.90232 2.18018C9.18121 1.8374 9.54732 1.66602 10.0007 1.66602C10.4645 1.66602 10.8362 1.8374 11.1157 2.18018C11.3951 2.52296 11.4915 2.90713 11.4048 3.33268H15.3215C15.6937 3.33268 16.0112 3.46379 16.274 3.72602C16.5362 3.98824 16.6673 4.30602 16.6673 4.67935V15.3202C16.6673 15.6924 16.5362 16.0099 16.274 16.2727C16.0118 16.5349 15.6943 16.666 15.3215 16.666H4.68065ZM4.68065 15.8327H15.3215C15.4493 15.8327 15.5668 15.7793 15.674 15.6727C15.7812 15.566 15.8345 15.4482 15.834 15.3193V4.67935C15.834 4.55102 15.7807 4.43324 15.674 4.32602C15.5673 4.21879 15.4495 4.16546 15.3207 4.16602H4.68065C4.55232 4.16602 4.43454 4.21935 4.32732 4.32602C4.2201 4.43268 4.16676 4.55046 4.16732 4.67935V15.3202C4.16732 15.448 4.22065 15.5655 4.32732 15.6727C4.43398 15.7799 4.55148 15.8332 4.67982 15.8327M10.0007 3.70102C10.1812 3.70102 10.3307 3.64213 10.449 3.52435C10.5673 3.40657 10.6262 3.25713 10.6257 3.07602C10.6251 2.8949 10.5659 2.74574 10.4482 2.62852C10.3304 2.51129 10.1812 2.45213 10.0007 2.45102C9.8201 2.4499 9.67093 2.50907 9.55315 2.62852C9.43537 2.74796 9.37621 2.89713 9.37565 3.07602C9.3751 3.2549 9.43426 3.40435 9.55315 3.52435C9.67204 3.64435 9.82121 3.70324 10.0007 3.70102Z" fill="#2E2E2E"/>
</svg>
