<svg width="20" height="20" viewBox="0 0 20 20" fill="none" xmlns="http://www.w3.org/2000/svg">
<path d="M8.83301 15.833C8.83309 15.5238 8.95619 15.2275 9.1748 15.0088C9.3936 14.79 9.69058 14.667 10 14.667C10.3093 14.6671 10.6055 14.7901 10.8242 15.0088C11.0429 15.2275 11.1659 15.5237 11.166 15.833C11.166 16.1424 11.043 16.4394 10.8242 16.6582C10.6055 16.8768 10.3092 16.9999 10 17C9.69058 17 9.3936 16.877 9.1748 16.6582C8.95601 16.4394 8.83301 16.1424 8.83301 15.833ZM8.83301 10C8.83301 9.69058 8.95601 9.3936 9.1748 9.1748C9.39358 8.95611 9.69066 8.83301 10 8.83301C10.3091 8.83309 10.6055 8.95629 10.8242 9.1748C11.043 9.3936 11.166 9.69058 11.166 10C11.166 10.3094 11.043 10.6064 10.8242 10.8252C10.6055 11.0437 10.3091 11.1669 10 11.167C9.69066 11.167 9.39358 11.0439 9.1748 10.8252C8.95601 10.6064 8.83301 10.3094 8.83301 10ZM8.83301 4.16699C8.83301 3.85757 8.95601 3.56059 9.1748 3.3418C9.3936 3.123 9.69058 3 10 3C10.3092 3.00009 10.6055 3.12318 10.8242 3.3418C11.043 3.56059 11.166 3.85757 11.166 4.16699C11.1659 4.47629 11.0429 4.77249 10.8242 4.99121C10.6055 5.20993 10.3093 5.33292 10 5.33301C9.69058 5.33301 9.3936 5.21 9.1748 4.99121C8.95619 4.77251 8.83309 4.47622 8.83301 4.16699Z" fill="#2E2E2E" stroke="#999999"/>
</svg>
