<svg width="20" height="20" viewBox="0 0 20 20" fill="none" xmlns="http://www.w3.org/2000/svg">
<path d="M18.3193 8.33268C18.2885 7.24018 18.1852 6.54352 17.8352 5.94935C17.3368 5.10352 16.4402 4.63268 14.6477 3.69268L12.981 2.81768C11.5177 2.05018 10.786 1.66602 9.99935 1.66602C9.21268 1.66602 8.48102 2.04935 7.01768 2.81768L5.35102 3.69268C3.55852 4.63268 2.66185 5.10352 2.16352 5.94935C1.66602 6.79435 1.66602 7.84685 1.66602 9.95102V10.0485C1.66602 12.1518 1.66602 13.2043 2.16352 14.0493C2.66185 14.8952 3.55852 15.366 5.35102 16.3068L7.01768 17.181C8.48102 17.9485 9.21268 18.3327 9.99935 18.3327C10.786 18.3327 11.5177 17.9493 12.981 17.181L14.6477 16.306C16.4402 15.3652 17.3368 14.8952 17.8352 14.0493C18.1852 13.4552 18.2885 12.7585 18.3193 11.666M17.4993 6.24935L14.166 7.91602M14.166 7.91602L13.7493 8.12435L9.99935 9.99935M14.166 7.91602V10.8327M14.166 7.91602L6.24935 3.74935M9.99935 9.99935L2.49935 6.24935M9.99935 9.99935V17.916" stroke="#999999" stroke-width="1.5" stroke-linecap="round"/>
</svg>
