<svg width="20" height="20" viewBox="0 0 20 20" fill="none" xmlns="http://www.w3.org/2000/svg">
<path d="M7.4987 9.16732C8.41917 9.16732 9.16536 8.42113 9.16536 7.50065C9.16536 6.58018 8.41917 5.83398 7.4987 5.83398C6.57822 5.83398 5.83203 6.58018 5.83203 7.50065C5.83203 8.42113 6.57822 9.16732 7.4987 9.16732Z" stroke="#999999" stroke-width="1.2"/>
<path d="M10.8327 12.5007C10.8327 13.4215 10.8327 14.1673 7.49935 14.1673C4.16602 14.1673 4.16602 13.4215 4.16602 12.5007C4.16602 11.5798 5.65768 10.834 7.49935 10.834C9.34102 10.834 10.8327 11.5798 10.8327 12.5007Z" stroke="#999999" stroke-width="1.2"/>
<path d="M1.66602 10.0007C1.66602 6.85815 1.66602 5.28648 2.64268 4.31065C3.61935 3.33482 5.19018 3.33398 8.33268 3.33398H11.666C14.8085 3.33398 16.3802 3.33398 17.356 4.31065C18.3318 5.28732 18.3327 6.85815 18.3327 10.0007C18.3327 13.1432 18.3327 14.7148 17.356 15.6907C16.3793 16.6665 14.8085 16.6673 11.666 16.6673H8.33268C5.19018 16.6673 3.61852 16.6673 2.64268 15.6907C1.66685 14.714 1.66602 13.1432 1.66602 10.0007Z" stroke="#999999" stroke-width="1.2"/>
<path d="M15.8327 10H12.4993M15.8327 7.5H11.666M15.8327 12.5H13.3327" stroke="#999999" stroke-width="1.2" stroke-linecap="round"/>
</svg>
