<svg width="20" height="20" viewBox="0 0 20 20" fill="none" xmlns="http://www.w3.org/2000/svg">
<path d="M10 12.5C11.3807 12.5 12.5 11.3807 12.5 10C12.5 8.61929 11.3807 7.5 10 7.5C8.61929 7.5 7.5 8.61929 7.5 10C7.5 11.3807 8.61929 12.5 10 12.5Z" stroke="#999999" stroke-width="1.5"/>
<path d="M11.4702 1.79366C11.1644 1.66699 10.7761 1.66699 9.9994 1.66699C9.22273 1.66699 8.8344 1.66699 8.52857 1.79366C8.32622 1.87742 8.14236 2.00024 7.9875 2.1551C7.83265 2.30995 7.70983 2.49381 7.62607 2.69616C7.5494 2.88199 7.51857 3.09949 7.5069 3.41533C7.50147 3.6436 7.43824 3.86677 7.3231 4.06395C7.20797 4.26114 7.0447 4.4259 6.84857 4.54283C6.64924 4.6543 6.42489 4.71339 6.19651 4.71455C5.96813 4.71572 5.74319 4.65893 5.54273 4.54949C5.26273 4.40116 5.06023 4.31949 4.8594 4.29283C4.42133 4.23522 3.97832 4.35391 3.62773 4.62283C3.36607 4.82533 3.17107 5.16116 2.78273 5.83366C2.3944 6.50616 2.1994 6.84199 2.1569 7.17116C2.12826 7.3882 2.14267 7.60876 2.19929 7.82024C2.25591 8.03171 2.35364 8.22996 2.4869 8.40366C2.61023 8.56366 2.78273 8.69783 3.05023 8.86616C3.4444 9.11366 3.69773 9.53533 3.69773 10.0003C3.69773 10.4653 3.4444 10.887 3.05023 11.1337C2.78273 11.3028 2.6094 11.437 2.4869 11.597C2.35364 11.7707 2.25591 11.9689 2.19929 12.1804C2.14267 12.3919 2.12826 12.6124 2.1569 12.8295C2.20023 13.1578 2.3944 13.4945 2.7819 14.167C3.17107 14.8395 3.36523 15.1753 3.62773 15.3778C3.80143 15.5111 3.99968 15.6088 4.21115 15.6654C4.42263 15.7221 4.64319 15.7365 4.86023 15.7078C5.06023 15.6812 5.26273 15.5995 5.54273 15.4512C5.74319 15.3417 5.96813 15.2849 6.19651 15.2861C6.42489 15.2873 6.64924 15.3463 6.84857 15.4578C7.25107 15.6912 7.49023 16.1203 7.5069 16.5853C7.51857 16.902 7.54857 17.1187 7.62607 17.3045C7.70983 17.5068 7.83265 17.6907 7.9875 17.8456C8.14236 18.0004 8.32622 18.1232 8.52857 18.207C8.8344 18.3337 9.22273 18.3337 9.9994 18.3337C10.7761 18.3337 11.1644 18.3337 11.4702 18.207C11.6726 18.1232 11.8564 18.0004 12.0113 17.8456C12.1662 17.6907 12.289 17.5068 12.3727 17.3045C12.4494 17.1187 12.4802 16.902 12.4919 16.5853C12.5086 16.1203 12.7477 15.6903 13.1502 15.4578C13.3496 15.3463 13.5739 15.2873 13.8023 15.2861C14.0307 15.2849 14.2556 15.3417 14.4561 15.4512C14.7361 15.5995 14.9386 15.6812 15.1386 15.7078C15.3556 15.7365 15.5762 15.7221 15.7876 15.6654C15.9991 15.6088 16.1974 15.5111 16.3711 15.3778C16.6336 15.1762 16.8277 14.8395 17.2161 14.167C17.6044 13.4945 17.7994 13.1587 17.8419 12.8295C17.8705 12.6124 17.8561 12.3919 17.7995 12.1804C17.7429 11.9689 17.6452 11.7707 17.5119 11.597C17.3886 11.437 17.2161 11.3028 16.9486 11.1345C16.7535 11.0157 16.5918 10.8493 16.4785 10.6509C16.3653 10.4526 16.3042 10.2287 16.3011 10.0003C16.3011 9.53533 16.5544 9.11366 16.9486 8.86699C17.2161 8.69783 17.3894 8.56366 17.5119 8.40366C17.6452 8.22996 17.7429 8.03171 17.7995 7.82024C17.8561 7.60876 17.8705 7.3882 17.8419 7.17116C17.7986 6.84283 17.6044 6.50616 17.2169 5.83366C16.8277 5.16116 16.6336 4.82533 16.3711 4.62283C16.1974 4.48957 15.9991 4.39184 15.7876 4.33521C15.5762 4.27859 15.3556 4.26419 15.1386 4.29283C14.9386 4.31949 14.7361 4.40116 14.4552 4.54949C14.2549 4.65878 14.0301 4.71549 13.8019 4.71432C13.5737 4.71316 13.3495 4.65415 13.1502 4.54283C12.9541 4.4259 12.7908 4.26114 12.6757 4.06395C12.5606 3.86677 12.4973 3.6436 12.4919 3.41533C12.4802 3.09866 12.4502 2.88199 12.3727 2.69616C12.289 2.49381 12.1662 2.30995 12.0113 2.1551C11.8564 2.00024 11.6726 1.87742 11.4702 1.79366Z" stroke="#999999" stroke-width="1.5"/>
</svg>
