<svg width="16" height="16" viewBox="0 0 16 16" fill="none" xmlns="http://www.w3.org/2000/svg">
<path d="M8 10.667C9.10457 10.667 10 9.77156 10 8.66699C10 7.56242 9.10457 6.66699 8 6.66699C6.89543 6.66699 6 7.56242 6 8.66699C6 9.77156 6.89543 10.667 8 10.667Z" stroke="#666666" stroke-width="1.5"/>
<path d="M1.33398 8.90936C1.33398 6.86603 1.33398 5.8447 1.83332 5.11136C2.05036 4.79269 2.3281 4.51994 2.65065 4.3087C3.13065 3.99336 3.73198 3.8807 4.65265 3.8407C5.09198 3.8407 5.46998 3.51403 5.55598 3.0907C5.62171 2.78061 5.79247 2.50272 6.03942 2.304C6.28637 2.10527 6.59435 1.9979 6.91132 2.00003H9.08998C9.74865 2.00003 10.316 2.4567 10.4453 3.0907C10.5313 3.51403 10.9093 3.8407 11.3487 3.8407C12.2686 3.8807 12.87 3.99403 13.3507 4.3087C13.674 4.5207 13.952 4.79336 14.168 5.11136C14.6673 5.8447 14.6673 6.86603 14.6673 8.90936C14.6673 10.9527 14.6673 11.9734 14.168 12.7074C13.9509 13.026 13.6732 13.2988 13.3507 13.51C12.6033 14 11.5627 14 9.48198 14H6.51932C4.43865 14 3.39798 14 2.65065 13.51C2.32828 13.2985 2.05077 13.0255 1.83398 12.7067C1.68914 12.491 1.58248 12.2519 1.51865 12M12.6673 6.6667H12.0007" stroke="#666666" stroke-width="1.5" stroke-linecap="round"/>
</svg>
