<svg width="20" height="20" viewBox="0 0 20 20" fill="none" xmlns="http://www.w3.org/2000/svg">
<path d="M10 13.333C11.3807 13.333 12.5 12.2137 12.5 10.833C12.5 9.4523 11.3807 8.33301 10 8.33301C8.61929 8.33301 7.5 9.4523 7.5 10.833C7.5 12.2137 8.61929 13.333 10 13.333Z" stroke="#999999" stroke-width="1.5"/>
<path d="M1.66602 11.1367C1.66602 8.58254 1.66602 7.30587 2.29018 6.38921C2.56149 5.99087 2.90866 5.64992 3.31185 5.38587C3.91185 4.99171 4.66352 4.85087 5.81435 4.80087C6.36352 4.80087 6.83602 4.39254 6.94352 3.86337C7.02567 3.47576 7.23912 3.1284 7.54781 2.88C7.85649 2.63159 8.24147 2.49738 8.63768 2.50004H11.361C12.1843 2.50004 12.8935 3.07087 13.0552 3.86337C13.1627 4.39254 13.6352 4.80087 14.1843 4.80087C15.3343 4.85087 16.086 4.99254 16.6868 5.38587C17.091 5.65087 17.4385 5.99171 17.7085 6.38921C18.3327 7.30587 18.3327 8.58254 18.3327 11.1367C18.3327 13.6909 18.3327 14.9667 17.7085 15.8842C17.4372 16.2825 17.09 16.6235 16.6868 16.8875C15.7527 17.5 14.4518 17.5 11.851 17.5H8.14768C5.54685 17.5 4.24602 17.5 3.31185 16.8875C2.90888 16.6232 2.56199 16.2819 2.29102 15.8834C2.10997 15.6137 1.97663 15.3149 1.89685 15M15.8327 8.33337H14.9993" stroke="#999999" stroke-width="1.5" stroke-linecap="round"/>
</svg>
