<svg width="20" height="20" viewBox="0 0 20 20" fill="none" xmlns="http://www.w3.org/2000/svg">
<path d="M2.08398 4.16634V15.833C2.08398 16.054 2.17178 16.266 2.32806 16.4223C2.48434 16.5785 2.6963 16.6663 2.91732 16.6663H7.50065L6.25065 12.083L9.16732 11.2497L8.75065 8.33301L12.084 6.66634L11.2507 5.41634L12.5007 3.33301H2.91732C2.6963 3.33301 2.48434 3.42081 2.32806 3.57709C2.17178 3.73337 2.08398 3.94533 2.08398 4.16634ZM17.9173 15.833V4.16634C17.9173 3.94533 17.8295 3.73337 17.6732 3.57709C17.517 3.42081 17.305 3.33301 17.084 3.33301H15.834L14.1673 5.83301L15.4173 7.91634L11.6673 9.58301L12.084 12.9163L9.16732 13.7497L10.0007 16.6663H17.084C17.305 16.6663 17.517 16.5785 17.6732 16.4223C17.8295 16.266 17.9173 16.054 17.9173 15.833Z" stroke="#999999" stroke-width="1.3" stroke-linecap="round" stroke-linejoin="round"/>
<path d="M6.04297 7.5C6.20873 7.5 6.3677 7.43415 6.48491 7.31694C6.60212 7.19973 6.66797 7.04076 6.66797 6.875C6.66797 6.70924 6.60212 6.55027 6.48491 6.43306C6.3677 6.31585 6.20873 6.25 6.04297 6.25C5.87721 6.25 5.71824 6.31585 5.60103 6.43306C5.48382 6.55027 5.41797 6.70924 5.41797 6.875C5.41797 7.04076 5.48382 7.19973 5.60103 7.31694C5.71824 7.43415 5.87721 7.5 6.04297 7.5Z" stroke="#999999" stroke-width="1.3" stroke-linecap="round" stroke-linejoin="round"/>
</svg>
