<svg width="20" height="20" viewBox="0 0 20 20" fill="none" xmlns="http://www.w3.org/2000/svg">
<path d="M13.7363 7.59863C13.7687 7.5992 13.8003 7.61188 13.8232 7.63477C13.8461 7.65767 13.8588 7.6893 13.8594 7.72168C13.8599 7.7529 13.8478 7.78233 13.8271 7.80566L8.83789 12.7959C8.81447 12.8192 8.78302 12.832 8.75 12.832C8.71698 12.832 8.68552 12.8192 8.66211 12.7959L6.17188 10.3057C6.15152 10.2824 6.14014 10.2527 6.14062 10.2217C6.1412 10.1893 6.15386 10.1577 6.17676 10.1348C6.19966 10.1119 6.23129 10.0992 6.26367 10.0986C6.29466 10.0981 6.3244 10.1095 6.34766 10.1299L8.75 12.5322L9.10352 12.1787L13.6514 7.62988C13.6747 7.60921 13.7051 7.59816 13.7363 7.59863Z" fill="white" stroke="white"/>
<path d="M11.7791 1.00011L12.925 1.84178C13.1533 2.00928 13.4191 2.11928 13.6991 2.16178L15.105 2.37761C15.7377 2.47485 16.323 2.77141 16.7756 3.22418C17.2282 3.67695 17.5246 4.2623 17.6216 4.89511L17.8375 6.30011C17.88 6.58011 17.99 6.84594 18.1575 7.07428L18.9991 8.22011C19.378 8.73627 19.5823 9.35984 19.5823 10.0001C19.5823 10.6404 19.378 11.2639 18.9991 11.7801L18.1575 12.9259C17.9897 13.1543 17.8799 13.42 17.8375 13.7001L17.6216 15.1059C17.5244 15.7387 17.2278 16.324 16.7751 16.7766C16.3223 17.2292 15.7369 17.5256 15.1041 17.6226L13.6991 17.8384C13.419 17.8809 13.1533 17.9907 12.925 18.1584L11.7791 19.0001C11.263 19.379 10.6394 19.5832 9.99913 19.5832C9.35887 19.5832 8.7353 19.379 8.21913 19.0001L7.0733 18.1584C6.84496 17.9907 6.57929 17.8809 6.29913 17.8384L4.8933 17.6226C4.26052 17.5254 3.67527 17.2288 3.22265 16.776C2.77003 16.3233 2.47366 15.7379 2.37663 15.1051L2.1608 13.7001C2.11838 13.42 2.00857 13.1543 1.8408 12.9259L0.999134 11.7801C0.620293 11.2639 0.416016 10.6404 0.416016 10.0001C0.416016 9.35984 0.620293 8.73627 0.999134 8.22011L1.8408 7.07428C2.0083 6.84594 2.1183 6.58011 2.1608 6.30011L2.37663 4.89428C2.47387 4.2615 2.77044 3.67625 3.2232 3.22363C3.67597 2.77101 4.26133 2.47464 4.89413 2.37761L6.29913 2.16178C6.57913 2.11928 6.84497 2.00928 7.0733 1.84178L8.21913 1.00011C8.7353 0.62127 9.35887 0.416992 9.99913 0.416992C10.6394 0.416992 11.263 0.62127 11.7791 1.00011ZM8.95913 2.00761L7.8133 2.84928C7.42245 3.13648 6.9678 3.32463 6.4883 3.39761L5.0833 3.61261C4.71329 3.66932 4.37103 3.84263 4.10634 4.10732C3.84165 4.37201 3.66834 4.71427 3.61163 5.08428L3.39663 6.48928C3.32352 6.96848 3.13538 7.42284 2.8483 7.81344L2.00663 8.96011C1.78539 9.26173 1.66609 9.62605 1.66609 10.0001C1.66609 10.3742 1.78539 10.7385 2.00663 11.0401L2.8483 12.1859C3.13497 12.5768 3.3233 13.0318 3.39663 13.5109L3.61163 14.9159C3.7283 15.6751 4.32413 16.2709 5.0833 16.3876L6.4883 16.6026C6.96751 16.6757 7.42186 16.8639 7.81247 17.1509L8.95913 17.9926C9.26075 18.2139 9.62507 18.3332 9.99913 18.3332C10.3732 18.3332 10.7375 18.2139 11.0391 17.9926L12.185 17.1509C12.5759 16.864 13.0305 16.6762 13.51 16.6034L14.915 16.3868C15.2849 16.3301 15.627 16.1569 15.8917 15.8924C16.1564 15.6279 16.3298 15.2858 16.3866 14.9159L16.6016 13.5109C16.6747 13.0317 16.8629 12.5774 17.15 12.1868L17.9916 11.0401C18.2129 10.7385 18.3322 10.3742 18.3322 10.0001C18.3322 9.62605 18.2129 9.26173 17.9916 8.96011L17.15 7.81428C16.8631 7.42335 16.6752 6.9687 16.6025 6.48928L16.3858 5.08428C16.3291 4.71439 16.1559 4.37222 15.8914 4.10754C15.6269 3.84286 15.2848 3.66948 14.915 3.61261L13.51 3.39761C13.0308 3.3245 12.5764 3.13635 12.1858 2.84928L11.0391 2.00761C10.7375 1.78636 10.3732 1.66707 9.99913 1.66707C9.62507 1.66707 9.26075 1.78636 8.95913 2.00761Z" fill="white"/>
</svg>
