<svg width="16" height="16" viewBox="0 0 16 16" fill="none" xmlns="http://www.w3.org/2000/svg">
<path d="M2.11933 10.2415L2.80933 2.9935H5.976L6.55733 9.09284M5.33667 0.586169C6.02481 0.573057 6.70713 0.714532 7.33333 1.00017C12.286 3.11484 14.3333 0.506836 14.3333 0.506836M0.5 15.4935H15.5V7.7335C15.4998 7.6207 15.4738 7.50943 15.4241 7.40821C15.3743 7.30698 15.302 7.21848 15.2128 7.14946C15.1236 7.08043 15.0198 7.03272 14.9093 7.00997C14.7988 6.98721 14.6846 6.99002 14.5753 7.01817L1 10.5335C0.856936 10.5706 0.730256 10.6542 0.63987 10.7711C0.549483 10.8881 0.500517 11.0317 0.500667 11.1795L0.5 15.4935Z" stroke="#2E2E2E" stroke-linecap="round" stroke-linejoin="round"/>
<path d="M7.49935 12.8265H6.49935M4.16602 12.8265H3.16602M13.166 15.4938H9.83268V12.4938C9.83268 12.317 9.90292 12.1474 10.0279 12.0224C10.153 11.8974 10.3225 11.8271 10.4993 11.8271H12.4993C12.6762 11.8271 12.8457 11.8974 12.9708 12.0224C13.0958 12.1474 13.166 12.317 13.166 12.4938V15.4938Z" stroke="#2E2E2E" stroke-linecap="round" stroke-linejoin="round"/>
</svg>
