<svg width="21" height="21" viewBox="0 0 21 21" fill="none" xmlns="http://www.w3.org/2000/svg">
<path d="M2.77417 12.9183L3.63667 3.85833H7.595L8.32167 11.4825M6.79583 0.849167C7.65602 0.832776 8.50891 1.00962 9.29167 1.36667C15.4825 4.01 18.0417 0.75 18.0417 0.75M0.75 19.4833H19.5V9.78333C19.4998 9.64233 19.4673 9.50325 19.4051 9.37672C19.3428 9.25019 19.2525 9.13955 19.141 9.05328C19.0295 8.967 18.8997 8.90736 18.7616 8.87892C18.6235 8.85047 18.4807 8.85398 18.3442 8.88917L1.375 13.2833C1.19617 13.3297 1.03782 13.4342 0.924837 13.5804C0.811854 13.7265 0.750646 13.9061 0.750833 14.0908L0.75 19.4833Z" stroke="#999999" stroke-width="1.5" stroke-linecap="round" stroke-linejoin="round"/>
<path d="M9.50065 16.1496H8.25065M5.33398 16.1496H4.08398M16.584 19.4837H12.4173V15.7337C12.4173 15.5127 12.5051 15.3007 12.6614 15.1445C12.8177 14.9882 13.0296 14.9004 13.2507 14.9004H15.7507C15.9717 14.9004 16.1836 14.9882 16.3399 15.1445C16.4962 15.3007 16.584 15.5127 16.584 15.7337V19.4837Z" stroke="#999999" stroke-width="1.5" stroke-linecap="round" stroke-linejoin="round"/>
</svg>
