<svg width="20" height="20" viewBox="0 0 20 20" fill="none" xmlns="http://www.w3.org/2000/svg">
<path d="M9.95417 4.79199C8.815 4.79199 7.89583 4.79199 7.17333 4.88949C6.42333 4.98949 5.79167 5.20616 5.29 5.70699C4.78833 6.20866 4.57333 6.84033 4.4725 7.59033C4.375 8.31283 4.375 9.23199 4.375 10.3712V10.4628C4.375 11.602 4.375 12.5212 4.4725 13.2437C4.5725 13.9937 4.78917 14.6253 5.29 15.127C5.79167 15.6287 6.42333 15.8437 7.17333 15.9453C7.89583 16.042 8.815 16.042 9.95417 16.042H10.0458C11.185 16.042 12.1042 16.042 12.8267 15.9453C13.5767 15.8437 14.2083 15.6287 14.71 15.127C15.2117 14.6253 15.4267 13.9937 15.5283 13.2437C15.625 12.5212 15.625 11.602 15.625 10.4628V10.3712C15.625 9.23199 15.625 8.31283 15.5283 7.59033C15.4267 6.84033 15.2117 6.20866 14.71 5.70699C14.2083 5.20533 13.5767 4.99033 12.8267 4.88949C12.1042 4.79199 11.185 4.79199 10.0458 4.79199H9.95417Z" fill="white"/>
</svg>
