<svg width="20" height="20" viewBox="0 0 20 20" fill="none" xmlns="http://www.w3.org/2000/svg">
<path d="M18.3193 8.33366C18.2885 7.24116 18.1852 6.54449 17.8352 5.95033C17.3368 5.10449 16.4402 4.63366 14.6477 3.69366L12.981 2.81866C11.5177 2.05116 10.786 1.66699 9.99935 1.66699C9.21268 1.66699 8.48102 2.05033 7.01768 2.81866L5.35102 3.69366C3.55852 4.63366 2.66185 5.10449 2.16352 5.95033C1.66602 6.79533 1.66602 7.84783 1.66602 9.95199V10.0495C1.66602 12.1528 1.66602 13.2053 2.16352 14.0503C2.66185 14.8962 3.55852 15.367 5.35102 16.3078L7.01768 17.182C8.48102 17.9495 9.21268 18.3337 9.99935 18.3337C10.786 18.3337 11.5177 17.9503 12.981 17.182L14.6477 16.307C16.4402 15.3662 17.3368 14.8962 17.8352 14.0503C18.1852 13.4562 18.2885 12.7595 18.3193 11.667M17.4993 6.25033L14.166 7.91699M14.166 7.91699L13.7493 8.12533L9.99935 10.0003M14.166 7.91699V10.8337M14.166 7.91699L6.24935 3.75033M9.99935 10.0003L2.49935 6.25033M9.99935 10.0003V17.917" stroke="#999999" stroke-width="1.3" stroke-linecap="round"/>
</svg>
