<svg width="52" height="52" viewBox="0 0 52 52" fill="none" xmlns="http://www.w3.org/2000/svg">
<rect x="0.5" y="0.5" width="51" height="51" rx="25.5" stroke="#CCCCCC"/>
<path fill-rule="evenodd" clip-rule="evenodd" d="M26.0003 14C26.3539 14 26.6931 14.1405 26.9431 14.3905C27.1932 14.6406 27.3337 14.9797 27.3337 15.3333V36.6667C27.3337 37.0203 27.1932 37.3594 26.9431 37.6095C26.6931 37.8595 26.3539 38 26.0003 38C25.6467 38 25.3076 37.8595 25.0575 37.6095C24.8075 37.3594 24.667 37.0203 24.667 36.6667V15.3333C24.667 14.9797 24.8075 14.6406 25.0575 14.3905C25.3076 14.1405 25.6467 14 26.0003 14Z" fill="#666666"/>
<path fill-rule="evenodd" clip-rule="evenodd" d="M38 26.0003C38 26.3539 37.8595 26.6931 37.6095 26.9431C37.3594 27.1932 37.0203 27.3337 36.6667 27.3337H15.3333C14.9797 27.3337 14.6406 27.1932 14.3905 26.9431C14.1405 26.6931 14 26.3539 14 26.0003C14 25.6467 14.1405 25.3076 14.3905 25.0575C14.6406 24.8075 14.9797 24.667 15.3333 24.667H36.6667C37.0203 24.667 37.3594 24.8075 37.6095 25.0575C37.8595 25.3076 38 25.6467 38 26.0003Z" fill="#666666"/>
</svg>
