<svg width="20" height="20" viewBox="0 0 20 20" fill="none" xmlns="http://www.w3.org/2000/svg">
<path d="M4.55845 5.01255V15.4409C4.55834 15.7387 4.61692 16.0336 4.73083 16.3087C4.84474 16.5839 5.01176 16.8339 5.22234 17.0445C5.43292 17.2551 5.68293 17.4221 5.95809 17.536C6.23324 17.6499 6.52815 17.7085 6.82595 17.7084H13.1743C13.7754 17.7084 14.352 17.4696 14.7771 17.0445C15.2021 16.6194 15.441 16.0429 15.441 15.4417V5.01172M2.74512 5.01255H17.2551" stroke="#2E2E2E" stroke-width="1.5" stroke-linecap="round" stroke-linejoin="round"/>
<path d="M7.2793 5.01283V3.65199C7.27908 3.47326 7.31413 3.29625 7.38245 3.13109C7.45078 2.96594 7.55102 2.81589 7.67744 2.68954C7.80386 2.5632 7.95397 2.46305 8.11917 2.39483C8.28436 2.32661 8.4614 2.29167 8.64013 2.29199H11.3601C11.5389 2.29167 11.7159 2.32661 11.8811 2.39483C12.0463 2.46305 12.1964 2.5632 12.3228 2.68954C12.4492 2.81589 12.5495 2.96594 12.6178 3.13109C12.6861 3.29625 12.7212 3.47326 12.721 3.65199V5.01283M8.1868 14.1603V9.62783M11.8143 14.1603V9.62783" stroke="#2E2E2E" stroke-width="1.5" stroke-linecap="round" stroke-linejoin="round"/>
</svg>
