<svg width="20" height="20" viewBox="0 0 20 20" fill="none" xmlns="http://www.w3.org/2000/svg">
<path d="M12.0664 2.00581C11.9697 1.58821 11.7285 1.21821 11.3855 0.961101C11.0425 0.703995 10.6197 0.576308 10.1917 0.600574C9.76371 0.62484 9.35805 0.799497 9.0463 1.09373C8.73455 1.38796 8.53674 1.78285 8.48779 2.20871C8.43884 2.63458 8.54188 3.06405 8.77874 3.42134C9.0156 3.77863 9.37105 4.04078 9.78237 4.16152C10.1937 4.28226 10.6344 4.25384 11.0268 4.08127C11.4192 3.9087 11.7381 3.60307 11.9271 3.21831C13.0777 3.48032 14.1472 4.01829 15.0436 4.78581C15.9399 5.55334 16.6361 6.52738 17.0721 7.62394L18.1814 7.18769C17.6679 5.88706 16.841 4.73346 15.7742 3.82944C14.7074 2.92542 13.4337 2.29898 12.0664 2.00581ZM10.3027 3.02956C10.2215 3.03217 10.1406 3.01843 10.0648 2.98915C9.98899 2.95987 9.91985 2.91566 9.86148 2.85914C9.80311 2.80261 9.7567 2.73493 9.72501 2.66012C9.69331 2.5853 9.67698 2.50488 9.67698 2.42363C9.67698 2.34237 9.69331 2.26195 9.72501 2.18713C9.7567 2.11232 9.80311 2.04464 9.86148 1.98811C9.91985 1.93159 9.98899 1.88738 10.0648 1.8581C10.1406 1.82882 10.2215 1.81508 10.3027 1.81769C10.4635 1.81769 10.6177 1.88156 10.7314 1.99525C10.8451 2.10895 10.9089 2.26315 10.9089 2.42394C10.9089 2.58473 10.8451 2.73893 10.7314 2.85262C10.6177 2.96632 10.4635 3.02956 10.3027 3.02956ZM7.63581 3.53331L7.18769 2.42456C5.88706 2.9381 4.73346 3.76503 3.82944 4.83184C2.92542 5.89865 2.29898 7.1723 2.00581 8.53956C1.58821 8.63634 1.21821 8.87751 0.961101 9.22052C0.703995 9.56353 0.576308 9.98633 0.600574 10.4143C0.62484 10.8423 0.799497 11.248 1.09373 11.5597C1.38796 11.8715 1.78285 12.0693 2.20871 12.1182C2.63458 12.1672 3.06405 12.0641 3.42134 11.8273C3.77863 11.5904 4.04078 11.235 4.16152 10.8236C4.28226 10.4123 4.25384 9.97158 4.08127 9.57918C3.9087 9.18678 3.60307 8.86794 3.21831 8.67894C3.4814 7.52698 4.02112 6.45645 4.7908 5.5599C5.56049 4.66335 6.53697 3.96777 7.63581 3.53331ZM2.42331 10.9096C2.3437 10.9096 2.26486 10.8939 2.19131 10.8634C2.11776 10.8329 2.05093 10.7883 1.99463 10.732C1.93833 10.6757 1.89368 10.6089 1.86321 10.5353C1.83274 10.4618 1.81706 10.3829 1.81706 10.3033C1.81706 10.2237 1.83274 10.1449 1.86321 10.0713C1.89368 9.99776 1.93833 9.93092 1.99463 9.87463C2.05093 9.81833 2.11776 9.77368 2.19131 9.74321C2.26486 9.71274 2.3437 9.69706 2.42331 9.69706C2.5841 9.69706 2.7383 9.76093 2.852 9.87463C2.96569 9.98832 3.02956 10.1425 3.02956 10.3033C3.02956 10.4641 2.96569 10.6183 2.852 10.732C2.7383 10.8457 2.5841 10.9096 2.42331 10.9096ZM10.3027 16.3639C9.96458 16.365 9.63347 16.4604 9.34653 16.6392C9.0596 16.8181 8.8282 17.0734 8.67831 17.3764C7.52754 17.1145 6.45778 16.5764 5.56133 15.8088C4.66487 15.0412 3.96864 14.0669 3.53269 12.9702L2.42394 13.4183C2.93914 14.7211 3.76884 15.8762 4.839 16.7803C5.90917 17.6845 7.18651 18.3097 8.55706 18.6002C8.63579 18.9339 8.80723 19.2385 9.0516 19.4789C9.29596 19.7194 9.60332 19.8859 9.93821 19.9592C10.2731 20.0325 10.6219 20.0097 10.9444 19.8933C11.2669 19.777 11.5499 19.5719 11.7609 19.3016C11.9718 19.0314 12.1021 18.707 12.1367 18.366C12.1713 18.0249 12.1087 17.681 11.9563 17.3739C11.8039 17.0668 11.5678 16.8091 11.2752 16.6304C10.9826 16.4517 10.6455 16.3593 10.3027 16.3639ZM10.3027 18.7883C10.1419 18.7883 9.9877 18.7244 9.87401 18.6107C9.76031 18.4971 9.69644 18.3428 9.69644 18.1821C9.69644 18.0213 9.76031 17.8671 9.87401 17.7534C9.9877 17.6397 10.1419 17.5758 10.3027 17.5758C10.4635 17.5758 10.6177 17.6397 10.7314 17.7534C10.8451 17.8671 10.9089 18.0213 10.9089 18.1821C10.9089 18.3428 10.8451 18.4971 10.7314 18.6107C10.6177 18.7244 10.4635 18.7883 10.3027 18.7883ZM19.9996 10.3027C20.0007 9.97818 19.9149 9.65928 19.7513 9.37908C19.5876 9.09888 19.3519 8.86757 19.0687 8.70916C18.7855 8.55075 18.465 8.47099 18.1406 8.47817C17.8162 8.48535 17.4996 8.57921 17.2236 8.75C16.9477 8.92079 16.7225 9.16229 16.5714 9.44946C16.4202 9.73663 16.3487 10.059 16.3641 10.3831C16.3796 10.7073 16.4815 11.0214 16.6593 11.2929C16.8371 11.5643 17.0843 11.7833 17.3752 11.9271C17.1131 13.0777 16.5751 14.1474 15.8074 15.0437C15.0398 15.94 14.0656 16.6362 12.9689 17.0721L13.4177 18.1814C14.7205 17.6662 15.8755 16.8365 16.7797 15.7664C17.6839 14.6962 18.3091 13.4189 18.5996 12.0483C18.9941 11.955 19.3461 11.7326 19.5998 11.4163C19.8534 11.1 19.9942 10.7081 19.9996 10.3027ZM18.1808 10.9089C18.02 10.9089 17.8658 10.8451 17.7521 10.7314C17.6384 10.6177 17.5746 10.4635 17.5746 10.3027C17.5746 10.1419 17.6384 9.9877 17.7521 9.874C17.8658 9.76031 18.02 9.69644 18.1808 9.69644C18.3416 9.69644 18.4958 9.76031 18.6095 9.874C18.7232 9.9877 18.7871 10.1419 18.7871 10.3027C18.7871 10.4635 18.7232 10.6177 18.6095 10.7314C18.4958 10.8451 18.3416 10.9089 18.1808 10.9089Z" fill="#999999"/>
<path d="M11.9937 10.2185C12.3385 9.88183 12.5752 9.44998 12.6734 8.97814C12.7717 8.5063 12.7271 8.01589 12.5453 7.56953C12.3635 7.12317 12.0528 6.74112 11.6529 6.47217C11.2529 6.20322 10.7819 6.05957 10.3 6.05957C9.81801 6.05957 9.34699 6.20322 8.94705 6.47217C8.54712 6.74112 8.23643 7.12317 8.05464 7.56953C7.87286 8.01589 7.82825 8.5063 7.92649 8.97814C8.02473 9.44998 8.26138 9.88183 8.60621 10.2185C8.19585 10.4959 7.85971 10.8696 7.6272 11.307C7.39469 11.7443 7.27289 12.232 7.27246 12.7273V13.9392H13.3331V12.7267C13.332 12.2308 13.2094 11.7429 12.9759 11.3055C12.7424 10.8681 12.4051 10.4953 11.9937 10.2185ZM9.09059 8.48416C9.09059 8.32493 9.12195 8.16726 9.18288 8.02016C9.24382 7.87305 9.33313 7.73938 9.44572 7.62679C9.55831 7.5142 9.69198 7.42489 9.83908 7.36396C9.98619 7.30302 10.1439 7.27166 10.3031 7.27166C10.4623 7.27166 10.62 7.30302 10.7671 7.36396C10.9142 7.42489 11.0479 7.5142 11.1605 7.62679C11.273 7.73938 11.3624 7.87305 11.4233 8.02016C11.4842 8.16726 11.5156 8.32493 11.5156 8.48416C11.5156 8.80574 11.3878 9.11414 11.1605 9.34153C10.9331 9.56892 10.6247 9.69666 10.3031 9.69666C9.98151 9.69666 9.67311 9.56892 9.44572 9.34153C9.21833 9.11414 9.09059 8.80574 9.09059 8.48416ZM8.48434 12.7267C8.47986 12.485 8.52358 12.2449 8.61295 12.0204C8.70233 11.7958 8.83556 11.5913 9.00486 11.4189C9.17416 11.2464 9.37614 11.1094 9.59899 11.0159C9.82184 10.9224 10.0611 10.8742 10.3028 10.8742C10.5445 10.8742 10.7837 10.9224 11.0066 11.0159C11.2294 11.1094 11.4314 11.2464 11.6007 11.4189C11.77 11.5913 11.9032 11.7958 11.9926 12.0204C12.082 12.2449 12.1257 12.485 12.1212 12.7267H8.48434Z" fill="#999999"/>
</svg>
