<svg width="20" height="20" viewBox="0 0 20 20" fill="none" xmlns="http://www.w3.org/2000/svg">
<path d="M18.125 10C18.125 11.875 14.4875 15.625 10 15.625C5.5125 15.625 1.875 11.875 1.875 10C1.875 8.125 5.5125 4.375 10 4.375C14.4875 4.375 18.125 8.125 18.125 10Z" stroke="#2E2E2E" stroke-width="1.5" stroke-linejoin="round"/>
<path d="M13.125 10C13.125 10.8288 12.7958 11.6237 12.2097 12.2097C11.6237 12.7958 10.8288 13.125 10 13.125C9.1712 13.125 8.37634 12.7958 7.79029 12.2097C7.20424 11.6237 6.875 10.8288 6.875 10C6.875 9.1712 7.20424 8.37634 7.79029 7.79029C8.37634 7.20424 9.1712 6.875 10 6.875C10.8288 6.875 11.6237 7.20424 12.2097 7.79029C12.7958 8.37634 13.125 9.1712 13.125 10Z" stroke="#2E2E2E" stroke-width="1.5" stroke-linejoin="round"/>
</svg>
