<svg width="16" height="16" viewBox="0 0 16 16" fill="none" xmlns="http://www.w3.org/2000/svg">
<path fill-rule="evenodd" clip-rule="evenodd" d="M7.99967 2C8.17649 2 8.34605 2.07024 8.47108 2.19526C8.5961 2.32029 8.66634 2.48986 8.66634 2.66667V13.3333C8.66634 13.5101 8.5961 13.6797 8.47108 13.8047C8.34605 13.9298 8.17649 14 7.99967 14C7.82286 14 7.65329 13.9298 7.52827 13.8047C7.40325 13.6797 7.33301 13.5101 7.33301 13.3333V2.66667C7.33301 2.48986 7.40325 2.32029 7.52827 2.19526C7.65329 2.07024 7.82286 2 7.99967 2Z" fill="white"/>
<path fill-rule="evenodd" clip-rule="evenodd" d="M14 8.00065C14 8.17746 13.9298 8.34703 13.8047 8.47206C13.6797 8.59708 13.5101 8.66732 13.3333 8.66732H2.66667C2.48986 8.66732 2.32029 8.59708 2.19526 8.47206C2.07024 8.34703 2 8.17746 2 8.00065C2 7.82384 2.07024 7.65427 2.19526 7.52925C2.32029 7.40422 2.48986 7.33398 2.66667 7.33398H13.3333C13.5101 7.33398 13.6797 7.40422 13.8047 7.52925C13.9298 7.65427 14 7.82384 14 8.00065Z" fill="white"/>
</svg>
