<svg width="28" height="24" viewBox="0 0 28 24" fill="none" xmlns="http://www.w3.org/2000/svg">
<circle cx="16" cy="12" r="11.25" stroke="white" stroke-width="1.5"/>
<path fill-rule="evenodd" clip-rule="evenodd" d="M15.9997 6C16.1765 6 16.3461 6.07024 16.4711 6.19526C16.5961 6.32029 16.6663 6.48986 16.6663 6.66667V17.3333C16.6663 17.5101 16.5961 17.6797 16.4711 17.8047C16.3461 17.9298 16.1765 18 15.9997 18C15.8229 18 15.6533 17.9298 15.5283 17.8047C15.4032 17.6797 15.333 17.5101 15.333 17.3333V6.66667C15.333 6.48986 15.4032 6.32029 15.5283 6.19526C15.6533 6.07024 15.8229 6 15.9997 6Z" fill="white"/>
<path fill-rule="evenodd" clip-rule="evenodd" d="M22 12.0007C22 12.1775 21.9298 12.347 21.8047 12.4721C21.6797 12.5971 21.5101 12.6673 21.3333 12.6673H10.6667C10.4899 12.6673 10.3203 12.5971 10.1953 12.4721C10.0702 12.347 10 12.1775 10 12.0007C10 11.8238 10.0702 11.6543 10.1953 11.5292C10.3203 11.4042 10.4899 11.334 10.6667 11.334H21.3333C21.5101 11.334 21.6797 11.4042 21.8047 11.5292C21.9298 11.6543 22 11.8238 22 12.0007Z" fill="white"/>
</svg>
