<svg width="16" height="16" viewBox="0 0 16 16" fill="none" xmlns="http://www.w3.org/2000/svg">
<path d="M2.11933 10.2405L2.80933 2.99253H5.976L6.55733 9.09186M5.33667 0.585193C6.02481 0.57208 6.70713 0.713556 7.33333 0.999193C12.286 3.11386 14.3333 0.505859 14.3333 0.505859M0.5 15.4925H15.5V7.73253C15.4998 7.61972 15.4738 7.50846 15.4241 7.40723C15.3743 7.30601 15.302 7.2175 15.2128 7.14848C15.1236 7.07946 15.0198 7.03175 14.9093 7.00899C14.7988 6.98624 14.6846 6.98904 14.5753 7.01719L1 10.5325C0.856936 10.5696 0.730256 10.6532 0.63987 10.7701C0.549483 10.8871 0.500517 11.0307 0.500667 11.1785L0.5 15.4925Z" stroke="#2E2E2E" stroke-linecap="round" stroke-linejoin="round"/>
<path d="M7.50033 12.8255H6.50033M4.16699 12.8255H3.16699M13.167 15.4928H9.83366V12.4928C9.83366 12.316 9.9039 12.1465 10.0289 12.0214C10.1539 11.8964 10.3235 11.8262 10.5003 11.8262H12.5003C12.6771 11.8262 12.8467 11.8964 12.9717 12.0214C13.0968 12.1465 13.167 12.316 13.167 12.4928V15.4928Z" stroke="#2E2E2E" stroke-linecap="round" stroke-linejoin="round"/>
</svg>
