<svg width="16" height="16" viewBox="0 0 16 16" fill="none" xmlns="http://www.w3.org/2000/svg">
<path d="M11.5 4.60078L10.2 3.30078L9.5 4.00078L11.5 6.00078L15 2.50078L14.3 1.80078L11.5 4.60078ZM6 2.70078L5.3 2.00078L4 3.30078L2.7 2.00078L2 2.70078L3.3 4.00078L2 5.30078L2.7 6.00078L4 4.70078L5.3 6.00078L6 5.30078L4.7 4.00078L6 2.70078ZM6 10.7008L5.3 10.0008L4 11.3008L2.7 10.0008L2 10.7008L3.3 12.0008L2 13.3008L2.7 14.0008L4 12.7008L5.3 14.0008L6 13.3008L4.7 12.0008L6 10.7008Z" fill="#4D4D4D"/>
<path d="M8.5 7.5V1H7.5V7.5H1V8.5H7.5V15H8.5V8.5H15V7.5H8.5Z" fill="black"/>
</svg>
