<svg width="32" height="32" viewBox="0 0 32 32" fill="none" xmlns="http://www.w3.org/2000/svg">
<rect width="32" height="32" rx="16" fill="#D6EFF9"/>
<path d="M25.8102 15.2016L24.7164 12.4672C24.6358 12.2638 24.4958 12.0894 24.3147 11.9667C24.1335 11.8441 23.9196 11.7789 23.7008 11.7797H20.8438V11C20.8438 10.8757 20.7944 10.7565 20.7065 10.6685C20.6185 10.5806 20.4993 10.5312 20.375 10.5312H8.5C8.20992 10.5312 7.93172 10.6465 7.7266 10.8516C7.52148 11.0567 7.40625 11.3349 7.40625 11.625V20.375C7.40625 20.6651 7.52148 20.9433 7.7266 21.1484C7.93172 21.3535 8.20992 21.4687 8.5 21.4687H9.95312C10.0607 21.9986 10.3482 22.4749 10.7668 22.8171C11.1854 23.1592 11.7094 23.3461 12.25 23.3461C12.7906 23.3461 13.3146 23.1592 13.7332 22.8171C14.1518 22.4749 14.4393 21.9986 14.5469 21.4687H18.7031C18.8107 21.9986 19.0982 22.4749 19.5168 22.8171C19.9354 23.1592 20.4594 23.3461 21 23.3461C21.5406 23.3461 22.0646 23.1592 22.4832 22.8171C22.9018 22.4749 23.1893 21.9986 23.2969 21.4687H24.75C25.0401 21.4687 25.3183 21.3535 25.5234 21.1484C25.7285 20.9433 25.8438 20.6651 25.8438 20.375V15.375C25.8436 15.3156 25.8322 15.2567 25.8102 15.2016ZM20.8438 12.7187H23.7016C23.7329 12.7187 23.7634 12.7281 23.7893 12.7456C23.8153 12.7632 23.8353 12.7881 23.8469 12.8172L24.6828 14.9062H20.8438V12.7187ZM8.34375 11.625C8.34375 11.5836 8.36021 11.5438 8.38951 11.5145C8.41882 11.4852 8.45856 11.4687 8.5 11.4687H19.9062V16.7812H8.34375V11.625ZM12.25 22.4062C11.9719 22.4062 11.7 22.3238 11.4687 22.1693C11.2375 22.0147 11.0572 21.7951 10.9508 21.5381C10.8444 21.2812 10.8165 20.9984 10.8708 20.7257C10.925 20.4529 11.059 20.2023 11.2556 20.0056C11.4523 19.809 11.7029 19.675 11.9757 19.6208C12.2484 19.5665 12.5312 19.5944 12.7881 19.7008C13.0451 19.8072 13.2647 19.9875 13.4193 20.2187C13.5738 20.45 13.6562 20.7219 13.6562 21C13.6562 21.373 13.5081 21.7306 13.2444 21.9944C12.9806 22.2581 12.623 22.4062 12.25 22.4062ZM18.7031 20.5312H14.5469C14.4393 20.0014 14.1518 19.5251 13.7332 19.1829C13.3146 18.8408 12.7906 18.6539 12.25 18.6539C11.7094 18.6539 11.1854 18.8408 10.7668 19.1829C10.3482 19.5251 10.0607 20.0014 9.95312 20.5312H8.5C8.45856 20.5312 8.41882 20.5148 8.38951 20.4855C8.36021 20.4562 8.34375 20.4164 8.34375 20.375V17.7187H19.9062V18.9281C19.6 19.0902 19.3333 19.3179 19.1253 19.5951C18.9173 19.8722 18.7732 20.1919 18.7031 20.5312ZM21 22.4062C20.7219 22.4062 20.45 22.3238 20.2187 22.1693C19.9875 22.0147 19.8072 21.7951 19.7008 21.5381C19.5944 21.2812 19.5665 20.9984 19.6208 20.7257C19.675 20.4529 19.809 20.2023 20.0056 20.0056C20.2023 19.809 20.4529 19.675 20.7257 19.6208C20.9984 19.5665 21.2812 19.5944 21.5381 19.7008C21.7951 19.8072 22.0147 19.9875 22.1693 20.2187C22.3238 20.45 22.4062 20.7219 22.4062 21C22.4062 21.373 22.2581 21.7306 21.9944 21.9944C21.7306 22.2581 21.373 22.4062 21 22.4062ZM24.9062 20.375C24.9062 20.4164 24.8898 20.4562 24.8605 20.4855C24.8312 20.5148 24.7914 20.5312 24.75 20.5312H23.2969C23.1881 20.0022 22.9003 19.5268 22.4819 19.1853C22.0635 18.8437 21.5401 18.6569 21 18.6562C20.9477 18.6562 20.8953 18.6562 20.8438 18.6617V15.8437H24.9062V20.375Z" fill="#2E2E2E"/>
</svg>
