<svg width="24" height="24" viewBox="0 0 24 24" fill="none" xmlns="http://www.w3.org/2000/svg">
<path d="M5.99888 4.28557C5.54423 4.28557 5.10819 4.46619 4.7867 4.78768C4.46521 5.10917 4.2846 5.5452 4.2846 5.99986V17.9999C4.2846 18.4545 4.46521 18.8906 4.7867 19.212C5.10819 19.5335 5.54423 19.7141 5.99888 19.7141H17.9989C18.4535 19.7141 18.8896 19.5335 19.2111 19.212C19.5326 18.8906 19.7132 18.4545 19.7132 17.9999V14.1427C19.7132 13.9154 19.8035 13.6974 19.9642 13.5366C20.125 13.3759 20.343 13.2856 20.5703 13.2856C20.7976 13.2856 21.0157 13.3759 21.1764 13.5366C21.3372 13.6974 21.4275 13.9154 21.4275 14.1427V17.9999C21.4275 18.9092 21.0662 19.7812 20.4233 20.4242C19.7803 21.0672 18.9082 21.4284 17.9989 21.4284H5.99888C5.08957 21.4284 4.2175 21.0672 3.57452 20.4242C2.93154 19.7812 2.57031 18.9092 2.57031 17.9999V5.99986C2.57031 5.09055 2.93154 4.21848 3.57452 3.57549C4.2175 2.93251 5.08957 2.57129 5.99888 2.57129H9.85603C10.0834 2.57129 10.3014 2.66159 10.4621 2.82234C10.6229 2.98309 10.7132 3.2011 10.7132 3.42843C10.7132 3.65576 10.6229 3.87378 10.4621 4.03452C10.3014 4.19527 10.0834 4.28557 9.85603 4.28557H5.99888ZM13.2846 3.42843C13.2846 3.2011 13.3749 2.98309 13.5357 2.82234C13.6964 2.66159 13.9144 2.57129 14.1417 2.57129H20.5703C20.7976 2.57129 21.0157 2.66159 21.1764 2.82234C21.3372 2.98309 21.4275 3.2011 21.4275 3.42843V9.857C21.4275 10.0843 21.3372 10.3023 21.1764 10.4631C21.0157 10.6238 20.7976 10.7141 20.5703 10.7141C20.343 10.7141 20.125 10.6238 19.9642 10.4631C19.8035 10.3023 19.7132 10.0843 19.7132 9.857V5.49757L14.7477 10.463C14.6687 10.5449 14.5741 10.6102 14.4695 10.6551C14.3649 10.7 14.2525 10.7237 14.1387 10.7246C14.0248 10.7256 13.912 10.7039 13.8066 10.6609C13.7013 10.6178 13.6056 10.5541 13.5251 10.4736C13.4446 10.3931 13.381 10.2974 13.3379 10.1921C13.2948 10.0868 13.2731 9.9739 13.2741 9.86009C13.2751 9.74628 13.2987 9.6338 13.3437 9.52923C13.3886 9.42465 13.4539 9.33007 13.5357 9.251L18.5012 4.28557H14.1417C13.9144 4.28557 13.6964 4.19527 13.5357 4.03452C13.3749 3.87378 13.2846 3.65576 13.2846 3.42843Z" fill="white"/>
</svg>
