<svg width="20" height="20" viewBox="0 0 20 20" fill="none" xmlns="http://www.w3.org/2000/svg">
<path d="M9.81286 8.33365L13.8379 9.41199M9.16536 10.7487L11.5804 11.3953M16.9254 10.5395C16.4212 12.4187 16.1695 13.3587 15.5987 13.9678C15.1483 14.4488 14.5654 14.7855 13.9237 14.9353C13.8431 14.9542 13.7612 14.9687 13.6779 14.9787C12.9154 15.0728 11.9845 14.8237 10.2912 14.3703C8.41203 13.8662 7.47203 13.6145 6.86286 13.0437C6.38174 12.593 6.04505 12.0098 5.89536 11.3678C5.70536 10.5545 5.95703 9.61532 6.46119 7.73615L6.89203 6.12615L7.09536 5.37199C7.47453 3.98365 7.72953 3.21949 8.21869 2.69699C8.66923 2.21632 9.2521 1.87994 9.89369 1.73032C10.707 1.54032 11.647 1.79199 13.527 2.29615C15.4054 2.79949 16.3454 3.05115 16.9545 3.62115C17.4358 4.07203 17.7725 4.65553 17.922 5.29782C18.0562 5.87282 17.9695 6.51115 17.7295 7.50032" stroke="#666666" stroke-width="1.5" stroke-linecap="round"/>
<path d="M2.72585 13.8728C3.22919 15.7519 3.48169 16.6919 4.05252 17.3011C4.50295 17.7821 5.08583 18.1187 5.72752 18.2686C6.54085 18.4578 7.48085 18.2061 9.36085 17.7028C11.2392 17.1994 12.1792 16.9478 12.7884 16.3769C13.198 15.9932 13.5042 15.5122 13.6784 14.9786M7.09585 5.37109C6.80308 5.4472 6.47947 5.53332 6.12502 5.62943C4.24585 6.13276 3.30585 6.38443 2.69669 6.95443C2.21543 7.40531 1.87873 7.9888 1.72919 8.63109C1.59502 9.20609 1.68169 9.84443 1.92169 10.8336" stroke="#666666" stroke-width="1.5" stroke-linecap="round" stroke-linejoin="round"/>
</svg>
