<svg width="24" height="24" viewBox="0 0 24 24" fill="none" xmlns="http://www.w3.org/2000/svg">
<path d="M12.1123 19.8626C12.1123 20.1257 12.0078 20.378 11.8218 20.564C11.6357 20.7501 11.3834 20.8546 11.1204 20.8546C6.10523 20.8546 2 16.8803 2 11.9273C2 6.97429 6.10523 3 11.1204 3C15.2269 3 18.7238 5.66496 19.8559 9.34961L20.6534 8.0006C20.7872 7.77401 21.0056 7.60985 21.2604 7.54425C21.5153 7.47864 21.7857 7.51697 22.0123 7.65078C22.2389 7.7846 22.4031 8.00295 22.4687 8.2578C22.5343 8.51265 22.496 8.78312 22.3621 9.00971L20.2064 12.6534C20.0744 12.8769 19.86 13.0397 19.6093 13.107C19.3585 13.1743 19.0914 13.1405 18.8653 13.0131L15.133 10.9089C15.0195 10.8449 14.9197 10.7592 14.8394 10.6566C14.759 10.554 14.6996 10.4367 14.6646 10.3111C14.6296 10.1856 14.6197 10.0545 14.6354 9.9251C14.6511 9.79575 14.6921 9.67075 14.7561 9.55725C14.8201 9.44375 14.9058 9.34397 15.0084 9.2636C15.111 9.18323 15.2283 9.12385 15.3539 9.08885C15.4794 9.05385 15.6105 9.04391 15.7399 9.05961C15.8693 9.0753 15.9942 9.11632 16.1077 9.18032L18.0546 10.278C17.2954 7.25203 14.4955 4.98384 11.1217 4.98384C7.15666 4.98384 3.98384 8.11434 3.98384 11.9273C3.98384 15.7402 7.15666 18.8707 11.1204 18.8707C11.3834 18.8707 11.6357 18.9752 11.8218 19.1612C12.0078 19.3473 12.1123 19.5996 12.1123 19.8626Z" fill="#FF0707"/>
</svg>
