<svg width="32" height="32" viewBox="0 0 32 32" fill="none" xmlns="http://www.w3.org/2000/svg">
<rect width="32" height="32" rx="16" fill="#FFEEBB"/>
<path d="M24.3193 14.3337C24.2885 13.2412 24.1852 12.5445 23.8352 11.9503C23.3368 11.1045 22.4402 10.6337 20.6477 9.69366L18.981 8.81866C17.5177 8.05116 16.786 7.66699 15.9993 7.66699C15.2127 7.66699 14.481 8.05033 13.0177 8.81866L11.351 9.69366C9.55852 10.6337 8.66185 11.1045 8.16352 11.9503C7.66602 12.7953 7.66602 13.8478 7.66602 15.952V16.0495C7.66602 18.1528 7.66602 19.2053 8.16352 20.0503C8.66185 20.8962 9.55852 21.367 11.351 22.3078L13.0177 23.182C14.481 23.9495 15.2127 24.3337 15.9993 24.3337C16.786 24.3337 17.5177 23.9503 18.981 23.182L20.6477 22.307C22.4402 21.3662 23.3368 20.8962 23.8352 20.0503C24.1852 19.4562 24.2885 18.7595 24.3193 17.667M23.4993 12.2503L20.166 13.917M20.166 13.917L19.7493 14.1253L15.9993 16.0003M20.166 13.917V16.8337M20.166 13.917L12.2493 9.75033M15.9993 16.0003L8.49935 12.2503M15.9993 16.0003V23.917" stroke="#2E2E2E" stroke-width="1.3" stroke-linecap="round"/>
</svg>
