<svg width="24" height="24" viewBox="0 0 24 24" fill="none" xmlns="http://www.w3.org/2000/svg">
<path d="M2.35693 7.714L9.33693 12.368C10.2999 13.009 10.7809 13.33 11.3009 13.455C11.7609 13.565 12.2399 13.565 12.6989 13.455C13.2189 13.33 13.6999 13.009 14.6629 12.368L21.6429 7.714M7.15693 19.5H16.8429C18.5229 19.5 19.3629 19.5 20.0049 19.173C20.569 18.8852 21.0276 18.4263 21.3149 17.862C21.6429 17.22 21.6429 16.38 21.6429 14.7V9.3C21.6429 7.62 21.6429 6.78 21.3159 6.138C21.0283 5.57354 20.5694 5.11462 20.0049 4.827C19.3629 4.5 18.5229 4.5 16.8429 4.5H7.15693C5.47693 4.5 4.63693 4.5 3.99493 4.827C3.43084 5.11479 2.97229 5.57369 2.68493 6.138C2.35693 6.78 2.35693 7.62 2.35693 9.3V14.7C2.35693 16.38 2.35693 17.22 2.68393 17.862C2.97155 18.4265 3.43047 18.8854 3.99493 19.173C4.63693 19.5 5.47693 19.5 7.15693 19.5Z" stroke="#2E2E2E" stroke-width="1.5" stroke-linecap="round" stroke-linejoin="round"/>
</svg>
