<svg width="24" height="24" viewBox="0 0 24 24" fill="none" xmlns="http://www.w3.org/2000/svg">
<path d="M4 15.2001C4 12.9377 4 11.8058 4.7032 11.1034C5.4056 10.4002 6.5376 10.4002 8.8 10.4002H15.2C17.4624 10.4002 18.5944 10.4002 19.2968 11.1034C20 11.8058 20 12.9377 20 15.2001C20 17.4625 20 18.5944 19.2968 19.2968C18.5944 20 17.4624 20 15.2 20H8.8C6.5376 20 5.4056 20 4.7032 19.2968C4 18.5944 4 17.4625 4 15.2001Z" stroke="#2E2E2E" stroke-width="1.5"/>
<path d="M7.2002 10.3999V8.79992C7.2002 7.5269 7.70591 6.30602 8.60608 5.40586C9.50626 4.5057 10.7272 4 12.0002 4C13.2732 4 14.4941 4.5057 15.3943 5.40586C16.2945 6.30602 16.8002 7.5269 16.8002 8.79992V10.3999" stroke="#2E2E2E" stroke-width="1.5" stroke-linecap="round"/>
</svg>
