<svg width="20" height="20" viewBox="0 0 20 20" fill="none" xmlns="http://www.w3.org/2000/svg">
<path d="M10 12.5C11.3807 12.5 12.5 11.3807 12.5 10C12.5 8.61929 11.3807 7.5 10 7.5C8.61929 7.5 7.5 8.61929 7.5 10C7.5 11.3807 8.61929 12.5 10 12.5Z" stroke="#999999" stroke-width="1.5"/>
<path d="M11.4702 1.79268C11.1644 1.66602 10.7761 1.66602 9.9994 1.66602C9.22273 1.66602 8.8344 1.66602 8.52857 1.79268C8.32622 1.87644 8.14236 1.99926 7.9875 2.15412C7.83265 2.30898 7.70983 2.49283 7.62607 2.69518C7.5494 2.88102 7.51857 3.09852 7.5069 3.41435C7.50147 3.64262 7.43824 3.86579 7.3231 4.06298C7.20797 4.26016 7.0447 4.42493 6.84857 4.54185C6.64924 4.65332 6.42489 4.71241 6.19651 4.71358C5.96813 4.71474 5.74319 4.65795 5.54273 4.54852C5.26273 4.40018 5.06023 4.31852 4.8594 4.29185C4.42133 4.23424 3.97832 4.35294 3.62773 4.62185C3.36607 4.82435 3.17107 5.16018 2.78273 5.83268C2.3944 6.50518 2.1994 6.84102 2.1569 7.17018C2.12826 7.38723 2.14267 7.60779 2.19929 7.81926C2.25591 8.03074 2.35364 8.22899 2.4869 8.40268C2.61023 8.56268 2.78273 8.69685 3.05023 8.86518C3.4444 9.11268 3.69773 9.53435 3.69773 9.99935C3.69773 10.4643 3.4444 10.886 3.05023 11.1327C2.78273 11.3018 2.6094 11.436 2.4869 11.596C2.35364 11.7697 2.25591 11.968 2.19929 12.1794C2.14267 12.3909 2.12826 12.6115 2.1569 12.8285C2.20023 13.1568 2.3944 13.4935 2.7819 14.166C3.17107 14.8385 3.36523 15.1743 3.62773 15.3768C3.80143 15.5101 3.99968 15.6078 4.21115 15.6645C4.42263 15.7211 4.64319 15.7355 4.86023 15.7068C5.06023 15.6802 5.26273 15.5985 5.54273 15.4502C5.74319 15.3407 5.96813 15.284 6.19651 15.2851C6.42489 15.2863 6.64924 15.3454 6.84857 15.4568C7.25107 15.6902 7.49023 16.1193 7.5069 16.5843C7.51857 16.901 7.54857 17.1177 7.62607 17.3035C7.70983 17.5059 7.83265 17.6897 7.9875 17.8446C8.14236 17.9994 8.32622 18.1223 8.52857 18.206C8.8344 18.3327 9.22273 18.3327 9.9994 18.3327C10.7761 18.3327 11.1644 18.3327 11.4702 18.206C11.6726 18.1223 11.8564 17.9994 12.0113 17.8446C12.1662 17.6897 12.289 17.5059 12.3727 17.3035C12.4494 17.1177 12.4802 16.901 12.4919 16.5843C12.5086 16.1193 12.7477 15.6893 13.1502 15.4568C13.3496 15.3454 13.5739 15.2863 13.8023 15.2851C14.0307 15.284 14.2556 15.3407 14.4561 15.4502C14.7361 15.5985 14.9386 15.6802 15.1386 15.7068C15.3556 15.7355 15.5762 15.7211 15.7876 15.6645C15.9991 15.6078 16.1974 15.5101 16.3711 15.3768C16.6336 15.1752 16.8277 14.8385 17.2161 14.166C17.6044 13.4935 17.7994 13.1577 17.8419 12.8285C17.8705 12.6115 17.8561 12.3909 17.7995 12.1794C17.7429 11.968 17.6452 11.7697 17.5119 11.596C17.3886 11.436 17.2161 11.3018 16.9486 11.1335C16.7535 11.0147 16.5918 10.8483 16.4785 10.6499C16.3653 10.4516 16.3042 10.2277 16.3011 9.99935C16.3011 9.53435 16.5544 9.11268 16.9486 8.86602C17.2161 8.69685 17.3894 8.56268 17.5119 8.40268C17.6452 8.22899 17.7429 8.03074 17.7995 7.81926C17.8561 7.60779 17.8705 7.38723 17.8419 7.17018C17.7986 6.84185 17.6044 6.50518 17.2169 5.83268C16.8277 5.16018 16.6336 4.82435 16.3711 4.62185C16.1974 4.48859 15.9991 4.39086 15.7876 4.33424C15.5762 4.27762 15.3556 4.26321 15.1386 4.29185C14.9386 4.31852 14.7361 4.40018 14.4552 4.54852C14.2549 4.6578 14.0301 4.71451 13.8019 4.71335C13.5737 4.71218 13.3495 4.65318 13.1502 4.54185C12.9541 4.42493 12.7908 4.26016 12.6757 4.06298C12.5606 3.86579 12.4973 3.64262 12.4919 3.41435C12.4802 3.09768 12.4502 2.88102 12.3727 2.69518C12.289 2.49283 12.1662 2.30898 12.0113 2.15412C11.8564 1.99926 11.6726 1.87644 11.4702 1.79268Z" stroke="#999999" stroke-width="1.5"/>
</svg>
