<svg width="16" height="16" viewBox="0 0 16 16" fill="none" xmlns="http://www.w3.org/2000/svg">
<path fill-rule="evenodd" clip-rule="evenodd" d="M11 10V11C11 12.1 10.105 13 9 13H2C0.9 13 0 12.105 0 11V5C0 3.9 0.895 3 2 3H9C10.1 3 11 3.895 11 5V6L12.71 4.29C12.8975 4.10245 13.1518 3.99706 13.417 3.997H15.007C15.2722 3.997 15.5266 4.10236 15.7141 4.28989C15.9016 4.47743 16.007 4.73178 16.007 4.997V10.997C16.007 11.2622 15.9016 11.5166 15.7141 11.7041C15.5266 11.8916 15.2722 11.997 15.007 11.997H13.417C13.1518 11.9969 12.8975 11.8916 12.71 11.704L11 9.994V10ZM2 4H9C9.26522 4 9.51957 4.10536 9.70711 4.29289C9.89464 4.48043 10 4.73478 10 5V11C10 11.2652 9.89464 11.5196 9.70711 11.7071C9.51957 11.8946 9.26522 12 9 12H2C1.73478 12 1.48043 11.8946 1.29289 11.7071C1.10536 11.5196 1 11.2652 1 11V5C1 4.73478 1.10536 4.48043 1.29289 4.29289C1.48043 4.10536 1.73478 4 2 4ZM11 8.59L13.41 11H15V5H13.41L11 7.41V8.58V8.59Z" fill="#4D4D4D"/>
</svg>
