<svg width="20" height="20" viewBox="0 0 20 20" fill="none" xmlns="http://www.w3.org/2000/svg">
<path fill-rule="evenodd" clip-rule="evenodd" d="M13.75 12.5V13.75C13.75 15.125 12.6313 16.25 11.25 16.25H2.5C1.125 16.25 0 15.1313 0 13.75V6.25C0 4.875 1.11875 3.75 2.5 3.75H11.25C12.625 3.75 13.75 4.86875 13.75 6.25V7.5L15.8875 5.3625C16.1219 5.12806 16.4398 4.99632 16.7712 4.99625H18.7587C19.0903 4.99625 19.4082 5.12795 19.6426 5.36237C19.8771 5.59679 20.0087 5.91473 20.0087 6.24625V13.7462C20.0087 14.0778 19.8771 14.3957 19.6426 14.6301C19.4082 14.8646 19.0903 14.9962 18.7587 14.9962H16.7712C16.4398 14.9962 16.1219 14.8644 15.8875 14.63L13.75 12.4925V12.5ZM2.5 5H11.25C11.5815 5 11.8995 5.1317 12.1339 5.36612C12.3683 5.60054 12.5 5.91848 12.5 6.25V13.75C12.5 14.0815 12.3683 14.3995 12.1339 14.6339C11.8995 14.8683 11.5815 15 11.25 15H2.5C2.16848 15 1.85054 14.8683 1.61612 14.6339C1.3817 14.3995 1.25 14.0815 1.25 13.75V6.25C1.25 5.91848 1.3817 5.60054 1.61612 5.36612C1.85054 5.1317 2.16848 5 2.5 5ZM13.75 10.7375L16.7625 13.75H18.75V6.25H16.7625L13.75 9.2625V10.725V10.7375Z" fill="#999999"/>
</svg>
