<svg width="20" height="20" viewBox="0 0 20 20" fill="none" xmlns="http://www.w3.org/2000/svg">
<path d="M4.55747 5.01255V15.4409C4.55736 15.7387 4.61594 16.0336 4.72985 16.3087C4.84377 16.5839 5.01079 16.8339 5.22137 17.0445C5.43194 17.2551 5.68195 17.4221 5.95711 17.536C6.23227 17.6499 6.52717 17.7085 6.82497 17.7084H13.1733C13.7745 17.7084 14.351 17.4696 14.7761 17.0445C15.2012 16.6194 15.44 16.0429 15.44 15.4417V5.01172M2.74414 5.01255H17.2541" stroke="#666666" stroke-width="1.5" stroke-linecap="round" stroke-linejoin="round"/>
<path d="M7.27734 5.01185V3.65102C7.27713 3.47229 7.31218 3.29527 7.3805 3.13012C7.44882 2.96496 7.54907 2.81491 7.67548 2.68857C7.8019 2.56223 7.95202 2.46207 8.11721 2.39386C8.28241 2.32564 8.45945 2.29069 8.63818 2.29102H11.3582C11.5369 2.29069 11.7139 2.32564 11.8791 2.39386C12.0443 2.46207 12.1945 2.56223 12.3209 2.68857C12.4473 2.81491 12.5475 2.96496 12.6159 3.13012C12.6842 3.29527 12.7192 3.47229 12.719 3.65102V5.01185M8.18485 14.1594V9.62685M11.8123 14.1594V9.62685" stroke="#666666" stroke-width="1.5" stroke-linecap="round" stroke-linejoin="round"/>
</svg>
